<?xml version="1.0" encoding="UTF-8" standalone="no"?>
<!-- Created with Inkscape (http://www.inkscape.org/) -->

<svg
   width="256"
   height="256"
   viewBox="0 0 67.733332 67.733333"
   version="1.1"
   id="svg1"
   inkscape:version="1.3.2 (091e20ef0f, 2023-11-25, custom)"
   sodipodi:docname="recycled.svg"
   inkscape:export-filename="png/recycled.png"
   inkscape:export-xdpi="96"
   inkscape:export-ydpi="96"
   xmlns:inkscape="http://www.inkscape.org/namespaces/inkscape"
   xmlns:sodipodi="http://sodipodi.sourceforge.net/DTD/sodipodi-0.dtd"
   xmlns:xlink="http://www.w3.org/1999/xlink"
   xmlns="http://www.w3.org/2000/svg"
   xmlns:svg="http://www.w3.org/2000/svg"
   xmlns:rdf="http://www.w3.org/1999/02/22-rdf-syntax-ns#"
   xmlns:cc="http://creativecommons.org/ns#">
  <sodipodi:namedview
     id="namedview1"
     pagecolor="#ffffff"
     bordercolor="#666666"
     borderopacity="1.0"
     inkscape:showpageshadow="2"
     inkscape:pageopacity="0.0"
     inkscape:pagecheckerboard="0"
     inkscape:deskcolor="#d1d1d1"
     inkscape:document-units="px"
     inkscape:zoom="2.5426681"
     inkscape:cx="44.834794"
     inkscape:cy="155.93856"
     inkscape:window-width="1920"
     inkscape:window-height="1004"
     inkscape:window-x="0"
     inkscape:window-y="0"
     inkscape:window-maximized="1"
     inkscape:current-layer="g12888-7-9"
     showgrid="false" />
  <defs
     id="defs1">
    <linearGradient
       id="linearGradient37"
       inkscape:collect="always">
      <stop
         style="stop-color:#ecda0e;stop-opacity:1;"
         offset="0"
         id="stop37" />
      <stop
         style="stop-color:#c5b70d;stop-opacity:1;"
         offset="1"
         id="stop38" />
    </linearGradient>
    <linearGradient
       id="linearGradient27"
       inkscape:collect="always">
      <stop
         style="stop-color:#ebebeb;stop-opacity:1;"
         offset="0"
         id="stop27" />
      <stop
         style="stop-color:#cfcfcf;stop-opacity:1;"
         offset="1"
         id="stop28" />
    </linearGradient>
    <linearGradient
       inkscape:collect="always"
       xlink:href="#linearGradient27"
       id="linearGradient28"
       x1="33.179368"
       y1="39.343706"
       x2="46.192532"
       y2="42.905514"
       gradientUnits="userSpaceOnUse" />
    <clipPath
       clipPathUnits="userSpaceOnUse"
       id="clipPath32">
      <path
         id="path33"
         style="fill:#1b1b1b;fill-opacity:1;stroke-width:0.459095;stroke-linecap:round;stroke-linejoin:round"
         d="m 36.254528,49.895009 c 0.194049,-0.407057 0.831634,-0.76845 1.617945,-0.756275 0.786312,0.01218 1.145884,0.248213 1.54722,0.659509 0.401335,0.411295 1.694763,2.068258 1.701543,2.532842 0.0068,0.464583 -0.233366,1.980943 -0.77229,2.387161 -0.538924,0.406218 -1.654144,0.585893 -2.241353,0.46973 -0.587208,-0.116162 0.248768,-2.048996 0.227909,-2.613036 -0.02086,-0.564039 0.01961,-0.853913 -0.141719,-1.230923 -0.161331,-0.377011 -0.343443,-0.370861 -0.70368,-0.516997 -0.360238,-0.146136 -1.447197,0.296143 -1.519025,0.221404 -0.07183,-0.07474 0.0894,-0.746358 0.28345,-1.153415 z"
         sodipodi:nodetypes="zzzzzzzzzzz" />
    </clipPath>
    <clipPath
       clipPathUnits="userSpaceOnUse"
       id="clipPath35">
      <path
         id="path36"
         style="display:inline;fill:#ffffff;stroke-width:1.18169;stroke-linecap:square;stroke-miterlimit:1.5;paint-order:fill markers stroke"
         inkscape:label="eye white left"
         d="m 36.054386,35.779739 c 0.129881,0.100983 0.288305,0.13107 0.490854,0.148198 0.202552,0.01703 0.42006,-0.003 0.585695,-0.07961 0.165631,-0.0765 0.257474,-0.232373 0.335546,-0.351904 0.07809,-0.119529 0.0835,-0.284647 -0.0044,-0.440608 -0.08792,-0.155976 -0.265523,-0.270732 -0.5042,-0.324621 -0.238716,-0.05389 -0.632318,0.01862 -0.827763,0.133534 -0.195446,0.114914 -0.293876,0.239819 -0.29062,0.40652 0.0032,0.166682 0.08504,0.407527 0.214923,0.508508 z"
         sodipodi:nodetypes="zzzzzzzzzz" />
    </clipPath>
    <clipPath
       clipPathUnits="userSpaceOnUse"
       id="clipPath36">
      <path
         id="path37"
         style="display:inline;fill:#ffffff;stroke-width:1.13012;stroke-linecap:square;stroke-miterlimit:1.5;paint-order:fill markers stroke"
         inkscape:label="eye white right"
         d="m 35.737812,34.886578 c -0.12159,0.142368 -0.169305,0.22872 -0.181111,0.400212 -0.0118,0.171496 0.0326,0.356978 0.14723,0.462467 0.114654,0.105491 0.276331,0.169892 0.426007,0.185607 0.149693,0.01572 0.305561,0.03372 0.514009,-0.0043 0.20844,-0.03789 0.50609,-0.332515 0.573388,-0.542371 0.06731,-0.209871 0.01198,-0.309427 -0.161807,-0.454064 -0.173803,-0.144635 -0.554353,-0.244121 -0.813101,-0.225297 -0.258749,0.01882 -0.383057,0.03539 -0.504642,0.177755 z"
         sodipodi:nodetypes="zzzzzzzzzz" />
    </clipPath>
    <linearGradient
       inkscape:collect="always"
       xlink:href="#linearGradient37"
       id="linearGradient38"
       x1="39.02174"
       y1="41.14045"
       x2="40.940266"
       y2="50.311714"
       gradientUnits="userSpaceOnUse" />
    <clipPath
       clipPathUnits="userSpaceOnUse"
       id="clipPath7">
      <path
         id="path9"
         style="fill:url(#linearGradient9);stroke-width:0.79375;stroke-linecap:round;stroke-linejoin:round"
         d="m 42.174811,29.42627 c 1.132704,0.327101 3.574617,1.926841 3.779188,2.162836 0.204568,0.235997 1.714117,3.620284 1.784916,4.157746 0.0708,0.537462 -2.772065,-0.821477 -2.683782,0.593806 0.08828,1.415285 0.368671,11.533909 0.199537,12.056124 -0.169134,0.522212 -0.120282,0.879964 -0.964512,0.936149 -0.844232,0.05619 -10.952338,-0.179422 -11.051208,-0.990595 -0.09887,-0.811174 0.404046,-11.62455 0.295555,-11.779216 -0.108488,-0.154665 -2.470796,-0.407158 -2.674076,-0.761888 -0.203279,-0.354728 2.491377,-4.467113 2.867903,-4.830245 0.376523,-0.363132 2.257121,-1.249632 3.315941,-1.417851 1.058823,-0.168219 1.237622,0.388973 2.151918,0.309708 0.914296,-0.07927 1.845916,-0.763675 2.97862,-0.436574 z"
         sodipodi:nodetypes="zzzzzzzzzzzzz" />
    </clipPath>
    <linearGradient
       inkscape:collect="always"
       xlink:href="#linearGradient27"
       id="linearGradient9"
       gradientUnits="userSpaceOnUse"
       x1="33.179368"
       y1="39.343706"
       x2="46.192532"
       y2="42.905514" />
    <linearGradient
       inkscape:collect="always"
       xlink:href="#linearGradient7"
       id="linearGradient8"
       x1="39.471596"
       y1="39.674927"
       x2="39.409946"
       y2="44.034939"
       gradientUnits="userSpaceOnUse" />
    <linearGradient
       id="linearGradient7"
       inkscape:collect="always">
      <stop
         style="stop-color:#ec820e;stop-opacity:1;"
         offset="0"
         id="stop7" />
      <stop
         style="stop-color:#c56c0d;stop-opacity:1;"
         offset="1"
         id="stop8" />
    </linearGradient>
    <clipPath
       clipPathUnits="userSpaceOnUse"
       id="clipPath13">
      <path
         id="path14"
         style="fill:#eaebe5;stroke-width:0.16144;stroke-linecap:round;stroke-linejoin:round;paint-order:fill markers stroke"
         d="m 50.539268,20.649962 c -0.548952,-2.607903 3.98922,-5.373085 4.654849,-5.327158 0.66563,0.04593 1.447087,2.680861 1.30672,3.095148 -0.140367,0.414288 -2.660254,1.106215 -2.418842,2.022256 0.241412,0.916042 1.786813,1.654487 2.056332,3.076617 0.269516,1.422133 -0.415792,3.083777 -1.594855,3.258771 -1.179062,0.174994 -2.19183,-0.511934 -2.306962,-0.544674 -0.115134,-0.03274 0.07302,-1.305954 0.26421,-1.402707 0.19119,-0.09675 2.088534,0.797126 1.897108,-0.718567 -0.191425,-1.515692 -3.309605,-0.851783 -3.85856,-3.459686 z"
         sodipodi:nodetypes="zzzzzzzzzz" />
    </clipPath>
  </defs>
  <g
     inkscape:label="Layer 1"
     inkscape:groupmode="layer"
     id="layer1">
    <g
       id="g15"
       inkscape:label="integrelle"
       transform="matrix(1.1472301,0,0,1.1472301,-13.127858,2.0266055)"
       style="display:inline">
      <g
         id="g9"
         inkscape:label="body"
         transform="matrix(1.8435206,0,0,1.8435206,-30.666703,-8.4616463)">
        <path
           id="rect19720-1"
           style="display:inline;fill:#d8760d;fill-opacity:1;stroke-width:0.157476;stroke-linecap:round;stroke-linejoin:round;stroke-miterlimit:1.5;paint-order:fill markers stroke"
           d="m 33.137837,36.574629 c -0.02458,-0.761217 8.930357,-0.88573 9.070169,-0.462104 0.139809,0.423625 -1.048679,2.591662 -1.436652,2.700925 -0.387973,0.109263 -2.169527,-0.892003 -3.069431,-0.827512 -0.899903,0.0645 -2.882269,1.216509 -3.245708,1.159288 -0.36344,-0.05722 -1.293804,-1.809381 -1.318378,-2.570597 z"
           sodipodi:nodetypes="zzzzzz"
           transform="matrix(1.6723303,0.05971937,-0.05971937,1.6723303,-21.336051,-38.330626)" />
        <path
           id="path31"
           style="fill:#32312e;fill-opacity:1;stroke-width:0.0875713;stroke-linecap:round;stroke-linejoin:round;paint-order:fill markers stroke"
           d="m 43.844487,28.374882 c -0.04988,-0.116057 -8.32054,-0.18248 -8.493591,-0.019 -0.173051,0.163483 0.202634,1.592593 0.302988,1.761826 0.100354,0.169233 7.509027,0.402567 7.675116,0.196732 0.166089,-0.205835 0.565367,-1.823504 0.515487,-1.939561 z"
           sodipodi:nodetypes="zzzzz" />
        <path
           id="rect11"
           style="fill:#fdbd94;stroke-width:0.79375;stroke-linecap:round;stroke-linejoin:round"
           d="m 37.907837,28.124128 h 3.115935 c 0,0 -0.09652,1.475094 0,1.692306 0.09652,0.217213 4.027088,1.607361 4.027088,1.607361 l -10.705574,-0.02793 c 0,0 3.536196,-1.384437 3.562551,-1.62345 0.02636,-0.239013 0,-1.64829 0,-1.64829 z"
           sodipodi:nodetypes="cczcczc" />
        <g
           id="g14"
           inkscape:label="shirt">
          <path
             id="rect10"
             style="fill:url(#linearGradient28);stroke-width:0.79375;stroke-linecap:round;stroke-linejoin:round"
             d="m 45.253661,31.754976 c 0.204569,0.235996 1.566678,3.749293 1.637477,4.286755 0.0708,0.537461 -1.924288,-1.116356 -1.836005,0.298928 0.08828,1.415284 0.368671,11.533908 0.199537,12.056122 -0.169134,0.522213 -0.120282,0.879964 -0.964513,0.93615 -0.844231,0.05619 -10.952336,-0.179422 -11.051206,-0.990595 -0.09887,-0.811173 0.404045,-11.62455 0.295555,-11.779216 -0.108489,-0.154666 -1.216327,0.160903 -1.419607,-0.193826 -0.203279,-0.354728 2.041662,-4.419775 2.418186,-4.782907 0.376524,-0.363132 1.507539,-0.302052 2.533197,-0.326559 1.025658,-0.02451 1.514755,0.0021 2.473269,1.73e-4 0.958514,-0.0019 1.70144,-0.06722 2.922583,-0.07176 1.221142,-0.0045 2.586958,0.330742 2.791527,0.566738 z"
             sodipodi:nodetypes="zzzzzzzzzzzzzz" />
          <path
             id="rect25"
             style="display:inline;fill:#41403c;stroke-width:0.0875713;stroke-linecap:round;stroke-linejoin:round;paint-order:fill markers stroke"
             d="m 35.02038,28.249152 c 0.04988,-0.116057 1.913884,0.34376 2.086935,0.507243 0.173051,0.163483 0.790713,1.419152 0.690359,1.588385 -0.100354,0.169233 -2.112023,0.402567 -2.278112,0.196732 -0.166089,-0.205835 -0.549067,-2.176303 -0.499157,-2.29236 z"
             sodipodi:nodetypes="zzzzzz" />
          <path
             id="path30"
             style="display:inline;fill:#282724;stroke-width:0.0875713;stroke-linecap:round;stroke-linejoin:round;paint-order:fill markers stroke"
             d="m 34.657383,32.824945 c 0,0 -0.128912,-2.248186 -0.901474,-1.94051 -0.772562,0.307676 -2.5933,5.604384 -2.5933,5.604384 l 3.137781,0.413361 z"
             sodipodi:nodetypes="czccc" />
          <path
             id="path28"
             style="display:inline;fill:#41403c;stroke-width:0.0875713;stroke-linecap:round;stroke-linejoin:round;paint-order:fill markers stroke"
             d="m 43.980306,28.277589 c -0.04988,-0.116057 -1.930189,0.164403 -2.10324,0.327886 -0.173051,0.163483 -0.682809,1.385903 -0.582455,1.555136 0.100354,0.169233 2.121324,0.44676 2.287413,0.240925 0.166089,-0.205835 0.448162,-2.00789 0.398282,-2.123947 z"
             sodipodi:nodetypes="zzzzz" />
          <path
             id="rect21"
             style="display:inline;fill:#373632;stroke-width:0.0875713;stroke-linecap:round;stroke-linejoin:round;paint-order:fill markers stroke"
             d="m 33.755909,30.884435 c 0.565625,-0.369626 3.427297,-1.46974 3.944408,-1.145182 0.51711,0.324557 0.402066,9.555377 -0.467557,9.905748 -0.869623,0.350371 -3.495238,-1.919235 -3.871611,-2.264528 -0.376373,-0.345293 -0.170865,-6.126412 0.39476,-6.496038 z"
             sodipodi:nodetypes="zzzzz" />
          <path
             id="rect33"
             style="fill:#cea645;stroke-width:0.0875713;stroke-linecap:round;stroke-linejoin:round;paint-order:fill markers stroke"
             d="m 42.374931,29.423111 c -0.01909,-0.0687 0.202791,-0.723993 0.274572,-0.736205 0.07178,-0.01221 0.437204,0.569536 0.439525,0.659915 0.0023,0.09038 -0.176468,0.592026 -0.241608,0.604347 -0.06514,0.01232 -0.453399,-0.459357 -0.472489,-0.528057 z"
             sodipodi:nodetypes="zzzzz" />
          <path
             id="rect30"
             style="display:inline;fill:#282724;stroke-width:0.0875713;stroke-linecap:round;stroke-linejoin:round;paint-order:fill markers stroke"
             d="m 44.455266,33.166738 c 0,0 0.128912,-2.248186 0.901474,-1.94051 0.772562,0.307676 2.5933,5.604384 2.5933,5.604384 l -3.137781,0.413361 z"
             sodipodi:nodetypes="czccc" />
          <path
             id="path27"
             style="display:inline;fill:#373632;stroke-width:0.0875713;stroke-linecap:round;stroke-linejoin:round;paint-order:fill markers stroke"
             d="m 45.35674,31.226228 c -0.565625,-0.369626 -3.499581,-1.773085 -4.016692,-1.448527 -0.51711,0.324557 -0.352296,9.430951 0.517327,9.781322 0.869623,0.350371 3.517752,-1.491464 3.894125,-1.836757 0.376373,-0.345293 0.170865,-6.126412 -0.39476,-6.496038 z"
             sodipodi:nodetypes="zzzzz" />
          <circle
             style="fill:#dcc07b;fill-opacity:1;stroke:none;stroke-width:0.0875713;stroke-linecap:round;stroke-linejoin:round;stroke-dasharray:none;stroke-opacity:1;paint-order:fill markers stroke"
             id="path32"
             cx="37.229542"
             cy="30.755415"
             r="0.35065022" />
          <circle
             style="fill:#dcc07b;fill-opacity:1;stroke:none;stroke-width:0.0875713;stroke-linecap:round;stroke-linejoin:round;stroke-dasharray:none;stroke-opacity:1;paint-order:fill markers stroke"
             id="circle32"
             cx="37.298862"
             cy="33.759331"
             r="0.35065022" />
          <circle
             style="fill:#dcc07b;fill-opacity:1;stroke:none;stroke-width:0.0875713;stroke-linecap:round;stroke-linejoin:round;stroke-dasharray:none;stroke-opacity:1;paint-order:fill markers stroke"
             id="circle33"
             cx="36.952255"
             cy="37.548885"
             r="0.35065022" />
        </g>
      </g>
      <g
         id="g12898-2-9"
         inkscape:label="head"
         transform="matrix(3.0829754,0.1100939,-0.1100939,3.0829754,-70.000152,-79.124942)"
         style="display:inline">
        <path
           id="path12"
           style="display:inline;fill:#fdc8a5;fill-opacity:1;stroke-width:1.04891;stroke-linecap:square;stroke-linejoin:round;stroke-miterlimit:1.5;paint-order:stroke fill markers"
           d="m 42.451293,29.354181 c 0.378209,0.318668 0.836416,1.684721 0.832624,2.604782 -0.0038,0.920061 0.480888,1.99483 0.415161,2.704666 -0.06573,0.709836 -0.356057,0.672117 -0.699379,1.38291 -0.343322,0.710793 -1.13415,1.256984 -1.921261,1.685645 -0.787112,0.428661 -1.736064,0.850227 -2.561471,0.95754 -0.825406,0.107313 -1.782294,0.179328 -2.640449,-0.0879 -0.858154,-0.267227 -1.859595,-0.837751 -2.803458,-1.571732 -0.943864,-0.733981 -1.480174,-2.484772 -1.239489,-3.688579 0.240685,-1.203807 0.612079,-1.961254 0.524213,-2.878864 -0.08787,-0.91761 0.303548,-1.505438 1.462318,-1.650634 1.15877,-0.145196 3.170943,0.149596 4.531633,0.04482 1.36069,-0.104776 2.981133,-0.07078 3.641776,0.201176 0.660643,0.271952 0.322576,0.173375 0.457782,0.296168 0,0 -0.378209,-0.318667 0,2e-6 z"
           inkscape:label="face"
           sodipodi:nodetypes="zzzzzzzzzzzzzsz" />
        <path
           id="path12850-2-2"
           style="fill:#fdc5a1;fill-opacity:1;stroke-width:1.04891;stroke-linecap:square;stroke-linejoin:round;stroke-miterlimit:1.5;paint-order:stroke fill markers"
           d="m 42.451293,29.354181 c 0.378209,0.318668 0.836416,1.684721 0.832624,2.604782 -0.0038,0.920061 0.480888,1.99483 0.415161,2.704666 -0.06573,0.709836 -0.356057,0.672117 -0.699379,1.38291 -0.343322,0.710793 -1.13415,1.256984 -1.921261,1.685645 -0.787112,0.428661 -1.736064,0.850227 -2.561471,0.95754 -0.825406,0.107313 -1.782294,0.179328 -2.640449,-0.0879 -0.858154,-0.267227 -1.859595,-0.837751 -2.803458,-1.571732 -0.943864,-0.733981 -1.480174,-2.484772 -1.239489,-3.688579 0.240685,-1.203807 0.612079,-1.961254 0.524213,-2.878864 -0.08787,-0.91761 0.303548,-1.505438 1.462318,-1.650634 1.15877,-0.145196 3.170943,0.149596 4.531633,0.04482 1.36069,-0.104776 2.981133,-0.07078 3.641776,0.201176 0.660643,0.271952 0.322576,0.173375 0.457782,0.296168 0,0 -0.378209,-0.318667 0,2e-6 z"
           inkscape:label="face"
           sodipodi:nodetypes="zzzzzzzzzzzzzsz" />
        <path
           id="path12852-8-7"
           style="display:inline;fill:#fdac77;fill-opacity:1;stroke-width:1.05833;stroke-linecap:square;stroke-linejoin:round;stroke-miterlimit:1.5;paint-order:stroke fill markers"
           inkscape:label="ear right"
           inkscape:transform-center-x="0.57222739"
           inkscape:transform-center-y="-0.00040558725"
           d="m 27.449032,34.435534 c -0.01172,-0.421695 1.933718,-2.266313 2.334296,-1.947094 0.400578,0.319219 0.333053,3.539832 0.127914,3.677703 -0.205139,0.137871 -2.450493,-1.308914 -2.46221,-1.730609 z"
           sodipodi:nodetypes="zzzz"
           transform="matrix(1.3809107,0,0,1.1265808,-9.2561147,-4.1681913)" />
        <path
           id="path12854-9-0"
           style="display:inline;fill:#fdac77;fill-opacity:1;stroke-width:1.32003;stroke-linecap:square;stroke-linejoin:round;stroke-miterlimit:1.5;paint-order:stroke fill markers"
           inkscape:label="ear left"
           inkscape:transform-center-x="-0.57222699"
           inkscape:transform-center-y="-0.00040558725"
           d="m 42.950352,32.806466 c -0.737179,0.532065 -0.687743,2.538531 0.04612,2.978368 0.733902,0.439836 2.666579,-1.170145 2.642213,-1.503232 -0.02437,-0.333087 -1.951151,-2.007201 -2.688329,-1.475136 z"
           sodipodi:nodetypes="zzzz" />
        <g
           id="g12888-7-9"
           inkscape:label="face feat"
           transform="matrix(1.0207242,0.02516209,-0.02576505,1.0451841,-1.0858223,-2.6718355)"
           style="stroke-width:1.04005">
          <path
             id="path12860-1-3"
             style="display:inline;fill:#fcaa73;stroke-width:1.62472;stroke-linecap:square;stroke-linejoin:round;stroke-miterlimit:1.5;paint-order:stroke fill markers"
             inkscape:label="nose"
             d="m 39.237282,35.799356 c -0.03177,0.08993 -0.870815,0.109117 -0.926477,0.0076 -0.0557,-0.101533 0.369919,-0.805272 0.461803,-0.805408 0.09188,-1.4e-4 0.496446,0.707911 0.464674,0.797837 z"
             sodipodi:nodetypes="zzzz" />
          <g
             id="g30205"
             inkscape:label="eye"
             transform="matrix(-4.4892897,-0.0854499,-0.00616611,5.1444992,199.32708,-118.06661)"
             style="display:inline;stroke-width:1.04005">
            <path
               id="rect29546"
               style="display:inline;fill:#000000;fill-opacity:1;stroke-width:0.509947;stroke-linecap:square;stroke-miterlimit:1.5;paint-order:fill markers stroke"
               inkscape:label="eye patch"
               d="m 35.337684,30.048016 c 0.06623,0.01651 0.101085,0.01643 0.227872,0.08012 0.126787,0.06369 0.178916,0.06758 0.328926,0.01841 0.15001,-0.04917 0.426821,-0.104118 0.562324,-0.04661 0.135503,0.05751 0.147141,0.171135 0.152544,0.256503 0.0054,0.08537 -0.06085,0.173417 -0.201396,0.201815 -0.140544,0.0284 -0.216779,0.0267 -0.311527,-0.0115 -0.09475,-0.0382 -0.133288,-0.09828 -0.184242,-0.166434 -0.05095,-0.06816 -0.106017,-0.119419 -0.186774,-0.125256 -0.08076,-0.0058 -0.143274,0.06881 -0.180494,0.118332 -0.03722,0.04952 -0.10222,0.115799 -0.176059,0.125393 -0.07384,0.0096 -0.245019,0.0047 -0.300943,-0.02616 -0.05592,-0.0309 -0.127051,-0.06548 -0.158828,-0.143196 -0.03178,-0.07771 -0.03264,-0.197771 0.04226,-0.247034 0.0749,-0.04926 0.14307,-0.05027 0.184629,-0.05251 0.04156,-0.0022 0.13547,0.0016 0.201706,0.01811 z"
               sodipodi:nodetypes="zzzzzzzzzzzzzzzzz" />
            <g
               id="eye-open"
               inkscape:label="open"
               style="display:inline;stroke-width:1.04005">
              <path
                 id="path35304"
                 style="display:inline;fill:#ffffff;stroke-width:0.381053;stroke-linecap:square;stroke-miterlimit:1.5;paint-order:fill markers stroke"
                 inkscape:label="eye white right"
                 d="m 36.488857,30.202328 c 0.04143,0.04741 0.05722,0.07565 0.05882,0.130089 0.0016,0.05444 -0.01718,0.112186 -0.05992,0.143256 -0.04275,0.03107 -0.101737,0.04822 -0.155671,0.05022 -0.05394,0.002 -0.11013,0.0046 -0.184321,-0.01156 -0.07419,-0.01611 -0.176438,-0.115135 -0.197355,-0.1828 -0.02092,-0.06767 4.58e-4,-0.09804 0.06502,-0.140311 0.06457,-0.04227 0.202611,-0.06617 0.295141,-0.05509 0.09253,0.01108 0.136868,0.01878 0.178296,0.06619 z"
                 sodipodi:nodetypes="zzzzzzzzzz" />
              <path
                 id="path35306"
                 style="display:inline;fill:#ffffff;stroke-width:0.387611;stroke-linecap:square;stroke-miterlimit:1.5;paint-order:fill markers stroke"
                 inkscape:label="eye white left"
                 d="m 35.439622,30.418755 c -0.0464,0.02886 -0.101604,0.03516 -0.171864,0.03659 -0.07026,0.0014 -0.145134,-0.009 -0.201234,-0.03596 -0.0561,-0.02693 -0.08551,-0.07709 -0.110704,-0.115701 -0.0252,-0.03861 -0.0246,-0.08998 0.0081,-0.136716 0.03272,-0.04674 0.09582,-0.07896 0.179117,-0.09111 0.08331,-0.01215 0.21826,0.01792 0.284089,0.05735 0.06583,0.03943 0.09798,0.0801 0.09436,0.131795 -0.0036,0.05169 -0.03549,0.124897 -0.08189,0.153756 z"
                 sodipodi:nodetypes="zzzzzzzzzz" />
              <g
                 id="g35470"
                 inkscape:label="pupil"
                 transform="matrix(-0.35872427,-0.01982705,-0.015364,0.3160773,49.844875,19.884048)"
                 style="display:inline;stroke-width:1.04005"
                 mask="none"
                 clip-path="url(#clipPath36)">
                <path
                   id="path35360"
                   style="fill:#d99dd9;fill-opacity:1;stroke-width:1.10072;stroke-linecap:square;stroke-linejoin:round;stroke-miterlimit:1.5;paint-order:stroke fill markers"
                   d="m 37.033755,35.490795 c -0.06952,0.09239 -0.166359,0.169122 -0.272994,0.21449 -0.106635,0.04537 -0.228489,0.06306 -0.343664,0.04926 -0.115175,-0.0138 -0.229398,-0.05991 -0.32225,-0.129174 -0.09285,-0.06927 -0.168843,-0.16681 -0.21449,-0.272993 -0.04565,-0.106183 -0.06304,-0.229021 -0.04926,-0.343665 0.01378,-0.114644 0.05966,-0.229865 0.129174,-0.32225 0.06952,-0.09239 0.166359,-0.169122 0.272993,-0.21449 0.106634,-0.04537 0.228489,-0.06306 0.343664,-0.04926 0.115175,0.0138 0.229398,0.05991 0.322251,0.129174 0.09285,0.06927 0.168843,0.16681 0.21449,0.272993 0.04565,0.106183 0.06304,0.22902 0.04926,0.343664 -0.01378,0.114644 -0.05965,0.229866 -0.129174,0.322251 z"
                   sodipodi:nodetypes="zzzzzzzzzzzzz"
                   mask="none" />
                <path
                   id="path35466"
                   style="fill:#333333;fill-opacity:1;stroke-width:0.946137;stroke-linecap:square;stroke-linejoin:round;stroke-miterlimit:1.5;paint-order:stroke fill markers"
                   d="m 36.852754,35.365461 c -0.04572,0.05884 -0.108874,0.107304 -0.178036,0.135475 -0.06916,0.02817 -0.14785,0.03834 -0.221921,0.02831 -0.07407,-0.01003 -0.14721,-0.04089 -0.206343,-0.08645 -0.05913,-0.04555 -0.107129,-0.109167 -0.135475,-0.178036 -0.02835,-0.06887 -0.03834,-0.148191 -0.02831,-0.221921 0.01003,-0.07373 0.04073,-0.147509 0.08645,-0.206343 0.04572,-0.05884 0.108873,-0.107303 0.178035,-0.135474 0.06916,-0.02817 0.147849,-0.03834 0.221921,-0.02831 0.07407,0.01003 0.14721,0.04089 0.206343,0.08644 0.05913,0.04555 0.107128,0.109167 0.135474,0.178036 0.02835,0.06887 0.03834,0.148192 0.02831,0.221921 -0.01003,0.07373 -0.04073,0.147509 -0.08645,0.206343 z"
                   sodipodi:nodetypes="zzzzzzzzzzzzz"
                   mask="none" />
                <ellipse
                   style="display:none;fill:#ffffff;fill-opacity:1;stroke-width:0.0645672"
                   id="path3"
                   cx="35.956913"
                   cy="35.770908"
                   transform="matrix(0.9998947,-0.01451168,0.02083119,0.99978301,0,0)"
                   rx="0.20839196"
                   ry="0.20149492" />
              </g>
              <g
                 id="g35479"
                 inkscape:label="pupil"
                 transform="matrix(-0.34561527,-0.01919635,-0.01496354,0.31048037,48.43596,20.001961)"
                 style="display:inline;stroke-width:1.04005"
                 mask="none"
                 clip-path="url(#clipPath35)">
                <path
                   id="path35475"
                   style="fill:#d99dd9;fill-opacity:1;stroke-width:1.10072;stroke-linecap:square;stroke-linejoin:round;stroke-miterlimit:1.5;paint-order:stroke fill markers"
                   d="m 37.146471,35.44511 c -0.06961,0.09227 -0.166213,0.169188 -0.272994,0.21449 -0.106781,0.0453 -0.228326,0.06304 -0.343664,0.04926 -0.115338,-0.01378 -0.229266,-0.05999 -0.32225,-0.129174 -0.09298,-0.06918 -0.168781,-0.166935 -0.21449,-0.272993 -0.04571,-0.106058 -0.06305,-0.229158 -0.04926,-0.343665 0.01379,-0.114507 0.05957,-0.22998 0.129174,-0.32225 0.06961,-0.09227 0.166212,-0.169188 0.272993,-0.21449 0.106781,-0.0453 0.228326,-0.06304 0.343664,-0.04926 0.115338,0.01378 0.229267,0.05999 0.322251,0.129174 0.09298,0.06918 0.168781,0.166936 0.21449,0.272993 0.04571,0.106057 0.06305,0.229157 0.04926,0.343664 -0.01379,0.114507 -0.05957,0.229981 -0.129174,0.322251 z"
                   sodipodi:nodetypes="zzzzzzzzzzzzz"
                   mask="none" />
                <path
                   id="path35477"
                   style="fill:#333333;fill-opacity:1;stroke-width:0.916746;stroke-linecap:square;stroke-linejoin:round;stroke-miterlimit:1.5;paint-order:stroke fill markers"
                   d="m 36.938908,35.313811 c -0.04436,0.05693 -0.105399,0.104011 -0.172505,0.131267 -0.0671,0.02726 -0.143154,0.03714 -0.215027,0.02743 -0.07188,-0.0097 -0.142556,-0.03968 -0.199932,-0.08376 -0.05738,-0.04408 -0.103764,-0.105855 -0.131267,-0.172505 -0.0275,-0.06665 -0.03715,-0.143673 -0.02743,-0.215027 0.0097,-0.07135 0.0394,-0.142998 0.08376,-0.199933 0.04436,-0.05693 0.105399,-0.10401 0.172505,-0.131266 0.0671,-0.02726 0.143154,-0.03714 0.215027,-0.02743 0.07188,0.0097 0.142556,0.03968 0.199933,0.08376 0.05738,0.04408 0.103763,0.105854 0.131266,0.172505 0.0275,0.06665 0.03715,0.143673 0.02743,0.215027 -0.0097,0.07135 -0.0394,0.142997 -0.08376,0.199932 z"
                   sodipodi:nodetypes="zzzzzzzzzzzzz"
                   mask="none" />
                <ellipse
                   style="display:none;fill:#ffffff;fill-opacity:1;stroke-width:0.0663711"
                   id="ellipse6"
                   cx="35.982109"
                   cy="35.75745"
                   transform="matrix(0.99990294,-0.01393268,0.02160763,0.99976653,0,0)"
                   rx="0.21629041"
                   ry="0.20513658" />
              </g>
            </g>
            <g
               id="eye-close"
               inkscape:label="close"
               style="display:none;stroke-width:1.04005">
              <path
                 id="rect7"
                 style="display:inline;fill:none;stroke:#ffffff;stroke-width:0.0568256;stroke-linecap:round;stroke-linejoin:round;stroke-dasharray:none"
                 d="m 36.515744,30.312424 c 0,0 -0.145508,-0.05428 -0.272119,-0.05582 -0.126628,-0.0015 -0.236197,0.05062 -0.236197,0.05062 0,0 0.108683,-0.04848 0.236197,-0.05062 0.127516,-0.0021 0.272119,0.05582 0.272119,0.05582 z"
                 sodipodi:nodetypes="czczc" />
              <path
                 id="path8"
                 style="display:inline;fill:none;stroke:#ffffff;stroke-width:0.0568256;stroke-linecap:round;stroke-linejoin:round;stroke-dasharray:none"
                 d="m 34.978431,30.209406 c 0,0 0.124128,-0.04738 0.283957,-0.01194 0.15983,0.03545 0.205511,0.08149 0.205511,0.08149 0,0 -0.04396,-0.04459 -0.205511,-0.08149 -0.161551,-0.03692 -0.283957,0.01194 -0.283957,0.01194 z"
                 sodipodi:nodetypes="czczc" />
            </g>
          </g>
          <g
             id="g12886-0-0"
             inkscape:label="lashes"
             transform="matrix(-4.5067397,-0.23649847,-0.23649847,4.5067397,208.55161,-93.54138)"
             style="display:inline;stroke-width:1.04005">
            <path
               id="path12882-3-2"
               style="display:inline;fill:#f28f26;fill-opacity:1;stroke-width:0.541549;stroke-linecap:square;stroke-miterlimit:1.5;paint-order:fill markers stroke"
               inkscape:label="right"
               d="m 35.978135,29.934283 c -0.06452,0.101248 -0.583888,-0.121985 -0.562592,-0.152307 0.02128,-0.03033 0.627117,0.05106 0.562592,0.152307 z"
               sodipodi:nodetypes="zzz" />
            <path
               id="path12884-6-3"
               style="display:inline;fill:#f28f26;fill-opacity:1;stroke-width:0.550187;stroke-linecap:square;stroke-miterlimit:1.5;paint-order:fill markers stroke"
               inkscape:label="left"
               d="m 36.313553,29.955901 c 0.03603,0.09836 0.628376,0.0012 0.6199,-0.03745 -0.0085,-0.03863 -0.655928,-0.06091 -0.6199,0.03745 z"
               sodipodi:nodetypes="zzz" />
          </g>
          <path
             id="mouth-close"
             style="display:inline;fill:#fcaa73;stroke:#fcaa73;stroke-width:0.233005;stroke-linecap:round;stroke-linejoin:round;stroke-miterlimit:1.5;stroke-dasharray:none;stroke-opacity:1;paint-order:fill markers stroke"
             d="m 39.987862,36.49067 -1.140052,0.524708 -1.20289,-0.395407 1.20289,0.395407 z"
             sodipodi:nodetypes="ccccc" />
          <ellipse
             style="display:none;fill:#2d1f15;fill-opacity:1;stroke-width:0.10319"
             id="path2"
             cx="36.542503"
             cy="39.04858"
             transform="matrix(0.99826398,-0.05889836,0.06174437,0.998092,0,0)"
             rx="0.2838968"
             ry="0.4355289" />
          <g
             id="g40"
             inkscape:label="chewing"
             style="display:none;stroke-width:1.04005"
             transform="matrix(1.1024041,0.02809345,-0.02686154,1.1287062,-3.0202707,-5.6154732)">
            <path
               id="path40"
               style="display:inline;fill:none;stroke:#fcaa73;stroke-width:0.233005;stroke-linecap:round;stroke-linejoin:round;stroke-miterlimit:1.5;stroke-dasharray:none;stroke-opacity:1;paint-order:fill markers stroke"
               d="m 40.017696,36.502205 c 0,0 -0.402238,0.295186 -0.715247,0.312749 -0.31301,0.01756 -0.477419,-0.247384 -0.79322,-0.257947 -0.315802,-0.01056 -0.45225,0.16667 -0.45225,0.16667"
               sodipodi:nodetypes="czzc" />
            <path
               id="path41"
               style="display:inline;fill:none;stroke:#fcaa73;stroke-width:0.233005;stroke-linecap:round;stroke-linejoin:round;stroke-miterlimit:1.5;stroke-dasharray:none;stroke-opacity:1;paint-order:fill markers stroke"
               d="m 37.806679,37.367673 c 0,0 0.309845,-0.271215 0.25755,-0.593066 -0.05229,-0.321851 -0.352202,-0.537178 -0.352202,-0.537178"
               sodipodi:nodetypes="czc" />
          </g>
          <g
             id="mouth-open"
             inkscape:label="mouth"
             transform="matrix(-2.4523428,-0.10145217,-0.17343387,2.427883,132.53723,-34.725584)"
             style="display:none;stroke-width:1.04005">
            <path
               id="path18-5"
               style="fill:#000000;fill-opacity:1;stroke-width:0.529;stroke-linecap:square;stroke-miterlimit:1.5;paint-order:fill markers stroke"
               inkscape:label="mouth"
               d="m 35.494282,30.707839 c 0.02115,-0.01016 0.260526,0.01601 0.578314,0.0444 0.317787,0.02837 0.4798,0.03701 0.501075,0.05529 0.02127,0.01828 -0.06357,0.168438 -0.08406,0.214841 -0.02045,0.0464 -0.09636,0.138936 -0.121201,0.144949 -0.02489,0.006 -0.241597,0.03438 -0.368296,0.02288 -0.126699,-0.0116 -0.377847,-0.07534 -0.398537,-0.09476 -0.02069,-0.01941 -0.06713,-0.112673 -0.08242,-0.164341 -0.0153,-0.05167 -0.04602,-0.213019 -0.0249,-0.22318 z"
               sodipodi:nodetypes="zzzzzzzzzz" />
            <path
               id="path19-6"
               style="fill:#ffffff;fill-opacity:1;stroke-width:0.529;stroke-linecap:square;stroke-miterlimit:1.5;paint-order:fill markers stroke"
               inkscape:label="teeth top"
               d="m 36.072711,30.75021 c 0.311262,0.02852 0.497656,0.03993 0.512148,0.06198 0.01449,0.02204 -0.206244,0.02209 -0.229859,0.03119 -0.02362,0.0091 -0.02831,0.0922 -0.05191,0.09263 -0.0236,4.31e-4 -0.08048,-0.07003 -0.102828,-0.08274 -0.02235,-0.01272 -0.295713,-0.04002 -0.320388,-0.0318 -0.02468,0.0082 -0.06758,0.07376 -0.09026,0.07088 -0.02268,-0.0029 -0.02054,-0.08521 -0.03608,-0.101482 -0.01557,-0.01627 -0.282972,-0.04876 -0.260325,-0.08128 0.02265,-0.03252 0.268241,0.01207 0.579502,0.04065 z"
               sodipodi:nodetypes="zzzzzzzzzzz" />
            <path
               id="path20-2"
               style="fill:#ffffff;fill-opacity:1;stroke-width:0.529;stroke-linecap:square;stroke-miterlimit:1.5;paint-order:fill markers stroke"
               inkscape:label="teeth bottom"
               d="m 35.927535,31.108137 c 0.01497,-0.0051 0.07541,-0.07042 0.08998,-0.06849 0.01456,0.0019 0.07091,0.07815 0.08589,0.08942 0.01498,0.01127 0.261626,-0.0022 0.265008,0.03825 0.0034,0.04043 -0.210804,0.03659 -0.365719,0.02354 -0.154916,-0.013 -0.410586,-0.06843 -0.392571,-0.101682 0.01802,-0.03324 0.302446,0.02409 0.317412,0.0189 z"
               sodipodi:nodetypes="zzzzzzzz" />
          </g>
        </g>
        <g
           id="g12896-1-7"
           inkscape:label="hair"
           style="display:none">
          <path
             id="path12890-0-3"
             style="display:inline;fill:#aeaea3;stroke-width:1.05833;stroke-linecap:square;stroke-linejoin:round;stroke-miterlimit:1.5;paint-order:stroke fill markers"
             d="m 41.154782,29.633549 c 1.481382,0.454222 0.902047,0.168139 1.612342,1.15652 0.710295,0.988381 2.12302,3.386983 1.891888,4.646293 -0.231132,1.25931 -1.558485,1.730556 -1.844591,1.328477 -0.286107,-0.402078 -1.084461,-0.861905 -1.343116,-1.990045 -0.258655,-1.12814 -0.371372,-2.926425 -0.710914,-3.169284 -0.339544,-0.242859 -6.863624,-0.331122 -7.908612,0.470412 -1.044988,0.801534 -0.656869,1.727927 -0.620771,2.492926 0.0361,0.764999 0.08975,2.408855 0.23469,3.794657 0.144944,1.385802 0.501938,1.015726 0.649413,2.457522 0.147475,1.441796 -0.881639,1.888115 -1.098227,2.224947 -0.216587,0.336832 -0.805811,-1.715019 -0.887079,-3.925321 -0.08127,-2.210302 0.307575,-7.681547 2.641713,-9.478051 2.334138,-1.796504 5.901833,-0.463275 7.383215,-0.0091 z"
             sodipodi:nodetypes="zzzzzzzzzzzzzzz"
             inkscape:label="hair under" />
          <path
             id="path12892-6-6"
             style="fill:url(#linearGradient38);fill-opacity:1;stroke-width:1.05833;stroke-linecap:square;stroke-linejoin:round;stroke-miterlimit:1.5;paint-order:stroke fill markers"
             d="m 36.87727,26.82137 c 4.094962,-0.450038 7.356391,2.761728 7.707842,4.690388 0.351451,1.928661 0.101719,3.629307 -0.03131,4.520546 -0.133029,0.891239 -1.867465,0.837608 -1.796244,1.736682 0.07122,0.899074 1.677577,0.385145 1.75449,1.252421 0.07691,0.867276 -1.467132,0.60618 -1.457881,1.435067 0.0093,0.828887 1.471784,0.542716 1.761405,1.011597 0.289621,0.468881 0.09756,0.998256 -0.01063,1.05744 -0.10819,0.05918 -0.576057,-0.521635 -0.702464,-0.494293 -0.126407,0.02734 -0.366264,0.630378 -0.521835,0.601356 -0.155572,-0.02902 -0.471921,-0.566397 -0.235196,-1.127498 0.236725,-0.561101 1.336762,-0.365692 1.251608,-1.201759 -0.08515,-0.836067 -1.688081,-0.310434 -1.745008,-1.165666 -0.05693,-0.855232 1.626143,-0.687264 1.468691,-1.47401 -0.157452,-0.786746 -1.31307,-0.234887 -1.779338,-1.253216 -0.466268,-1.018329 -0.182704,-0.840593 -0.58087,-2.556392 -0.398167,-1.7158 -0.450374,-4.088906 -0.585233,-4.020994 -0.134861,0.06791 -0.311824,1.149257 -0.501532,1.231806 -0.189712,0.08255 -1.805717,-0.141116 -2.022554,-0.287685 -0.216837,-0.146563 -0.18835,-1.244548 -0.393295,-1.211888 -0.204945,0.03266 0.0856,1.124522 -0.07171,1.280866 -0.157315,0.156344 -1.801587,0.130781 -2.022117,0.06448 -0.22053,-0.0663 0.193416,-1.26556 -0.02284,-1.223316 -0.216248,0.04224 -0.294186,1.008025 -0.384045,1.222109 -0.08986,0.214084 -2.811102,0.0802 -3.559132,0.989233 -0.74803,0.909036 -0.505415,2.272141 -0.506891,3.511914 -0.0015,1.239773 -0.06523,1.733827 -0.136841,2.937944 -0.07161,1.204117 0.675001,4.401421 0.337475,4.656476 -0.337526,0.255055 -0.554049,0.06093 -1.478561,-0.09239 -0.924512,-0.153319 -1.060694,-1.353592 -1.086634,-2.313666 -0.02594,-0.960073 0.392448,-1.050969 0.454051,-2.176514 0.0616,-1.125546 -0.0015,-1.862622 -0.01839,-2.711666 -0.0169,-0.849044 -0.138112,-0.913869 0.128569,-3.593953 0.266681,-2.680084 2.69149,-4.845382 6.786452,-5.29542 z"
             sodipodi:nodetypes="zzzzzzzzzzzzzzzzzzzzzzzzzzzzzzzzzzz"
             inkscape:label="hair" />
          <path
             id="path12894-3-1"
             style="fill:#333333;stroke-width:1.05833;stroke-linecap:square;stroke-linejoin:round;stroke-miterlimit:1.5;paint-order:stroke fill markers"
             d="m 43.123671,40.734532 c 0.244985,-0.208184 1.027083,-0.364212 1.46658,-0.08882 0.147129,0.09219 -0.324782,0.230352 -0.323809,0.403976 0.0011,0.19719 0.685712,0.245635 0.529465,0.365935 -0.353008,0.271797 -1.057311,0.40371 -1.489506,0.16616 -0.147106,-0.08085 0.306832,-0.292008 0.259539,-0.453069 -0.05143,-0.175164 -0.583292,-0.274344 -0.442269,-0.394182 z"
             sodipodi:nodetypes="sssssss"
             inkscape:label="hair tie" />
        </g>
        <g
           id="g12896-1-7-1"
           inkscape:label="hair"
           transform="matrix(0.99942858,-0.02294283,0.02294283,0.99942858,-1.3181625,0.70741943)"
           style="display:inline">
          <path
             id="path12890-0-3-8"
             style="fill:#aeaea3;stroke-width:1.05833;stroke-linecap:square;stroke-linejoin:round;stroke-miterlimit:1.5;paint-order:stroke fill markers"
             d="m 41.561004,29.633465 c 1.481382,0.454222 0.495825,0.168223 1.20612,1.156604 0.710295,0.988381 1.917426,3.622153 1.686294,4.881463 -0.231132,1.25931 -0.842353,2.112726 -1.324767,1.532403 -0.482414,-0.580323 -0.919483,-1.130621 -0.935437,-2.233339 -0.01595,-1.102718 -0.06428,-2.911293 -0.403826,-3.154152 -0.339544,-0.242859 -6.494362,-0.541101 -7.53935,0.260433 -1.044988,0.801534 -0.827357,2.107838 -0.787035,3.19868 0.04032,1.090843 -0.05853,2.088024 0.0781,2.809632 0.136625,0.721607 0.860883,1.122677 0.908727,2.515606 0.04784,1.39293 -0.946705,2.283574 -1.242286,2.436857 -0.295581,0.153283 -1.886488,-1.356001 -1.756324,-4.72951 0.130164,-3.373509 -0.01384,-6.869036 2.320298,-8.66554 2.334138,-1.796504 6.308055,-0.463359 7.789437,-0.0092 z"
             sodipodi:nodetypes="zzzzzzzzzzzzzzz"
             inkscape:label="hair under" />
          <path
             id="path12892-6-6-7"
             style="fill:url(#linearGradient8);fill-opacity:1;stroke-width:1.05833;stroke-linecap:square;stroke-linejoin:round;stroke-miterlimit:1.5;paint-order:stroke fill markers"
             d="m 44.659266,36.813852 c 0.0047,1.125131 -1.833402,0.561386 -1.762181,1.46046 0.07122,0.899074 1.515819,0.213816 1.592732,1.081092 0.07691,0.867276 -1.298792,0.514557 -1.289541,1.343444 0.0093,0.828887 0.800828,0.621045 1.090449,1.089926 0.289621,0.468881 0.248472,0.966 0.167472,0.967059 -0.081,0.0011 -0.392019,-0.472794 -0.518426,-0.445452 -0.126407,0.02734 -0.485561,0.462484 -0.553796,0.466534 -0.06824,0.004 -0.160921,-0.4344 0.07581,-0.995501 0.236725,-0.561101 1.174143,-0.342886 1.088989,-1.178953 -0.08515,-0.836067 -1.547524,-0.263136 -1.604451,-1.118368 -0.05693,-0.855232 1.5549,-0.540825 1.397448,-1.327571 -0.157452,-0.786746 -0.841192,-0.0144 -1.449036,-1.183139 -0.607844,-1.168743 -0.246827,-1.195658 -0.287449,-2.765867 -0.04062,-1.570209 -0.690905,-4.442473 -0.825764,-4.374561 -0.134861,0.06791 0.185157,1.643365 -0.0046,1.725914 -0.189712,0.08255 -2.266233,-0.34817 -2.48307,-0.494739 -0.216837,-0.146563 -0.224815,-1.531602 -0.42976,-1.498942 -0.204945,0.03266 0.122065,1.411576 -0.03525,1.56792 -0.157315,0.156344 -1.801587,0.130781 -2.022117,0.06448 -0.22053,-0.0663 0.156951,-1.552614 -0.0593,-1.51037 -0.216248,0.04224 -0.257721,1.295079 -0.34758,1.509163 -0.08986,0.214084 -1.495698,-0.222746 -2.479925,0.787826 -0.984227,1.010572 -0.831434,3.204054 -0.7929,4.223908 0.03854,1.019855 0.363585,3.11595 0.473223,4.449497 0.109639,1.333547 -0.05517,2.124985 -0.392692,2.38004 -0.337526,0.255055 -0.740332,-0.286236 -1.426428,-0.723399 -0.686096,-0.437163 -1.203571,-1.637721 -1.278732,-2.468381 -0.07516,-0.830659 0.236985,-1.775796 0.304445,-2.534233 0.06746,-0.758437 0.06654,-1.599446 0.0018,-2.699252 -0.06477,-1.099806 -0.353157,-1.380748 0.129754,-3.159307 0.482911,-1.778559 2.442248,-4.217817 6.538653,-4.553811 4.096405,-0.335995 7.054001,2.96845 7.440273,5.12542 0.386272,2.15697 -0.26274,3.664032 -0.25805,4.789163 z"
             sodipodi:nodetypes="zzzzzzzzzzzzzzzzzzzzzzzzzzzzzzzzzz"
             inkscape:label="hair" />
          <path
             id="path12894-3-1-9"
             style="fill:#333333;stroke-width:1.05833;stroke-linecap:square;stroke-linejoin:round;stroke-miterlimit:1.5;paint-order:stroke fill markers"
             d="m 44.447919,41.08467 c -0.06159,0.115801 -0.296531,0.181277 -0.295495,0.366684 10e-4,0.185407 0.222775,0.341272 0.209773,0.419074 -0.013,0.0778 -0.994724,0.194694 -0.964788,0.01013 0.02994,-0.1846 0.210603,-0.174858 0.161242,-0.342971 -0.04936,-0.168112 -0.295992,-0.352037 -0.34279,-0.48761 -0.0468,-0.135572 1.293645,-0.08111 1.232058,0.03469 z"
             sodipodi:nodetypes="zzzzzzzz"
             inkscape:label="hair tie" />
        </g>
      </g>
      <g
         id="g1"
         inkscape:label="hairclip">
        <path
           id="rect9"
           style="fill:none;stroke:#515f13;stroke-width:0.484319;stroke-linecap:round;stroke-linejoin:round;paint-order:fill markers stroke"
           d="m 53.605265,20.385845 c 0,0 1.770173,-0.507923 2.36036,-0.309181 0.590187,0.198741 0.942476,0.815356 0.618236,1.448921 -0.324239,0.633564 -2.97278,1.495302 -2.97278,1.495302 z"
           sodipodi:nodetypes="czzcc" />
        <path
           id="path1"
           style="fill:#c8de5a;fill-opacity:1;stroke-width:0.16144;stroke-linecap:round;stroke-linejoin:round;paint-order:fill markers stroke"
           d="m 55.193934,15.322921 c -0.338366,-0.02335 -2.723173,1.518331 -2.905238,1.628806 -0.182064,0.110476 -0.158282,-0.150818 -0.668989,-0.09639 -0.510706,0.05442 -0.853756,0.76909 -0.875721,0.775219 -0.02197,0.0061 -0.03512,-0.07743 -0.337384,-0.07748 -0.302267,-5.2e-5 -0.885081,0.459119 -0.885125,1.025664 9.2e-4,0.41869 0.379629,0.85073 0.458177,0.97593 0.07855,0.125199 -0.118057,0.813114 -0.0307,1.228098 0.548953,2.6079 3.814384,1.855442 4.005809,3.371132 0.191426,1.515692 -1.537618,0.396938 -1.728808,0.493688 -0.191188,0.09675 -0.325943,1.75733 -0.210809,1.79007 0.115133,0.03274 1.349287,0.512826 2.528349,0.337834 1.179062,-0.174994 1.864543,-1.836392 1.595027,-3.258521 -0.269517,-1.422131 -1.815321,-2.160501 -2.056733,-3.076541 -0.241411,-0.91604 2.278523,-1.608212 2.418891,-2.022499 0.140368,-0.414287 -0.641114,-3.049079 -1.306742,-3.095009 z"
           sodipodi:nodetypes="szzzzczsssssssss" />
        <path
           id="path10"
           style="fill:#70821a;fill-opacity:1;stroke-width:0.16144;stroke-linecap:round;stroke-linejoin:round;stroke-dasharray:none;paint-order:fill markers stroke"
           d="m 55.193934,15.322921 c -0.338366,-0.02335 -1.613977,0.659657 -2.926848,1.73298 -0.142328,-0.105358 -0.283185,-0.197836 -0.599771,-0.138009 -0.316585,0.05983 -0.632798,0.351059 -0.758206,0.758493 -0.107007,-0.05115 -0.221633,-0.07747 -0.337384,-0.07748 -0.488784,-1.01e-4 -0.859914,0.492676 -0.859958,1.059221 9.2e-4,0.41869 0.305182,0.660479 0.640644,0.815761 -0.159314,0.416646 -0.216631,0.839055 -0.129278,1.254039 0.548953,2.6079 3.814384,1.855442 4.005809,3.371132 0.191426,1.515692 -1.613068,0.522671 -1.804259,0.61942 -0.191188,0.09675 -0.418277,1.413477 -0.303143,1.446217 0.115133,0.03274 1.242889,0.785784 2.421951,0.610792 1.179062,-0.174994 1.864543,-1.836392 1.595027,-3.258521 -0.269517,-1.422131 -1.815321,-2.160501 -2.056733,-3.076541 -0.241411,-0.91604 2.278523,-1.608212 2.418891,-2.022499 0.140368,-0.414287 -0.641114,-3.049079 -1.306742,-3.095009 z"
           sodipodi:nodetypes="sczccccssssssssss" />
        <path
           id="rect1"
           style="fill:#eaebe5;stroke-width:0.16144;stroke-linecap:round;stroke-linejoin:round;paint-order:fill markers stroke"
           d="m 50.539269,20.649962 c -0.548953,-2.607903 4.14246,-5.217525 4.808089,-5.171598 0.665629,0.04593 1.293847,2.525301 1.153479,2.939588 -0.140368,0.414288 -2.660254,1.106215 -2.418843,2.022256 0.241412,0.916041 1.786815,1.654486 2.056332,3.076618 0.269517,1.422131 -0.415791,3.083776 -1.594854,3.25877 -1.179063,0.174993 -2.19183,-0.511934 -2.306963,-0.544674 -0.115134,-0.03274 0.07302,-1.305953 0.26421,-1.402707 0.191191,-0.09675 2.088535,0.797126 1.897109,-0.718567 -0.191425,-1.515692 -3.309605,-0.851784 -3.858559,-3.459686 z"
           sodipodi:nodetypes="zzzzzzzzzz" />
        <ellipse
           style="fill:#f0f1ed;fill-opacity:1;stroke-width:0.16144;stroke-linecap:round;stroke-linejoin:round;paint-order:fill markers stroke"
           id="ellipse5"
           cx="51.851837"
           cy="18.044256"
           rx="0.88496602"
           ry="1.025756" />
        <ellipse
           style="fill:#6b7056;fill-opacity:1;stroke-width:0.235592;stroke-linecap:round;stroke-linejoin:round;paint-order:fill markers stroke"
           id="ellipse7"
           cx="52.071625"
           cy="17.568232"
           rx="0.3189804"
           ry="0.44674665" />
        <ellipse
           style="fill:#f0f1ed;fill-opacity:1;stroke-width:0.16144;stroke-linecap:round;stroke-linejoin:round;paint-order:fill markers stroke"
           id="path4"
           cx="50.683289"
           cy="18.648035"
           rx="0.88496602"
           ry="1.025756" />
        <ellipse
           style="fill:#6b7056;fill-opacity:1;stroke-width:0.235592;stroke-linecap:round;stroke-linejoin:round;paint-order:fill markers stroke"
           id="path5"
           cx="50.903076"
           cy="18.17201"
           rx="0.3189804"
           ry="0.44674665" />
        <g
           id="g13"
           inkscape:label="dots"
           clip-path="url(#clipPath13)">
          <ellipse
             style="fill:#d4d6ca;fill-opacity:1;stroke:none;stroke-width:0.16144;stroke-linecap:round;stroke-linejoin:round;stroke-dasharray:none;stroke-opacity:1;paint-order:fill markers stroke"
             id="path13"
             cx="49.310982"
             cy="30.167341"
             rx="0.55382013"
             ry="0.60366392"
             transform="rotate(-8.4320723)" />
          <ellipse
             style="fill:#d4d6ca;fill-opacity:1;stroke:none;stroke-width:0.135522;stroke-linecap:round;stroke-linejoin:round;stroke-dasharray:none;stroke-opacity:1;paint-order:fill markers stroke"
             id="ellipse13"
             cx="57.438816"
             cy="15.259453"
             rx="0.47135487"
             ry="0.49982435"
             transform="matrix(0.98858091,0.15069104,-0.15944303,0.98720713,0,0)" />
          <ellipse
             style="fill:#d4d6ca;fill-opacity:1;stroke:none;stroke-width:0.183866;stroke-linecap:round;stroke-linejoin:round;stroke-dasharray:none;stroke-opacity:1;paint-order:fill markers stroke"
             id="ellipse14"
             cx="57.854603"
             cy="17.766396"
             rx="0.63949788"
             ry="0.67812306"
             transform="matrix(0.98858091,0.15069104,-0.15944303,0.98720713,0,0)" />
          <ellipse
             style="fill:#d4d6ca;fill-opacity:1;stroke:none;stroke-width:0.0583768;stroke-linecap:round;stroke-linejoin:round;stroke-dasharray:none;stroke-opacity:1;paint-order:fill markers stroke"
             id="ellipse15"
             cx="57.983788"
             cy="16.336693"
             rx="0.20303826"
             ry="0.21530162"
             transform="matrix(0.98858091,0.15069104,-0.15944303,0.98720713,0,0)" />
          <ellipse
             style="fill:#d4d6ca;fill-opacity:1;stroke:none;stroke-width:0.138768;stroke-linecap:round;stroke-linejoin:round;stroke-dasharray:none;stroke-opacity:1;paint-order:fill markers stroke"
             id="ellipse16"
             cx="59.131168"
             cy="16.887392"
             rx="0.48264521"
             ry="0.51179659"
             transform="matrix(0.98858091,0.15069104,-0.15944303,0.98720713,0,0)" />
          <ellipse
             style="fill:#d4d6ca;fill-opacity:1;stroke:none;stroke-width:0.0955644;stroke-linecap:round;stroke-linejoin:round;stroke-dasharray:none;stroke-opacity:1;paint-order:fill markers stroke"
             id="ellipse17"
             cx="56.147144"
             cy="16.790255"
             rx="0.33237901"
             ry="0.35245445"
             transform="matrix(0.98858091,0.15069104,-0.15944303,0.98720713,0,0)" />
          <ellipse
             style="fill:#d4d6ca;fill-opacity:1;stroke:none;stroke-width:0.188514;stroke-linecap:round;stroke-linejoin:round;stroke-dasharray:none;stroke-opacity:1;paint-order:fill markers stroke"
             id="ellipse18"
             cx="58.705383"
             cy="14.446033"
             rx="0.65566546"
             ry="0.69526714"
             transform="matrix(0.98858091,0.15069104,-0.15944303,0.98720713,0,0)" />
          <ellipse
             style="fill:#d4d6ca;fill-opacity:1;stroke:none;stroke-width:0.0583768;stroke-linecap:round;stroke-linejoin:round;stroke-dasharray:none;stroke-opacity:1;paint-order:fill markers stroke"
             id="ellipse19"
             cx="57.173107"
             cy="13.626752"
             rx="0.20303826"
             ry="0.21530162"
             transform="matrix(0.98858091,0.15069104,-0.15944303,0.98720713,0,0)" />
          <ellipse
             style="fill:#d4d6ca;fill-opacity:1;stroke:none;stroke-width:0.0456318;stroke-linecap:round;stroke-linejoin:round;stroke-dasharray:none;stroke-opacity:1;paint-order:fill markers stroke"
             id="ellipse20"
             cx="54.996952"
             cy="13.62536"
             rx="0.15871033"
             ry="0.16829632"
             transform="matrix(0.98858091,0.15069104,-0.15944303,0.98720713,0,0)" />
          <ellipse
             style="fill:#d4d6ca;fill-opacity:1;stroke:none;stroke-width:0.127614;stroke-linecap:round;stroke-linejoin:round;stroke-dasharray:none;stroke-opacity:1;paint-order:fill markers stroke"
             id="ellipse21"
             cx="48.044067"
             cy="30.038036"
             rx="0.43777975"
             ry="0.47717991"
             transform="rotate(-8.4320723)" />
        </g>
      </g>
    </g>
  </g>
  <metadata
     id="metadata1">
    <rdf:RDF>
      <cc:License
         rdf:about="http://creativecommons.org/licenses/by-nc/4.0/">
        <cc:permits
           rdf:resource="http://creativecommons.org/ns#Reproduction" />
        <cc:permits
           rdf:resource="http://creativecommons.org/ns#Distribution" />
        <cc:requires
           rdf:resource="http://creativecommons.org/ns#Notice" />
        <cc:requires
           rdf:resource="http://creativecommons.org/ns#Attribution" />
        <cc:prohibits
           rdf:resource="http://creativecommons.org/ns#CommercialUse" />
        <cc:permits
           rdf:resource="http://creativecommons.org/ns#DerivativeWorks" />
      </cc:License>
      <cc:Work
         rdf:about="">
        <cc:license
           rdf:resource="http://creativecommons.org/licenses/by-nc/4.0/" />
      </cc:Work>
    </rdf:RDF>
  </metadata>
</svg>
