<?xml version="1.0" encoding="UTF-8" standalone="no"?>
<!-- Created with Inkscape (http://www.inkscape.org/) -->

<svg
   width="256"
   height="256"
   viewBox="0 0 67.733332 67.733333"
   version="1.1"
   id="svg1"
   inkscape:version="1.3.2 (091e20ef0f, 2023-11-25, custom)"
   sodipodi:docname="splat.svg"
   inkscape:export-filename="chew.png"
   inkscape:export-xdpi="126"
   inkscape:export-ydpi="126"
   xml:space="preserve"
   xmlns:inkscape="http://www.inkscape.org/namespaces/inkscape"
   xmlns:sodipodi="http://sodipodi.sourceforge.net/DTD/sodipodi-0.dtd"
   xmlns:xlink="http://www.w3.org/1999/xlink"
   xmlns="http://www.w3.org/2000/svg"
   xmlns:svg="http://www.w3.org/2000/svg"
   xmlns:rdf="http://www.w3.org/1999/02/22-rdf-syntax-ns#"
   xmlns:cc="http://creativecommons.org/ns#"><sodipodi:namedview
     id="namedview1"
     pagecolor="#ffffff"
     bordercolor="#666666"
     borderopacity="1.0"
     inkscape:showpageshadow="2"
     inkscape:pageopacity="0.0"
     inkscape:pagecheckerboard="0"
     inkscape:deskcolor="#d1d1d1"
     inkscape:document-units="px"
     inkscape:zoom="3.9734199"
     inkscape:cx="153.0168"
     inkscape:cy="153.39431"
     inkscape:window-width="1920"
     inkscape:window-height="1004"
     inkscape:window-x="0"
     inkscape:window-y="0"
     inkscape:window-maximized="1"
     inkscape:current-layer="g14"
     showgrid="false" /><defs
     id="defs1"><linearGradient
       id="linearGradient13"
       inkscape:collect="always"><stop
         style="stop-color:#2aaacb;stop-opacity:1;"
         offset="0"
         id="stop13" /><stop
         style="stop-color:#2698b6;stop-opacity:1;"
         offset="1"
         id="stop14" /></linearGradient><linearGradient
       id="linearGradient23"
       inkscape:collect="always"><stop
         style="stop-color:#e2cc35;stop-opacity:1;"
         offset="0"
         id="stop24" /><stop
         style="stop-color:#faf978;stop-opacity:1;"
         offset="1"
         id="stop25" /></linearGradient><linearGradient
       id="linearGradient16"
       inkscape:collect="always"><stop
         style="stop-color:#60dff9;stop-opacity:1;"
         offset="0"
         id="stop16" /><stop
         style="stop-color:#41a8cb;stop-opacity:1;"
         offset="1"
         id="stop17" /></linearGradient><linearGradient
       id="linearGradient10"
       inkscape:collect="always"><stop
         style="stop-color:#65e2f9;stop-opacity:1;"
         offset="0"
         id="stop10" /><stop
         style="stop-color:#3798b6;stop-opacity:1;"
         offset="1"
         id="stop11" /></linearGradient><linearGradient
       id="linearGradient5"
       inkscape:collect="always"><stop
         style="stop-color:#52c4e6;stop-opacity:1;"
         offset="0"
         id="stop5" /><stop
         style="stop-color:#40bfe3;stop-opacity:1;"
         offset="1"
         id="stop6" /></linearGradient><linearGradient
       id="linearGradient1"
       inkscape:collect="always"><stop
         style="stop-color:#46b9de;stop-opacity:1;"
         offset="0"
         id="stop1" /><stop
         style="stop-color:#3a9ab7;stop-opacity:1;"
         offset="1"
         id="stop2" /></linearGradient><linearGradient
       id="linearGradient27"
       inkscape:collect="always"><stop
         style="stop-color:#ebebeb;stop-opacity:1;"
         offset="0"
         id="stop27" /><stop
         style="stop-color:#cfcfcf;stop-opacity:1;"
         offset="1"
         id="stop28" /></linearGradient><clipPath
       clipPathUnits="userSpaceOnUse"
       id="clipPath32"><path
         id="path33"
         style="fill:#1b1b1b;fill-opacity:1;stroke-width:0.459095;stroke-linecap:round;stroke-linejoin:round"
         d="m 36.254528,49.895009 c 0.194049,-0.407057 0.831634,-0.76845 1.617945,-0.756275 0.786312,0.01218 1.145884,0.248213 1.54722,0.659509 0.401335,0.411295 1.694763,2.068258 1.701543,2.532842 0.0068,0.464583 -0.233366,1.980943 -0.77229,2.387161 -0.538924,0.406218 -1.654144,0.585893 -2.241353,0.46973 -0.587208,-0.116162 0.248768,-2.048996 0.227909,-2.613036 -0.02086,-0.564039 0.01961,-0.853913 -0.141719,-1.230923 -0.161331,-0.377011 -0.343443,-0.370861 -0.70368,-0.516997 -0.360238,-0.146136 -1.447197,0.296143 -1.519025,0.221404 -0.07183,-0.07474 0.0894,-0.746358 0.28345,-1.153415 z"
         sodipodi:nodetypes="zzzzzzzzzzz" /></clipPath><clipPath
       clipPathUnits="userSpaceOnUse"
       id="clipPath7"><path
         id="path9"
         style="fill:url(#linearGradient9);stroke-width:0.79375;stroke-linecap:round;stroke-linejoin:round"
         d="m 42.174811,29.42627 c 1.132704,0.327101 3.574617,1.926841 3.779188,2.162836 0.204568,0.235997 1.714117,3.620284 1.784916,4.157746 0.0708,0.537462 -2.772065,-0.821477 -2.683782,0.593806 0.08828,1.415285 0.368671,11.533909 0.199537,12.056124 -0.169134,0.522212 -0.120282,0.879964 -0.964512,0.936149 -0.844232,0.05619 -10.952338,-0.179422 -11.051208,-0.990595 -0.09887,-0.811174 0.404046,-11.62455 0.295555,-11.779216 -0.108488,-0.154665 -2.470796,-0.407158 -2.674076,-0.761888 -0.203279,-0.354728 2.491377,-4.467113 2.867903,-4.830245 0.376523,-0.363132 2.257121,-1.249632 3.315941,-1.417851 1.058823,-0.168219 1.237622,0.388973 2.151918,0.309708 0.914296,-0.07927 1.845916,-0.763675 2.97862,-0.436574 z"
         sodipodi:nodetypes="zzzzzzzzzzzzz" /></clipPath><linearGradient
       inkscape:collect="always"
       xlink:href="#linearGradient27"
       id="linearGradient9"
       gradientUnits="userSpaceOnUse"
       x1="33.179368"
       y1="39.343706"
       x2="46.192532"
       y2="42.905514" /><linearGradient
       inkscape:collect="always"
       xlink:href="#linearGradient7"
       id="linearGradient8"
       x1="39.471596"
       y1="39.674927"
       x2="39.545738"
       y2="44.718845"
       gradientUnits="userSpaceOnUse" /><linearGradient
       id="linearGradient7"
       inkscape:collect="always"><stop
         style="stop-color:#0eecd0;stop-opacity:1;"
         offset="0"
         id="stop7" /><stop
         style="stop-color:#0dc5ac;stop-opacity:1;"
         offset="1"
         id="stop8" /></linearGradient><linearGradient
       inkscape:collect="always"
       xlink:href="#linearGradient1"
       id="linearGradient2"
       x1="52.061886"
       y1="10.749014"
       x2="36.532898"
       y2="17.583544"
       gradientUnits="userSpaceOnUse" /><linearGradient
       inkscape:collect="always"
       xlink:href="#linearGradient5"
       id="linearGradient6"
       x1="30.634918"
       y1="8.9602547"
       x2="35.261169"
       y2="11.491646"
       gradientUnits="userSpaceOnUse" /><linearGradient
       inkscape:collect="always"
       xlink:href="#linearGradient10"
       id="linearGradient12"
       x1="38.928997"
       y1="0.46312377"
       x2="38.902924"
       y2="8.2082033"
       gradientUnits="userSpaceOnUse" /><linearGradient
       inkscape:collect="always"
       xlink:href="#linearGradient16"
       id="linearGradient17"
       x1="44.887478"
       y1="1.4194198"
       x2="44.581795"
       y2="5.6471081"
       gradientUnits="userSpaceOnUse" /><linearGradient
       inkscape:collect="always"
       xlink:href="#linearGradient23"
       id="linearGradient25"
       x1="30.082348"
       y1="4.7979922"
       x2="52.492924"
       y2="3.6291323"
       gradientUnits="userSpaceOnUse" /><linearGradient
       inkscape:collect="always"
       xlink:href="#linearGradient13"
       id="linearGradient14"
       x1="53.274754"
       y1="54.614216"
       x2="32.527668"
       y2="58.38327"
       gradientUnits="userSpaceOnUse" /><clipPath
       clipPathUnits="userSpaceOnUse"
       id="clipPath13"><path
         id="path14"
         style="display:inline;fill:#ffffff;stroke-width:6.81149;stroke-linecap:square;stroke-miterlimit:1.5;paint-order:fill markers stroke"
         inkscape:label="eye white left"
         d="m 39.592321,41.117324 c 0.716693,0.608364 1.602179,0.799489 2.736879,0.917567 1.134734,0.117507 2.357903,0.0168 3.296801,-0.422849 0.938863,-0.439071 1.473232,-1.354035 1.925897,-2.055027 0.45276,-0.700969 0.503166,-1.677752 0.02897,-2.608024 -0.474514,-0.930376 -1.457378,-1.624185 -2.790391,-1.962807 -1.333222,-0.33864 -3.551066,0.05807 -4.661911,0.722043 -1.110863,0.663977 -1.678442,1.39509 -1.680387,2.381954 -0.0024,0.986745 0.42786,2.418908 1.144553,3.027251 z"
         sodipodi:nodetypes="zzzzzzzzzz" /></clipPath><clipPath
       clipPathUnits="userSpaceOnUse"
       id="clipPath15"><path
         id="path15"
         style="display:inline;fill:#ffffff;stroke-width:6.69621;stroke-linecap:square;stroke-miterlimit:1.5;paint-order:fill markers stroke"
         inkscape:label="eye white right"
         d="m 22.875443,35.647706 c -0.725558,0.847164 -1.013986,1.363282 -1.103571,2.395522 -0.08955,1.032269 0.146572,2.153719 0.801505,2.799334 0.655072,0.645631 1.589047,1.0478 2.459024,1.155573 0.870075,0.107807 1.775843,0.229891 2.994697,0.01905 1.21879,-0.210066 2.988402,-1.959216 3.405894,-3.217757 0.417563,-1.258631 0.107341,-1.863315 -0.887439,-2.749978 -0.994873,-0.886654 -3.199556,-1.519354 -4.709083,-1.428563 -1.509534,0.09077 -2.235657,0.179737 -2.961186,1.026883 z"
         sodipodi:nodetypes="zzzzzzzzzz" /></clipPath></defs><g
     inkscape:label="Layer 1"
     inkscape:groupmode="layer"
     id="layer1"><g
       id="g6"
       inkscape:label="integrelle"><g
         id="g9"
         inkscape:label="body"
         transform="matrix(2.1149423,0,0,2.1149423,-48.309623,-7.6808498)"><path
           id="rect19720-1"
           style="display:inline;fill:#0cc3aa;fill-opacity:1;stroke-width:0.157476;stroke-linecap:round;stroke-linejoin:round;stroke-miterlimit:1.5;paint-order:fill markers stroke"
           d="m 33.3132,36.635763 c -0.02458,-0.761217 8.930357,-0.88573 9.070169,-0.462104 0.139809,0.423625 -1.048679,2.591662 -1.436652,2.700925 -0.387973,0.109263 -2.169527,-0.892003 -3.069431,-0.827512 -0.899903,0.0645 -2.882269,1.216509 -3.245708,1.159288 -0.36344,-0.05722 -1.293804,-1.809381 -1.318378,-2.570597 z"
           sodipodi:nodetypes="zzzzzz"
           transform="matrix(1.6723303,0.05971937,-0.05971937,1.6723303,-21.336051,-38.330626)" /><rect
           style="fill:#2394af;fill-opacity:1;stroke-width:0.0875713;stroke-linecap:round;stroke-linejoin:round;paint-order:fill markers stroke"
           id="rect39"
           width="4.827879"
           height="1.331019"
           x="37.088554"
           y="28.669523" /><rect
           style="fill:#fdbd94;fill-opacity:1;stroke-width:0.79375;stroke-linecap:round;stroke-linejoin:round"
           id="rect11"
           width="3.1159363"
           height="2.5602689"
           x="37.907837"
           y="28.124128" /><g
           id="g5"
           inkscape:label="tunic"><path
             id="path17"
             style="display:inline;fill:#2eb0d3;stroke-width:0.0875713;stroke-linecap:round;stroke-linejoin:round;paint-order:fill markers stroke"
             d="m 45.883315,31.333699 -1.551309,2.464395 0.66779,4.968359 4.407416,-1.762966 z"
             sodipodi:nodetypes="ccccc" /><path
             id="rect17"
             style="display:inline;fill:#2eb0d3;stroke-width:0.0875713;stroke-linecap:round;stroke-linejoin:round;paint-order:fill markers stroke"
             d="m 33.364389,30.977463 1.551309,2.464395 -0.66779,4.968359 -4.407416,-1.762966 z"
             sodipodi:nodetypes="ccccc" /><path
             id="rect2"
             style="display:inline;fill:url(#linearGradient14);stroke-width:0.16144;stroke-linecap:round;stroke-linejoin:round;paint-order:fill markers stroke"
             d="m 30.841235,48.645945 c 0.237922,-0.270351 4.702282,-2.355958 5.546516,-2.464744 0.844234,-0.108785 3.704605,1.554714 5.76811,1.569841 2.063504,0.01513 5.234605,-1.603856 6.148589,-1.501832 0.913983,0.102025 5.186903,2.754203 5.615684,3.053463 0.428782,0.299261 -0.546099,5.207839 -0.671294,8.872161 -0.125195,3.664321 0.09451,13.100896 0.09451,13.100896 L 30.489125,70.971432 c 0,0 0.76736,-8.845806 0.800246,-12.572531 0.03289,-3.726724 -0.686058,-9.482605 -0.448136,-9.752956 z"
             sodipodi:nodetypes="zzzzzzcczz"
             transform="matrix(0.54244037,0,0,0.54244037,16.634858,4.5899386)" /><path
             id="rect3"
             style="display:inline;fill:#3dbbd8;stroke-width:0.16144;stroke-linecap:round;stroke-linejoin:round;paint-order:fill markers stroke"
             d="m 37.685546,44.32184 c 0.11935,-0.0205 3.323706,1.514395 3.628997,1.801887 0.305292,0.287492 0.983294,1.608585 0.833709,1.895444 -0.149585,0.286858 -6.087769,-1.411252 -6.10323,-1.801887 -0.01546,-0.390636 1.521174,-1.874948 1.640524,-1.895444 z"
             sodipodi:nodetypes="zzzzz"
             transform="matrix(0.54244037,0,0,0.54244037,16.634858,4.5899386)" /><path
             id="path4"
             style="display:inline;fill:#3dbbd8;stroke-width:0.16144;stroke-linecap:round;stroke-linejoin:round;paint-order:fill markers stroke"
             d="m 46.610958,44.32184 c -0.11935,-0.0205 -3.323706,1.514395 -3.628997,1.801887 -0.305292,0.287492 -0.983294,1.608585 -0.833709,1.895444 0.149585,0.286858 6.087769,-1.411252 6.10323,-1.801887 0.01546,-0.390636 -1.521174,-1.874948 -1.640524,-1.895444 z"
             sodipodi:nodetypes="zzzzz"
             transform="matrix(0.54244037,0,0,0.54244037,16.634858,4.5899386)" /><path
             id="rect18"
             style="fill:#ffed5f;stroke-width:0.0875713;stroke-linecap:round;stroke-linejoin:round;paint-order:fill markers stroke"
             d="m 34.298683,30.430621 c 0.0916,-0.165009 0.404096,-0.287466 0.586895,-0.271728 0.182799,0.01574 0.502197,3.861337 0.579411,6.099086 0.07721,2.237749 -0.188032,7.305519 -0.188032,7.305519 h -0.658402 c 0,0 0.292751,-5.066006 0.225296,-7.258571 -0.06746,-2.192565 -0.636763,-5.709296 -0.545168,-5.874306 z"
             sodipodi:nodetypes="zzzcczz" /><path
             id="path27"
             style="fill:#ffed5f;stroke-width:0.0875713;stroke-linecap:round;stroke-linejoin:round;paint-order:fill markers stroke"
             d="m 44.822796,30.537826 c -0.0916,-0.165009 -0.404096,-0.287466 -0.586895,-0.271728 -0.182799,0.01574 -0.502197,3.861337 -0.579411,6.099086 -0.07721,2.237749 0.188032,7.305519 0.188032,7.305519 h 0.658402 c 0,0 -0.292751,-5.066006 -0.225296,-7.258571 0.06746,-2.192565 0.636763,-5.709296 0.545168,-5.874306 z"
             sodipodi:nodetypes="zzzcczz" /></g><path
           id="rect37"
           style="fill:#ffed5f;stroke-width:0.0875713;stroke-linecap:round;stroke-linejoin:round;paint-order:fill markers stroke"
           d="m 40.618484,33.333237 c 0.06966,-0.07433 2.488935,-0.08366 2.549268,0 0.06033,0.08366 0.08973,1.009138 0,1.129205 -0.08973,0.120067 -2.449423,0.180734 -2.549268,0 -0.09985,-0.180734 -0.06966,-1.054878 0,-1.129205 z"
           sodipodi:nodetypes="zzzzz" /><path
           id="rect38"
           style="fill:#f9534a;stroke-width:0.0875713;stroke-linecap:round;stroke-linejoin:round;paint-order:fill markers stroke"
           d="m 42.481007,33.271069 c 0.03841,-0.0038 0.731374,-0.04334 0.75003,0 0.01866,0.04335 0.031,1.23792 -0.01234,1.254108 -0.04335,0.01619 -0.728905,0.05075 -0.754968,0.03456 -0.02606,-0.01619 -0.02112,-1.284829 0.01728,-1.288672 z"
           sodipodi:nodetypes="zzzzz" /></g><g
         id="g7"
         inkscape:label="head"><path
           id="path12"
           style="display:inline;fill:#fdc8a5;fill-opacity:1;stroke-width:3.71224;stroke-linecap:square;stroke-linejoin:round;stroke-miterlimit:1.5;paint-order:stroke fill markers"
           d="m 53.003561,20.436098 c 1.297432,1.17486 2.74552,6.064301 2.615901,9.31797 -0.129646,3.253667 1.448892,7.116216 1.126768,9.618521 -0.322133,2.502304 -1.344222,2.332227 -2.648286,4.802856 -1.304065,2.470628 -4.170116,4.302558 -7.008176,5.719267 -2.838064,1.416708 -6.24764,2.787882 -9.180562,3.063184 -2.932918,0.275302 -6.326413,0.409153 -9.327855,-0.644389 -3.001438,-1.053537 -6.471358,-3.197899 -9.716986,-5.913116 -3.245632,-2.715217 -4.921367,-8.975296 -3.918048,-13.20262 1.003319,-4.227325 2.412564,-6.859417 2.217689,-10.115994 -0.194889,-3.256576 1.263755,-5.286217 5.380527,-5.653402 4.116771,-0.367185 11.196357,0.929603 16.022191,0.730882 4.825834,-0.198721 10.552856,0.126185 12.855123,1.171503 2.302269,1.045303 1.119016,0.653949 1.581715,1.105331 0,0 -1.297433,-1.174857 -1e-6,7e-6 z"
           inkscape:label="face"
           sodipodi:nodetypes="zzzzzzzzzzzzzsz" /><path
           id="path12850-2-2"
           style="fill:#fdc5a1;fill-opacity:1;stroke-width:3.71224;stroke-linecap:square;stroke-linejoin:round;stroke-miterlimit:1.5;paint-order:stroke fill markers"
           d="m 53.003561,20.436098 c 1.297432,1.17486 2.74552,6.064301 2.615901,9.31797 -0.129646,3.253667 1.448892,7.116216 1.126768,9.618521 -0.322133,2.502304 -1.344222,2.332227 -2.648286,4.802856 -1.304065,2.470628 -4.170116,4.302558 -7.008176,5.719267 -2.838064,1.416708 -6.24764,2.787882 -9.180562,3.063184 -2.932918,0.275302 -6.326413,0.409153 -9.327855,-0.644389 -3.001438,-1.053537 -6.471358,-3.197899 -9.716986,-5.913116 -3.245632,-2.715217 -4.921367,-8.975296 -3.918048,-13.20262 1.003319,-4.227325 2.412564,-6.859417 2.217689,-10.115994 -0.194889,-3.256576 1.263755,-5.286217 5.380527,-5.653402 4.116771,-0.367185 11.196357,0.929603 16.022191,0.730882 4.825834,-0.198721 10.552856,0.126185 12.855123,1.171503 2.302269,1.045303 1.119016,0.653949 1.581715,1.105331 0,0 -1.297433,-1.174857 -1e-6,7e-6 z"
           inkscape:label="face"
           sodipodi:nodetypes="zzzzzzzzzzzzzsz" /><path
           id="path12852-8-7"
           style="display:inline;fill:#fdac77;fill-opacity:1;stroke-width:4.67178;stroke-linecap:square;stroke-linejoin:round;stroke-miterlimit:1.5;paint-order:stroke fill markers"
           inkscape:label="ear right"
           inkscape:transform-center-x="0.57222739"
           inkscape:transform-center-y="-0.00040558725"
           d="M 3.5190029,37.339348 C 3.5217643,35.657025 13.285986,28.6463 15.197034,29.988121 17.108083,31.329942 16.32002,44.150967 15.298479,44.664546 14.276938,45.178126 3.5162269,39.021671 3.5190029,37.339348 Z"
           sodipodi:nodetypes="zzzz" /><path
           id="path12854-9-0"
           style="display:inline;fill:#fdac77;fill-opacity:1;stroke-width:4.67177;stroke-linecap:square;stroke-linejoin:round;stroke-miterlimit:1.5;paint-order:stroke fill markers"
           inkscape:label="ear left"
           inkscape:transform-center-x="-0.57222699"
           inkscape:transform-center-y="-0.00040558725"
           d="m 54.33264,32.709456 c -2.674517,1.788743 -2.75309,8.891621 -0.213056,10.539962 2.540172,1.648342 9.579169,-3.801868 9.535059,-4.983035 -0.04412,-1.181168 -6.647476,-7.34567 -9.321989,-5.556927 z"
           sodipodi:nodetypes="zzzz" /><g
           id="g8"
           inkscape:label="face feat"><path
             id="path12860-1-3"
             style="display:inline;fill:#fcaa73;stroke-width:5.94098;stroke-linecap:square;stroke-linejoin:round;stroke-miterlimit:1.5;paint-order:stroke fill markers"
             inkscape:label="nose"
             d="m 36.603705,42.438139 c -0.134661,0.325228 -3.16538,0.213252 -3.343501,-0.173824 -0.178254,-0.387144 1.513986,-2.893612 1.845442,-2.874091 0.331443,0.0195 1.63272,2.722809 1.498053,3.048022 z"
             sodipodi:nodetypes="zzzz" /><g
             id="g10"
             inkscape:label="eye"><path
               id="rect29546"
               style="display:inline;fill:#000000;fill-opacity:1;stroke-width:8.96128;stroke-linecap:square;stroke-miterlimit:1.5;paint-order:fill markers stroke"
               inkscape:label="eye patch"
               d="m 41.674875,34.205346 c -1.090511,0.227988 -1.654156,0.18137 -3.779314,1.227402 -2.125157,1.046033 -2.972834,1.052492 -5.341531,-0.07581 -2.368696,-1.128305 -6.781487,-2.530456 -9.040382,-1.613156 -2.258897,0.917338 -2.580089,3.061104 -2.767372,4.676066 -0.187236,1.615005 0.781249,3.373578 3.021183,4.094979 2.2399,0.721436 3.4749,0.787776 5.052037,0.184587 1.57717,-0.603186 2.27078,-1.694815 3.174653,-2.923782 0.903815,-1.229085 1.85444,-2.131732 3.167419,-2.138142 1.312985,-0.0057 2.236768,1.49274 2.780808,2.481795 0.544042,0.989016 1.517782,2.33239 2.700814,2.610211 1.183041,0.277937 3.957392,0.406326 4.898008,-0.10764 0.940598,-0.514732 2.131523,-1.079701 2.736419,-2.515153 0.604938,-1.435336 0.75934,-3.715328 -0.394433,-4.748215 -1.153776,-1.03283 -2.255163,-1.140224 -2.924709,-1.236556 -0.669609,-0.09557 -2.192939,-0.144884 -3.283547,0.0831 z"
               sodipodi:nodetypes="zzzzzzzzzzzzzzzzz" /><g
               id="eye-open"><path
                 id="path35304"
                 style="display:inline;fill:#ffffff;stroke-width:6.69623;stroke-linecap:square;stroke-miterlimit:1.5;paint-order:fill markers stroke"
                 inkscape:label="eye white right"
                 d="m 22.875444,35.647712 c -0.725559,0.847162 -1.013989,1.363279 -1.10357,2.395525 -0.08958,1.032265 0.146589,2.153713 0.8015,2.79933 0.655074,0.645629 1.58905,1.047794 2.459028,1.155578 0.870075,0.107792 1.77584,0.229895 2.994701,0.01886 1.218787,-0.210089 2.988404,-1.959221 3.405891,-3.217762 0.417542,-1.258631 0.107316,-1.863308 -0.887433,-2.749974 -0.99488,-0.886658 -3.199562,-1.519357 -4.709091,-1.428566 -1.509529,0.09079 -2.235654,0.179719 -2.96118,1.026885 z"
                 sodipodi:nodetypes="zzzzzzzzzz" /><path
                 id="path35306"
                 style="display:inline;fill:#ffffff;stroke-width:6.81148;stroke-linecap:square;stroke-miterlimit:1.5;paint-order:fill markers stroke"
                 inkscape:label="eye white left"
                 d="m 39.59232,41.117323 c 0.716694,0.608364 1.602181,0.799489 2.73688,0.917567 1.134734,0.117508 2.357902,0.01679 3.296801,-0.422848 0.938864,-0.439071 1.473231,-1.354035 1.925896,-2.055028 0.452761,-0.700967 0.503168,-1.67775 0.02897,-2.608023 -0.474514,-0.930375 -1.457378,-1.624185 -2.790391,-1.962807 -1.333223,-0.338639 -3.551066,0.05807 -4.661912,0.722044 -1.110863,0.663975 -1.678442,1.395088 -1.680385,2.381954 -0.0023,0.986744 0.427858,2.418906 1.144553,3.027251 z"
                 sodipodi:nodetypes="zzzzzzzzzz" /><g
                 id="g14"
                 inkscape:label="pupil"
                 clip-path="url(#clipPath15)"><g
                   id="eye-right"
                   inkscape:label="normal"
                   class="eye-normal"
                   style="display:inline"><path
                     id="path35360"
                     style="fill:#d99dd9;fill-opacity:1;stroke-width:6.52201;stroke-linecap:square;stroke-linejoin:round;stroke-miterlimit:1.5;paint-order:stroke fill markers"
                     d="m 30.351159,39.401563 c -0.416177,0.550589 -0.989591,1.004447 -1.616261,1.268474 -0.626671,0.264039 -1.338634,0.359969 -2.00787,0.26675 -0.669236,-0.09322 -1.329005,-0.38103 -1.861474,-0.806479 -0.532457,-0.425485 -0.963288,-1.019829 -1.216301,-1.663595 -0.25303,-0.643767 -0.33942,-1.385411 -0.245236,-2.07496 0.09418,-0.689549 0.375427,-1.379767 0.791569,-1.930327 0.416177,-0.550589 0.989591,-1.004447 1.616256,-1.268474 0.626664,-0.264039 1.338634,-0.359969 2.00787,-0.26675 0.669235,0.09322 1.329004,0.38103 1.861479,0.806479 0.532457,0.425485 0.963289,1.019829 1.216301,1.663595 0.25303,0.643767 0.339421,1.385405 0.245236,2.074954 -0.09419,0.689549 -0.375369,1.379774 -0.791569,1.930333 z"
                     sodipodi:nodetypes="zzzzzzzzzzzzz"
                     mask="none" /><path
                     id="path35466"
                     style="fill:#333333;fill-opacity:1;stroke-width:5.60607;stroke-linecap:square;stroke-linejoin:round;stroke-miterlimit:1.5;paint-order:stroke fill markers"
                     d="m 29.312015,38.630572 c -0.273467,0.350525 -0.64723,0.637008 -1.053528,0.800696 -0.406285,0.163683 -0.8659,0.218078 -1.296157,0.151168 -0.430251,-0.06691 -0.852556,-0.259243 -1.191484,-0.538923 -0.338913,-0.279619 -0.610792,-0.667121 -0.767553,-1.08455 -0.156784,-0.417435 -0.20535,-0.896234 -0.137975,-1.339595 0.06738,-0.443361 0.255161,-0.88521 0.528627,-1.235699 0.273467,-0.350526 0.647225,-0.637003 1.053522,-0.800691 0.406286,-0.163682 0.865895,-0.218077 1.296157,-0.151167 0.430251,0.06691 0.852556,0.259243 1.191486,0.538862 0.338912,0.279619 0.610786,0.667122 0.767547,1.08455 0.156784,0.417435 0.205349,0.89624 0.137975,1.339595 -0.06737,0.443362 -0.255162,0.885211 -0.528628,1.2357 z"
                     sodipodi:nodetypes="zzzzzzzzzzzzz"
                     mask="none" /></g><circle
                   style="display:none;fill:#ffffff;fill-opacity:1;stroke-width:0.382571"
                   id="path3"
                   cx="28.427229"
                   cy="37.869278"
                   r="1.2141519" /></g><g
                 id="g11"
                 inkscape:label="pupil"
                 clip-path="url(#clipPath13)"><g
                   id="eye-left"
                   inkscape:label="normal"
                   class="eye-normal"
                   style="display:inline"><path
                     id="path35475"
                     style="fill:#d99dd9;fill-opacity:1;stroke-width:6.34477;stroke-linecap:square;stroke-linejoin:round;stroke-miterlimit:1.5;paint-order:stroke fill markers"
                     d="m 45.762102,39.226931 c -0.40187,0.540346 -0.953373,0.987607 -1.558164,1.246914 -0.60479,0.259295 -1.289099,0.354263 -1.934748,0.263197 -0.645649,-0.09107 -1.279451,-0.373949 -1.792921,-0.791072 -0.513448,-0.417099 -0.927014,-1.001898 -1.170686,-1.633356 -0.243677,-0.631457 -0.326064,-1.361436 -0.23478,-2.037991 0.09128,-0.676555 0.362226,-1.356189 0.764062,-1.896535 0.40187,-0.540346 0.953368,-0.987607 1.558158,-1.246914 0.604791,-0.259295 1.289099,-0.354263 1.934749,-0.263197 0.645649,0.09107 1.279457,0.373949 1.792926,0.791072 0.513448,0.417099 0.927014,1.001904 1.170686,1.633356 0.243677,0.631452 0.326064,1.36143 0.23478,2.037985 -0.09128,0.676555 -0.362226,1.356195 -0.764062,1.896541 z"
                     mask="none"
                     sodipodi:nodetypes="zzzzzzzzzzzzz" /><path
                     id="path35477"
                     style="fill:#333333;fill-opacity:1;stroke-width:5.28431;stroke-linecap:square;stroke-linejoin:round;stroke-miterlimit:1.5;paint-order:stroke fill markers"
                     d="m 44.613106,38.432741 c -0.255871,0.333273 -0.604156,0.606881 -0.984086,0.762658 -0.379898,0.155801 -0.80794,0.208002 -1.210141,0.144608 -0.402241,-0.06334 -0.795265,-0.246596 -1.111935,-0.512209 -0.316691,-0.265613 -0.569523,-0.635044 -0.715795,-1.03177 -0.146256,-0.396725 -0.191073,-0.85337 -0.127865,-1.274866 0.06309,-0.421475 0.238473,-0.843063 0.494344,-1.176366 0.255871,-0.333273 0.604156,-0.606876 0.984086,-0.762652 0.379898,-0.155801 0.80794,-0.208002 1.210141,-0.144608 0.402241,0.06334 0.795265,0.246596 1.11194,0.512209 0.316691,0.265613 0.569517,0.635038 0.71579,1.03177 0.146256,0.396725 0.191073,0.85337 0.127865,1.274866 -0.06309,0.421475 -0.238473,0.843057 -0.494344,1.17636 z"
                     mask="none"
                     sodipodi:nodetypes="zzzzzzzzzzzzz" /></g><circle
                   style="display:none;fill:#ffffff;fill-opacity:1;stroke-width:0.382571"
                   id="ellipse6"
                   cx="43.567909"
                   cy="38.02644"
                   r="1.2141519" /></g></g><g
               id="eye-close"
               inkscape:label="close"
               style="display:none;stroke-width:1.04005"
               transform="matrix(-16.173815,-1.2938917,-1.1701738,18.999549,648.38144,-490.97027)"><path
                 id="rect7"
                 style="display:inline;fill:none;stroke:#ffffff;stroke-width:0.0568256;stroke-linecap:round;stroke-linejoin:round;stroke-dasharray:none"
                 d="m 36.515744,30.312424 c 0,0 -0.145508,-0.05428 -0.272119,-0.05582 -0.126628,-0.0015 -0.236197,0.05062 -0.236197,0.05062 0,0 0.108683,-0.04848 0.236197,-0.05062 0.127516,-0.0021 0.272119,0.05582 0.272119,0.05582 z"
                 sodipodi:nodetypes="czczc" /><path
                 id="path8"
                 style="display:inline;fill:none;stroke:#ffffff;stroke-width:0.0568256;stroke-linecap:round;stroke-linejoin:round;stroke-dasharray:none"
                 d="m 34.978431,30.209406 c 0,0 0.124128,-0.04738 0.283957,-0.01194 0.15983,0.03545 0.205511,0.08149 0.205511,0.08149 0,0 -0.04396,-0.04459 -0.205511,-0.08149 -0.161551,-0.03692 -0.283957,0.01194 -0.283957,0.01194 z"
                 sodipodi:nodetypes="czczc" /></g></g><g
             id="g12886-0-0"
             inkscape:label="lashes"
             transform="matrix(-16.203053,-1.855583,-1.8586751,16.59383,676.18185,-398.37767)"
             style="display:inline;stroke-width:1.04005"><path
               id="path12882-3-2"
               style="display:inline;fill:#26f2d7;fill-opacity:1;stroke-width:0.541549;stroke-linecap:square;stroke-miterlimit:1.5;paint-order:fill markers stroke"
               inkscape:label="right"
               d="m 35.978135,29.934283 c -0.06452,0.101248 -0.583888,-0.121985 -0.562592,-0.152307 0.02128,-0.03033 0.627117,0.05106 0.562592,0.152307 z"
               sodipodi:nodetypes="zzz" /><path
               id="path12884-6-3"
               style="display:inline;fill:#26f2d7;fill-opacity:1;stroke-width:0.550187;stroke-linecap:square;stroke-miterlimit:1.5;paint-order:fill markers stroke"
               inkscape:label="left"
               d="m 36.313553,29.955901 c 0.03603,0.09836 0.628376,0.0012 0.6199,-0.03745 -0.0085,-0.03863 -0.655928,-0.06091 -0.6199,0.03745 z"
               sodipodi:nodetypes="zzz" /></g><path
             id="mouth-close"
             style="display:inline;fill:#fcaa73;stroke:#fcaa73;stroke-width:0.852011;stroke-linecap:round;stroke-linejoin:round;stroke-miterlimit:1.5;stroke-dasharray:none;stroke-opacity:1;paint-order:fill markers stroke"
             d="m 39.712219,45.190456 -4.527997,1.654115 -4.221864,-1.646614 4.221864,1.646614 z"
             sodipodi:nodetypes="ccccc" /><ellipse
             style="display:none;fill:#2d1f15;fill-opacity:1;stroke-width:0.377326"
             id="path2"
             cx="35.123257"
             cy="46.138748"
             rx="1.0259701"
             ry="1.6113902" /><g
             id="g40"
             inkscape:label="chewing"
             style="display:none;stroke-width:1.04005"
             transform="matrix(3.9701064,0.34399284,-0.34874677,4.1629537,-106.57821,-119.73359)"><path
               id="path40"
               style="display:inline;fill:none;stroke:#fcaa73;stroke-width:0.233005;stroke-linecap:round;stroke-linejoin:round;stroke-miterlimit:1.5;stroke-dasharray:none;stroke-opacity:1;paint-order:fill markers stroke"
               d="m 40.017696,36.502205 c 0,0 -0.402238,0.295186 -0.715247,0.312749 -0.31301,0.01756 -0.477419,-0.247384 -0.79322,-0.257947 -0.315802,-0.01056 -0.45225,0.16667 -0.45225,0.16667"
               sodipodi:nodetypes="czzc" /><path
               id="path41"
               style="display:inline;fill:none;stroke:#fcaa73;stroke-width:0.233005;stroke-linecap:round;stroke-linejoin:round;stroke-miterlimit:1.5;stroke-dasharray:none;stroke-opacity:1;paint-order:fill markers stroke"
               d="m 37.806679,37.367673 c 0,0 0.309845,-0.271215 0.25755,-0.593066 -0.05229,-0.321851 -0.352202,-0.537178 -0.352202,-0.537178"
               sodipodi:nodetypes="czc" /></g><g
             id="mouth-open"
             inkscape:label="mouth"
             transform="matrix(-8.8229705,-0.90911192,-1.1673292,8.9294433,388.8737,-197.70987)"
             style="display:none;stroke-width:1.04005"><path
               id="path18-5"
               style="fill:#000000;fill-opacity:1;stroke-width:0.529;stroke-linecap:square;stroke-miterlimit:1.5;paint-order:fill markers stroke"
               inkscape:label="mouth"
               d="m 35.494282,30.707839 c 0.02115,-0.01016 0.260526,0.01601 0.578314,0.0444 0.317787,0.02837 0.4798,0.03701 0.501075,0.05529 0.02127,0.01828 -0.06357,0.168438 -0.08406,0.214841 -0.02045,0.0464 -0.09636,0.138936 -0.121201,0.144949 -0.02489,0.006 -0.241597,0.03438 -0.368296,0.02288 -0.126699,-0.0116 -0.377847,-0.07534 -0.398537,-0.09476 -0.02069,-0.01941 -0.06713,-0.112673 -0.08242,-0.164341 -0.0153,-0.05167 -0.04602,-0.213019 -0.0249,-0.22318 z"
               sodipodi:nodetypes="zzzzzzzzzz" /><path
               id="path19-6"
               style="fill:#ffffff;fill-opacity:1;stroke-width:0.529;stroke-linecap:square;stroke-miterlimit:1.5;paint-order:fill markers stroke"
               inkscape:label="teeth top"
               d="m 36.072711,30.75021 c 0.311262,0.02852 0.497656,0.03993 0.512148,0.06198 0.01449,0.02204 -0.206244,0.02209 -0.229859,0.03119 -0.02362,0.0091 -0.02831,0.0922 -0.05191,0.09263 -0.0236,4.31e-4 -0.08048,-0.07003 -0.102828,-0.08274 -0.02235,-0.01272 -0.295713,-0.04002 -0.320388,-0.0318 -0.02468,0.0082 -0.06758,0.07376 -0.09026,0.07088 -0.02268,-0.0029 -0.02054,-0.08521 -0.03608,-0.101482 -0.01557,-0.01627 -0.282972,-0.04876 -0.260325,-0.08128 0.02265,-0.03252 0.268241,0.01207 0.579502,0.04065 z"
               sodipodi:nodetypes="zzzzzzzzzzz" /><path
               id="path20-2"
               style="fill:#ffffff;fill-opacity:1;stroke-width:0.529;stroke-linecap:square;stroke-miterlimit:1.5;paint-order:fill markers stroke"
               inkscape:label="teeth bottom"
               d="m 35.927535,31.108137 c 0.01497,-0.0051 0.07541,-0.07042 0.08998,-0.06849 0.01456,0.0019 0.07091,0.07815 0.08589,0.08942 0.01498,0.01127 0.261626,-0.0022 0.265008,0.03825 0.0034,0.04043 -0.210804,0.03659 -0.365719,0.02354 -0.154916,-0.013 -0.410586,-0.06843 -0.392571,-0.101682 0.01802,-0.03324 0.302446,0.02409 0.317412,0.0189 z"
               sodipodi:nodetypes="zzzzzzzz" /></g></g><g
           id="g12896-1-7-1"
           inkscape:label="hair"
           transform="matrix(3.5377589,0.04508478,-0.04508478,3.5377589,-98.185674,-86.412339)"
           style="display:inline"><path
             id="path12890-0-3-8"
             style="fill:#aeaea3;stroke-width:1.05833;stroke-linecap:square;stroke-linejoin:round;stroke-miterlimit:1.5;paint-order:stroke fill markers"
             d="m 41.561004,29.633465 c 1.481382,0.454222 0.495825,0.168223 1.20612,1.156604 0.710295,0.988381 1.917426,3.622153 1.686294,4.881463 -0.231132,1.25931 -0.842353,2.112726 -1.324767,1.532403 -0.482414,-0.580323 -0.919483,-1.130621 -0.935437,-2.233339 -0.01595,-1.102718 -0.06428,-2.911293 -0.403826,-3.154152 -0.339544,-0.242859 -6.494362,-0.541101 -7.53935,0.260433 -1.044988,0.801534 -0.845909,2.093568 -0.805587,3.18441 0.04032,1.090843 -0.03998,2.102294 0.09665,2.823902 0.136625,0.721607 0.860883,1.122677 0.908727,2.515606 0.04784,1.39293 -0.946705,2.283574 -1.242286,2.436857 -0.295581,0.153283 -1.886488,-1.356001 -1.756324,-4.72951 0.130164,-3.373509 -0.01384,-6.869036 2.320298,-8.66554 2.334138,-1.796504 6.308055,-0.463359 7.789437,-0.0092 z"
             sodipodi:nodetypes="zzzzzzzzzzzzzzz"
             inkscape:label="hair under" /><path
             id="path12892-6-6-7"
             style="fill:url(#linearGradient8);fill-opacity:1;stroke-width:1.05833;stroke-linecap:square;stroke-linejoin:round;stroke-miterlimit:1.5;paint-order:stroke fill markers"
             d="m 44.659266,36.813852 c 0.0047,1.125131 -1.833402,0.561386 -1.762181,1.46046 0.07122,0.899074 1.515819,0.213816 1.592732,1.081092 0.07691,0.867276 -1.298792,0.514557 -1.289541,1.343444 0.0093,0.828887 0.800828,0.621045 1.090449,1.089926 0.289621,0.468881 0.248472,0.966 0.167472,0.967059 -0.081,0.0011 -0.392019,-0.472794 -0.518426,-0.445452 -0.126407,0.02734 -0.485561,0.462484 -0.553796,0.466534 -0.06824,0.004 -0.160921,-0.4344 0.07581,-0.995501 0.236725,-0.561101 1.174143,-0.342886 1.088989,-1.178953 -0.08515,-0.836067 -1.547524,-0.263136 -1.604451,-1.118368 -0.05693,-0.855232 1.5549,-0.540825 1.397448,-1.327571 -0.157452,-0.786746 -0.841192,-0.0144 -1.449036,-1.183139 -0.607844,-1.168743 -0.246827,-1.195658 -0.287449,-2.765867 -0.04062,-1.570209 -0.690905,-4.442473 -0.825764,-4.374561 -0.134861,0.06791 0.185157,1.643365 -0.0046,1.725914 -0.189712,0.08255 -2.266233,-0.34817 -2.48307,-0.494739 -0.216837,-0.146563 -0.224815,-1.531602 -0.42976,-1.498942 -0.204945,0.03266 0.122065,1.411576 -0.03525,1.56792 -0.157315,0.156344 -1.801587,0.130781 -2.022117,0.06448 -0.22053,-0.0663 0.156951,-1.552614 -0.0593,-1.51037 -0.216248,0.04224 -0.257721,1.295079 -0.34758,1.509163 -0.08986,0.214084 -1.495698,-0.222746 -2.479925,0.787826 -0.984227,1.010572 -0.831434,3.204054 -0.7929,4.223908 0.03854,1.019855 0.363585,3.11595 0.473223,4.449497 0.109639,1.333547 -0.05517,2.124985 -0.392692,2.38004 -0.337526,0.255055 -0.843911,-0.259052 -1.40404,-0.771398 -0.56013,-0.512347 -1.203571,-1.637721 -1.278732,-2.468381 -0.07516,-0.830659 0.214597,-1.727797 0.282057,-2.486234 0.06746,-0.758437 0.06654,-1.599446 0.0018,-2.699252 -0.06477,-1.099806 -0.353157,-1.380748 0.129754,-3.159307 0.482911,-1.778559 2.442248,-4.217817 6.538653,-4.553811 4.096405,-0.335995 7.054001,2.96845 7.440273,5.12542 0.386272,2.15697 -0.26274,3.664032 -0.25805,4.789163 z"
             sodipodi:nodetypes="zzzzzzzzzzzzzzzzzzzzzzzzzzzzzzzzzz"
             inkscape:label="hair" /><path
             id="path12894-3-1-9"
             style="fill:#333333;stroke-width:1.05833;stroke-linecap:square;stroke-linejoin:round;stroke-miterlimit:1.5;paint-order:stroke fill markers"
             d="m 44.447919,41.08467 c -0.06159,0.115801 -0.296531,0.181277 -0.295495,0.366684 10e-4,0.185407 0.222775,0.341272 0.209773,0.419074 -0.013,0.0778 -0.994724,0.194694 -0.964788,0.01013 0.02994,-0.1846 0.210603,-0.174858 0.161242,-0.342971 -0.04936,-0.168112 -0.295992,-0.352037 -0.34279,-0.48761 -0.0468,-0.135572 1.293645,-0.08111 1.232058,0.03469 z"
             sodipodi:nodetypes="zzzzzzzz"
             inkscape:label="hair tie" /></g></g><g
         id="g4"
         inkscape:label="commander cap"
         style="display:inline"
         transform="matrix(0.95544488,0.05757179,-0.06150412,0.89435755,-4.4116336,1.8217558)"><path
           id="rect5"
           style="fill:url(#linearGradient6);stroke-width:1.80282;paint-order:fill markers stroke"
           d="m 28.787003,5.6631466 c 0.252883,-0.2040268 4.488765,1.8524746 6.250244,2.7596988 1.76148,0.9072241 4.324775,2.6701176 4.324775,2.6701176 l -4.613333,4.455209 -8.822158,-4.202109 c 0,0 2.607588,-5.4788896 2.860472,-5.6829164 z"
           sodipodi:nodetypes="zzcccz" /><path
           id="rect30"
           style="fill:#396679;stroke-width:1.80282;paint-order:fill markers stroke"
           d="M 30.961584,4.2440021 51.275533,3.4529166 52.693926,4.4957425 33.642235,6.8827683 29.642201,5.3330168 Z"
           sodipodi:nodetypes="cccccc" /><path
           id="path23"
           style="fill:url(#linearGradient25);stroke-width:1.80282;paint-order:fill markers stroke"
           d="m 32.185916,3.35097 c -1.284118,0.2399508 -2.782641,0.6753407 -3.032883,1.2822061 -0.250241,0.6068655 -0.574754,1.0258432 -0.01205,1.1245491 0.562701,0.098706 1.12838,-0.8716423 2.225895,-1.1022266 1.097515,-0.2305843 11.009691,0.3121892 14.56114,-0.737079 3.551449,-1.0492682 5.834551,0.3815829 5.936161,0.2923535 0.10161,-0.089229 1.326027,1.0770816 1.40271,0.1385468 0.07668,-0.9385348 -0.664987,-2.0626291 -3.410156,-1.9585135 -2.74517,0.1041156 -5.492083,-0.079895 -7.615113,0.05982 -2.12303,0.1397151 -8.771581,0.6603924 -10.0557,0.9003432 z"
           sodipodi:nodetypes="zzzzzzzzzz" /><path
           id="rect8"
           style="fill:url(#linearGradient12);stroke-width:1.80282;paint-order:fill markers stroke"
           d="M 41.671029,-3.1982248 C 41.974884,-2.4678591 41.366141,12.151971 41.366141,12.151971 L 30.610209,5.9003261 c 0,0 2.645705,-2.6988844 4.407134,-4.2245889 1.761428,-1.52570458 6.349831,-5.6043278 6.653686,-4.873962 z"
           sodipodi:nodetypes="zcczz" /><path
           id="rect6"
           style="fill:#e2cc35;stroke-width:1.80282;paint-order:fill markers stroke"
           d="m 33.342366,6.5888228 c 1.736536,0.8506601 6.675722,3.8818892 6.675722,3.8818892 l -0.710405,0.723845 c 0,0 -4.814606,-2.9351347 -6.607211,-3.8303067 -1.792605,-0.8951719 -4.176716,-1.5122597 -3.892259,-1.8148982 0.284458,-0.3026385 0.741791,-0.4668264 1.00595,-0.4734708 0.26416,-0.00664 1.791667,0.6622814 3.528203,1.5129415 z"
           sodipodi:nodetypes="zcczzzz" /><path
           id="rect16"
           style="fill:url(#linearGradient17);stroke-width:1.80282;paint-order:fill markers stroke"
           d="m 41.623539,-3.2849608 c 0.339336,0.080449 4.078721,3.16113104 5.714151,4.5631312 1.635431,1.4020002 4.268586,3.8229273 4.268586,3.8229273 L 41.284573,10.557523 c 0,0 -3.7e-4,-13.9229333 0.338966,-13.8424838 z"
           sodipodi:nodetypes="zzccz" /><path
           id="rect1"
           style="display:inline;fill:url(#linearGradient2);stroke-width:1.80282;paint-order:fill markers stroke"
           d="m 26.432399,13.213713 c 0.567487,-0.575104 11.116158,-1.436762 15.503475,-2.863115 4.387316,-1.4263524 10.366376,-5.9587891 11.42023,-5.8921888 1.053853,0.0666 3.806745,7.1006808 3.771596,8.1375378 -0.03515,1.036858 -1.932279,3.690153 -4.522067,5.77492 -2.589788,2.084767 -10.595209,5.4392 -11.362448,5.475856 -0.767239,0.03666 -5.904471,-1.797198 -8.438048,-3.601982 -2.533577,-1.804783 -6.940224,-6.455925 -6.372738,-7.031028 z"
           sodipodi:nodetypes="zzzzzzzz" /><path
           id="rect4"
           style="fill:#faf978;stroke-width:1.80282;paint-order:fill markers stroke"
           d="m 25.86764,11.177017 c 0.304349,-0.175579 0.0643,0.491178 1.868352,0.83536 1.804048,0.344181 9.290076,-0.943787 13.354183,-2.2802623 4.064107,-1.3364756 10.062816,-5.1463746 10.774,-5.5213416 0.711184,-0.3749671 1.526043,-0.5611481 1.40271,0.1385468 -0.123333,0.6996948 -7.084689,4.6675359 -11.595022,6.2230081 -4.510333,1.555473 -14.552406,3.470951 -15.239464,2.641385 -0.687058,-0.829566 -0.869107,-1.861116 -0.564759,-2.036696 z"
           sodipodi:nodetypes="zzzzzzzz" /><path
           id="rect31"
           style="display:inline;fill:#d6d7d3;stroke-width:1.80282;paint-order:fill markers stroke"
           d="m 44.924058,9.9476275 c 0.167308,-0.1082956 5.944384,-0.010585 6.216226,0.1103245 0.271842,0.120909 -0.03137,4.578523 0.09042,4.832761 0.121786,0.254238 1.665958,2.831571 1.548798,2.952387 -0.11716,0.120816 -2.314289,-1.240113 -2.539306,-1.242906 -0.225017,-0.0028 -3.588503,1.740592 -3.751941,1.682687 -0.163438,-0.0579 -1.731505,-8.226958 -1.564197,-8.3352535 z"
           sodipodi:nodetypes="zzzzzzz" /><path
           id="rect35"
           style="fill:none;stroke:#8f8f88;stroke-width:0.276754;stroke-linejoin:round;stroke-dasharray:none;paint-order:fill markers stroke"
           d="m 45.736199,10.504608 4.891751,0.118471 0.162798,4.190117 1.018175,1.818001 -1.664625,-1.047597 -3.07985,1.534346 z"
           sodipodi:nodetypes="ccccccc" /><path
           id="rect36"
           style="fill:none;stroke:#b4b4af;stroke-width:0.16144;stroke-linecap:round;stroke-linejoin:round;stroke-dasharray:none;stroke-opacity:1;paint-order:fill markers stroke"
           d="m 47.550236,16.08692 0.707863,-3.06825 1.797347,-1.485597"
           sodipodi:nodetypes="ccc" /><path
           id="path38"
           style="fill:none;stroke:#b4b4af;stroke-width:0.16144;stroke-linecap:round;stroke-linejoin:round;stroke-dasharray:none;stroke-opacity:1;paint-order:fill markers stroke"
           d="m 48.235896,15.849225 0.543305,-2.355164 1.376808,-1.165622"
           sodipodi:nodetypes="ccc" /><path
           id="path39"
           style="fill:none;stroke:#b4b4af;stroke-width:0.16144;stroke-linecap:round;stroke-linejoin:round;stroke-dasharray:none;stroke-opacity:1;paint-order:fill markers stroke"
           d="m 48.884987,15.510966 0.314752,-1.477519 0.983696,-0.799937"
           sodipodi:nodetypes="ccc" /><path
           id="path42"
           style="fill:none;stroke:#b4b4af;stroke-width:0.16144;stroke-linecap:round;stroke-linejoin:round;stroke-dasharray:none;stroke-opacity:1;paint-order:fill markers stroke"
           d="m 49.579789,15.22756 0.131909,-0.746148 0.471737,-0.415968"
           sodipodi:nodetypes="ccc" /><path
           id="rect46"
           style="fill:#c5c2b9;fill-opacity:1;stroke-width:0.16144;stroke-linecap:round;stroke-linejoin:round;paint-order:fill markers stroke"
           d="m 53.662072,13.673053 c 0.104147,0.0073 0.271144,0.486664 0.402575,0.802895 0.131432,0.316231 0.433123,1.051617 0.377975,1.085028 -0.05515,0.03341 -1.044044,-0.630558 -1.101877,-0.665138 -0.05783,-0.03458 0.21718,-1.230047 0.321327,-1.222785 z"
           sodipodi:nodetypes="zzzzz" /><path
           id="rect43"
           style="fill:#eaeeec;stroke-width:0.16144;stroke-linecap:round;stroke-linejoin:round;paint-order:fill markers stroke"
           d="m 51.498285,13.49752 c 0.0859,-0.09222 2.115196,0.111541 2.163786,0.175533 0.04859,0.06399 -0.04699,0.521324 -0.18699,0.90337 -0.139997,0.382046 -0.616982,1.330383 -0.725999,1.33406 -0.109017,0.0037 -0.159295,-1.264747 -0.233412,-1.454929 -0.07412,-0.190183 -1.103281,-0.865811 -1.017385,-0.958034 z"
           sodipodi:nodetypes="zzzzzz" /><path
           id="rect45"
           style="fill:#d4d9d5;fill-opacity:1;stroke-width:0.16144;stroke-linecap:round;stroke-linejoin:round;paint-order:fill markers stroke"
           d="m 53.297749,12.880739 c 0.09561,0.0552 0.78004,0.160936 0.814069,0.206566 0.03403,0.04563 -0.0735,0.3443 -0.09822,0.386644 -0.02472,0.04234 -0.122927,0.207948 -0.317523,0.281683 -0.194596,0.07373 -0.49394,-0.930093 -0.398325,-0.874893 z"
           sodipodi:nodetypes="zzzzzz" /><path
           id="rect42"
           style="fill:#f9fefa;stroke-width:0.16144;stroke-linecap:round;stroke-linejoin:round;paint-order:fill markers stroke"
           d="m 52.307024,11.721533 c 0.121284,-0.0099 0.884377,1.071649 0.990725,1.159206 0.106348,0.08756 0.37492,0.750189 0.364322,0.792314 -0.0106,0.04213 -2.149367,-0.06315 -2.163786,-0.175533 -0.01442,-0.112379 0.743181,-0.407968 0.783899,-0.49515 0.04072,-0.08718 -0.09644,-1.270986 0.02484,-1.280837 z"
           sodipodi:nodetypes="zzzzzz" /><path
           id="rect33"
           style="display:inline;fill:#c8cac4;stroke-width:1.80282;paint-order:fill markers stroke"
           d="m 50.240196,16.600194 c 0.2077,-0.01987 2.539306,1.242906 2.539306,1.242906 l -0.513485,0.390676 c 0,0 -2.486138,-1.294437 -2.456036,-1.440637 0.0301,-0.1462 0.222515,-0.173072 0.430215,-0.192945 z"
           sodipodi:nodetypes="zcczz" /><path
           id="rect32"
           style="display:inline;fill:#c8cac4;stroke-width:1.80282;paint-order:fill markers stroke"
           d="M 44.450419,10.193425 C 44.55934,9.987277 44.924058,9.9476275 44.924058,9.9476275 l 1.564197,8.3352535 c 0,0 -0.427232,0.263379 -0.528172,0.198194 -0.10094,-0.06518 -1.618586,-8.081501 -1.509664,-8.28765 z"
           sodipodi:nodetypes="zcczz"
           inkscape:label="rect32" /><path
           id="rect34"
           style="display:inline;fill:#9ca19d;stroke-width:1.80282;paint-order:fill markers stroke"
           d="m 46.406744,11.165562 c 0.133992,-0.09918 2.803699,0.04744 2.985946,0.144892 0.182247,0.09745 -1.488651,1.015993 -1.585762,1.219322 -0.09711,0.203328 -0.433235,2.709263 -0.619378,2.68855 -0.186143,-0.02071 -0.914799,-3.953587 -0.780806,-4.052764 z"
           sodipodi:nodetypes="zzzzz" /></g></g></g><metadata
     id="metadata1"><rdf:RDF><cc:License
         rdf:about="http://creativecommons.org/licenses/by-nc/4.0/"><cc:permits
           rdf:resource="http://creativecommons.org/ns#Reproduction" /><cc:permits
           rdf:resource="http://creativecommons.org/ns#Distribution" /><cc:requires
           rdf:resource="http://creativecommons.org/ns#Notice" /><cc:requires
           rdf:resource="http://creativecommons.org/ns#Attribution" /><cc:prohibits
           rdf:resource="http://creativecommons.org/ns#CommercialUse" /><cc:permits
           rdf:resource="http://creativecommons.org/ns#DerivativeWorks" /></cc:License><cc:Work
         rdf:about=""><cc:license
           rdf:resource="http://creativecommons.org/licenses/by-nc/4.0/" /></cc:Work></rdf:RDF></metadata></svg>
