<?xml version="1.0" encoding="UTF-8" standalone="no"?>
<!-- Created with Inkscape (http://www.inkscape.org/) -->

<svg
   width="256"
   height="256"
   viewBox="0 0 67.733332 67.733333"
   version="1.1"
   id="svg1"
   inkscape:version="1.3.2 (091e20ef0f, 2023-11-25, custom)"
   sodipodi:docname="tent.svg"
   inkscape:export-filename="chew.png"
   inkscape:export-xdpi="126"
   inkscape:export-ydpi="126"
   xmlns:inkscape="http://www.inkscape.org/namespaces/inkscape"
   xmlns:sodipodi="http://sodipodi.sourceforge.net/DTD/sodipodi-0.dtd"
   xmlns:xlink="http://www.w3.org/1999/xlink"
   xmlns="http://www.w3.org/2000/svg"
   xmlns:svg="http://www.w3.org/2000/svg"
   xmlns:rdf="http://www.w3.org/1999/02/22-rdf-syntax-ns#"
   xmlns:cc="http://creativecommons.org/ns#">
  <sodipodi:namedview
     id="namedview1"
     pagecolor="#ffffff"
     bordercolor="#666666"
     borderopacity="1.0"
     inkscape:showpageshadow="2"
     inkscape:pageopacity="0.0"
     inkscape:pagecheckerboard="0"
     inkscape:deskcolor="#d1d1d1"
     inkscape:document-units="px"
     inkscape:zoom="6.4105077"
     inkscape:cx="125.57508"
     inkscape:cy="171.98326"
     inkscape:window-width="1920"
     inkscape:window-height="1004"
     inkscape:window-x="0"
     inkscape:window-y="0"
     inkscape:window-maximized="1"
     inkscape:current-layer="g12888-7-9"
     showgrid="false" />
  <defs
     id="defs1">
    <linearGradient
       id="linearGradient27"
       inkscape:collect="always">
      <stop
         style="stop-color:#ebebeb;stop-opacity:1;"
         offset="0"
         id="stop27" />
      <stop
         style="stop-color:#cfcfcf;stop-opacity:1;"
         offset="1"
         id="stop28" />
    </linearGradient>
    <clipPath
       clipPathUnits="userSpaceOnUse"
       id="clipPath32">
      <path
         id="path33"
         style="fill:#1b1b1b;fill-opacity:1;stroke-width:0.459095;stroke-linecap:round;stroke-linejoin:round"
         d="m 36.254528,49.895009 c 0.194049,-0.407057 0.831634,-0.76845 1.617945,-0.756275 0.786312,0.01218 1.145884,0.248213 1.54722,0.659509 0.401335,0.411295 1.694763,2.068258 1.701543,2.532842 0.0068,0.464583 -0.233366,1.980943 -0.77229,2.387161 -0.538924,0.406218 -1.654144,0.585893 -2.241353,0.46973 -0.587208,-0.116162 0.248768,-2.048996 0.227909,-2.613036 -0.02086,-0.564039 0.01961,-0.853913 -0.141719,-1.230923 -0.161331,-0.377011 -0.343443,-0.370861 -0.70368,-0.516997 -0.360238,-0.146136 -1.447197,0.296143 -1.519025,0.221404 -0.07183,-0.07474 0.0894,-0.746358 0.28345,-1.153415 z"
         sodipodi:nodetypes="zzzzzzzzzzz" />
    </clipPath>
    <clipPath
       clipPathUnits="userSpaceOnUse"
       id="clipPath35">
      <path
         id="path36"
         style="display:inline;fill:#ffffff;stroke-width:1.18169;stroke-linecap:square;stroke-miterlimit:1.5;paint-order:fill markers stroke"
         inkscape:label="eye white left"
         d="m 36.054386,35.779739 c 0.129881,0.100983 0.288305,0.13107 0.490854,0.148198 0.202552,0.01703 0.42006,-0.003 0.585695,-0.07961 0.165631,-0.0765 0.257474,-0.232373 0.335546,-0.351904 0.07809,-0.119529 0.0835,-0.284647 -0.0044,-0.440608 -0.08792,-0.155976 -0.265523,-0.270732 -0.5042,-0.324621 -0.238716,-0.05389 -0.632318,0.01862 -0.827763,0.133534 -0.195446,0.114914 -0.293876,0.239819 -0.29062,0.40652 0.0032,0.166682 0.08504,0.407527 0.214923,0.508508 z"
         sodipodi:nodetypes="zzzzzzzzzz" />
    </clipPath>
    <clipPath
       clipPathUnits="userSpaceOnUse"
       id="clipPath36">
      <path
         id="path37"
         style="display:inline;fill:#ffffff;stroke-width:1.13012;stroke-linecap:square;stroke-miterlimit:1.5;paint-order:fill markers stroke"
         inkscape:label="eye white right"
         d="m 35.737812,34.886578 c -0.12159,0.142368 -0.169305,0.22872 -0.181111,0.400212 -0.0118,0.171496 0.0326,0.356978 0.14723,0.462467 0.114654,0.105491 0.276331,0.169892 0.426007,0.185607 0.149693,0.01572 0.305561,0.03372 0.514009,-0.0043 0.20844,-0.03789 0.50609,-0.332515 0.573388,-0.542371 0.06731,-0.209871 0.01198,-0.309427 -0.161807,-0.454064 -0.173803,-0.144635 -0.554353,-0.244121 -0.813101,-0.225297 -0.258749,0.01882 -0.383057,0.03539 -0.504642,0.177755 z"
         sodipodi:nodetypes="zzzzzzzzzz" />
    </clipPath>
    <clipPath
       clipPathUnits="userSpaceOnUse"
       id="clipPath7">
      <path
         id="path9"
         style="fill:url(#linearGradient9);stroke-width:0.79375;stroke-linecap:round;stroke-linejoin:round"
         d="m 42.174811,29.42627 c 1.132704,0.327101 3.574617,1.926841 3.779188,2.162836 0.204568,0.235997 1.714117,3.620284 1.784916,4.157746 0.0708,0.537462 -2.772065,-0.821477 -2.683782,0.593806 0.08828,1.415285 0.368671,11.533909 0.199537,12.056124 -0.169134,0.522212 -0.120282,0.879964 -0.964512,0.936149 -0.844232,0.05619 -10.952338,-0.179422 -11.051208,-0.990595 -0.09887,-0.811174 0.404046,-11.62455 0.295555,-11.779216 -0.108488,-0.154665 -2.470796,-0.407158 -2.674076,-0.761888 -0.203279,-0.354728 2.491377,-4.467113 2.867903,-4.830245 0.376523,-0.363132 2.257121,-1.249632 3.315941,-1.417851 1.058823,-0.168219 1.237622,0.388973 2.151918,0.309708 0.914296,-0.07927 1.845916,-0.763675 2.97862,-0.436574 z"
         sodipodi:nodetypes="zzzzzzzzzzzzz" />
    </clipPath>
    <linearGradient
       inkscape:collect="always"
       xlink:href="#linearGradient27"
       id="linearGradient9"
       gradientUnits="userSpaceOnUse"
       x1="33.179368"
       y1="39.343706"
       x2="46.192532"
       y2="42.905514" />
    <linearGradient
       inkscape:collect="always"
       xlink:href="#linearGradient7"
       id="linearGradient8"
       x1="39.471596"
       y1="39.674927"
       x2="40.62606"
       y2="48.88895"
       gradientUnits="userSpaceOnUse" />
    <linearGradient
       id="linearGradient7"
       inkscape:collect="always">
      <stop
         style="stop-color:#9024c5;stop-opacity:1;"
         offset="0"
         id="stop7" />
      <stop
         style="stop-color:#6f0ca0;stop-opacity:1;"
         offset="1"
         id="stop8" />
    </linearGradient>
    <linearGradient
       inkscape:collect="always"
       xlink:href="#linearGradient42"
       id="linearGradient43"
       x1="19.851208"
       y1="35.020828"
       x2="35.189865"
       y2="34.734123"
       gradientUnits="userSpaceOnUse" />
    <linearGradient
       id="linearGradient42"
       inkscape:collect="always">
      <stop
         style="stop-color:#8e7e6c;stop-opacity:1;"
         offset="0"
         id="stop42" />
      <stop
         style="stop-color:#8f7e70;stop-opacity:1;"
         offset="0.5"
         id="stop44" />
      <stop
         style="stop-color:#29221d;stop-opacity:1;"
         offset="1"
         id="stop43" />
    </linearGradient>
  </defs>
  <g
     inkscape:label="Layer 1"
     inkscape:groupmode="layer"
     id="layer1">
    <g
       id="g15"
       inkscape:label="integrelle"
       transform="matrix(1.1472301,0,0,1.1472301,-13.127858,2.0266055)"
       style="display:inline">
      <g
         id="g9"
         inkscape:label="body"
         transform="matrix(1.8435206,0,0,1.8435206,-30.666703,-8.4616463)">
        <path
           id="rect19720-1"
           style="display:inline;fill:#6a0a99;fill-opacity:1;stroke-width:0.26352;stroke-linecap:round;stroke-linejoin:round;stroke-miterlimit:1.5;paint-order:fill markers stroke"
           d="m 32.070913,24.799531 c 0.0044,-1.274474 14.987402,-0.947918 15.195915,-0.231126 0.208508,0.71679 -1.90851,4.271489 -2.563854,4.431043 -0.655344,0.159554 -3.574896,-1.621286 -5.083684,-1.567178 -1.508787,0.05412 -4.892755,1.862278 -5.497128,1.744881 -0.604374,-0.117395 -2.055612,-3.103148 -2.051249,-4.37762 z"
           sodipodi:nodetypes="zzzzzz" />
        <rect
           style="fill:#403e52;fill-opacity:1;stroke-width:0.977922;paint-order:fill markers stroke"
           id="rect2"
           width="4.7415094"
           height="1.4018376"
           x="37.039093"
           y="28.603657" />
        <rect
           style="fill:#fdbc94;fill-opacity:1;stroke-width:0.79375;stroke-linecap:round;stroke-linejoin:round"
           id="rect11"
           width="3.1159353"
           height="1.8243548"
           x="37.907837"
           y="28.124128" />
        <g
           id="g10"
           style="display:inline"
           transform="matrix(-0.63630249,0.10807901,0.10807901,0.63630249,25.735896,-7.0164985)">
          <path
             id="rect13-7"
             style="fill:#e3debf;fill-opacity:1;stroke-width:0.215663"
             transform="rotate(-9.6399582)"
             d="m -21.153879,57.25338 c 1.5931,0.0654 2.430125,-1.589747 4.069546,-1.286413 1.639421,0.303333 4.794198,2.136481 5.045968,2.323383 0.251769,0.186902 4.4182718,7.432052 4.4576964,8.032895 0.039425,0.600843 -4.0525184,4.7263 -4.2916224,4.358336 -0.239104,-0.367964 -1.206143,-3.937562 -1.338434,-4.184507 -0.132291,-0.246945 0.411904,3.912648 0.632686,4.46411 0.220782,0.551462 -17.476664,-1.42093 -18.0999,-1.555409 -0.623236,-0.134479 -2.147551,-2.045048 -2.996989,-2.77012 -0.849438,-0.725072 2.066795,-7.027822 2.478446,-7.553269 0.411652,-0.525446 4.904048,-2.845549 6.362776,-2.62345 1.458728,0.222099 2.086727,0.729039 3.679827,0.794444 z"
             sodipodi:nodetypes="zzzzzzzzzzzz" />
          <path
             id="rect9"
             style="display:inline;fill:#403b3c;stroke-width:20.5831;stroke-linecap:round;stroke-linejoin:round;paint-order:stroke fill markers"
             d="m 45.880586,33.52683 c 0,0 -4.067256,2.312617 -4.278665,2.259999 -0.211409,-0.05262 -3.504284,-2.537676 -3.504284,-2.537676 l -4.187765,1.275566 c 0,0 5.795552,2.748365 5.725692,3.177355 -0.06986,0.42899 -2.474168,1.189682 -2.967162,2.626576 -0.492994,1.436895 0.948632,5.063897 0.948632,5.063897 0,0 1.035381,-2.399512 1.679148,-3.466965 0.643767,-1.067453 1.807717,-2.843464 2.149603,-2.921509 0.341886,-0.07804 1.337043,1.842452 2.166694,3.024998 0.82965,1.182546 2.175945,3.598607 2.175945,3.598607 0,0 0.932697,-3.171512 0.266866,-4.617523 -0.665832,-1.446012 -3.124277,-2.8559 -3.178446,-3.309179 -0.05417,-0.453279 6.664769,-3.033391 6.664769,-3.033391 z"
             sodipodi:nodetypes="czcczzczzzczzcc"
             transform="matrix(-0.74290842,0.12618653,0.12618653,0.74290842,15.246446,29.041932)" />
          <path
             id="rect1"
             style="display:inline;fill:#4f4b64;fill-opacity:1;stroke-width:20.5831;stroke-linecap:round;stroke-linejoin:round;paint-order:stroke fill markers"
             d="m 46.503132,31.68629 c -0.285578,0.04507 -2.366512,1.984292 -2.225785,2.414946 0.140727,0.430654 4.742879,1.46145 5.18915,1.315325 0.446269,-0.146125 1.901148,-0.997882 1.853057,-1.416102 -0.04809,-0.418221 -4.530844,-2.359235 -4.816422,-2.314169 z"
             sodipodi:nodetypes="zzzzz"
             transform="matrix(-0.74290842,0.12618653,0.12618653,0.74290842,15.246446,29.041932)" />
          <path
             id="path9-9"
             style="display:inline;fill:#4f4b64;fill-opacity:1;stroke-width:20.5831;stroke-linecap:round;stroke-linejoin:round;paint-order:stroke fill markers"
             d="m 36.383137,31.590197 c 0.245783,0.0053 3.469114,2.376166 3.340103,2.628123 -0.12901,0.251959 -5.414105,0.688239 -5.727729,0.634966 -0.313623,-0.05327 -1.891224,-1.030368 -1.830514,-1.246872 0.06071,-0.216504 3.972357,-2.021489 4.21814,-2.016217 z"
             sodipodi:nodetypes="zzzzz"
             transform="matrix(-0.74290842,0.12618653,0.12618653,0.74290842,15.246446,29.041932)" />
        </g>
      </g>
      <g
         id="g12898-2-9"
         inkscape:label="head"
         transform="matrix(3.0829754,0.1100939,-0.1100939,3.0829754,-70.000152,-79.124942)"
         style="display:inline">
        <path
           id="path12850-2-2"
           style="fill:#fdc5a1;fill-opacity:1;stroke-width:1.04891;stroke-linecap:square;stroke-linejoin:round;stroke-miterlimit:1.5;paint-order:stroke fill markers"
           d="m 42.451293,29.354181 c 0.378209,0.318668 0.836416,1.684721 0.832624,2.604782 -0.0038,0.920061 0.480888,1.99483 0.415161,2.704666 -0.06573,0.709836 -0.356057,0.672117 -0.699379,1.38291 -0.343322,0.710793 -1.13415,1.256984 -1.921261,1.685645 -0.787112,0.428661 -1.736064,0.850227 -2.561471,0.95754 -0.825406,0.107313 -1.782294,0.179328 -2.640449,-0.0879 -0.858154,-0.267227 -1.859595,-0.837751 -2.803458,-1.571732 -0.943864,-0.733981 -1.480174,-2.484772 -1.239489,-3.688579 0.240685,-1.203807 0.612079,-1.961254 0.524213,-2.878864 -0.08787,-0.91761 0.303548,-1.505438 1.462318,-1.650634 1.15877,-0.145196 3.170943,0.149596 4.531633,0.04482 1.36069,-0.104776 2.981133,-0.07078 3.641776,0.201176 0.660643,0.271952 0.322576,0.173375 0.457782,0.296168 0,0 -0.378209,-0.318667 0,2e-6 z"
           inkscape:label="face"
           sodipodi:nodetypes="zzzzzzzzzzzzzsz" />
        <path
           id="path12852-8-7"
           style="display:inline;fill:#fdac77;fill-opacity:1;stroke-width:1.05833;stroke-linecap:square;stroke-linejoin:round;stroke-miterlimit:1.5;paint-order:stroke fill markers"
           inkscape:label="ear right"
           inkscape:transform-center-x="0.57222739"
           inkscape:transform-center-y="-0.00040558725"
           d="m 27.449032,34.435534 c -0.01172,-0.421695 1.933718,-2.266313 2.334296,-1.947094 0.400578,0.319219 0.333053,3.539832 0.127914,3.677703 -0.205139,0.137871 -2.450493,-1.308914 -2.46221,-1.730609 z"
           sodipodi:nodetypes="zzzz"
           transform="matrix(1.3809107,0,0,1.1265808,-9.2561147,-4.1681913)" />
        <path
           id="path12854-9-0"
           style="display:inline;fill:#fdac77;fill-opacity:1;stroke-width:1.32003;stroke-linecap:square;stroke-linejoin:round;stroke-miterlimit:1.5;paint-order:stroke fill markers"
           inkscape:label="ear left"
           inkscape:transform-center-x="-0.57222699"
           inkscape:transform-center-y="-0.00040558725"
           d="m 42.950352,32.806466 c -0.737179,0.532065 -0.687743,2.538531 0.04612,2.978368 0.733902,0.439836 2.666579,-1.170145 2.642213,-1.503232 -0.02437,-0.333087 -1.951151,-2.007201 -2.688329,-1.475136 z"
           sodipodi:nodetypes="zzzz" />
        <g
           id="g12888-7-9"
           inkscape:label="face feat"
           transform="matrix(1.0207242,0.02516209,-0.02576505,1.0451841,-1.0858223,-2.6718355)"
           style="stroke-width:1.04005">
          <path
             id="path12860-1-3"
             style="display:inline;fill:#fcaa73;stroke-width:1.62472;stroke-linecap:square;stroke-linejoin:round;stroke-miterlimit:1.5;paint-order:stroke fill markers"
             inkscape:label="nose"
             d="m 39.237282,35.799356 c -0.03177,0.08993 -0.870815,0.109117 -0.926477,0.0076 -0.0557,-0.101533 0.369919,-0.805272 0.461803,-0.805408 0.09188,-1.4e-4 0.496446,0.707911 0.464674,0.797837 z"
             sodipodi:nodetypes="zzzz" />
          <g
             id="g30205"
             inkscape:label="eye"
             transform="matrix(-4.4892897,-0.0854499,-0.00616611,5.1444992,199.32708,-118.06661)"
             style="display:inline;stroke-width:1.04005">
            <path
               id="rect29546"
               style="display:inline;fill:#000000;fill-opacity:1;stroke-width:0.509947;stroke-linecap:square;stroke-miterlimit:1.5;paint-order:fill markers stroke"
               inkscape:label="eye patch"
               d="m 35.337684,30.048016 c 0.06623,0.01651 0.101085,0.01643 0.227872,0.08012 0.126787,0.06369 0.178916,0.06758 0.328926,0.01841 0.15001,-0.04917 0.426821,-0.104118 0.562324,-0.04661 0.135503,0.05751 0.147141,0.171135 0.152544,0.256503 0.0054,0.08537 -0.06085,0.173417 -0.201396,0.201815 -0.140544,0.0284 -0.216779,0.0267 -0.311527,-0.0115 -0.09475,-0.0382 -0.133288,-0.09828 -0.184242,-0.166434 -0.05095,-0.06816 -0.106017,-0.119419 -0.186774,-0.125256 -0.08076,-0.0058 -0.143274,0.06881 -0.180494,0.118332 -0.03722,0.04952 -0.10222,0.115799 -0.176059,0.125393 -0.07384,0.0096 -0.245019,0.0047 -0.300943,-0.02616 -0.05592,-0.0309 -0.127051,-0.06548 -0.158828,-0.143196 -0.03178,-0.07771 -0.03264,-0.197771 0.04226,-0.247034 0.0749,-0.04926 0.14307,-0.05027 0.184629,-0.05251 0.04156,-0.0022 0.13547,0.0016 0.201706,0.01811 z"
               sodipodi:nodetypes="zzzzzzzzzzzzzzzzz" />
            <g
               id="eye-open"
               inkscape:label="open"
               style="display:none;stroke-width:1.04005">
              <path
                 id="path35304"
                 style="display:inline;fill:#ffffff;stroke-width:0.381053;stroke-linecap:square;stroke-miterlimit:1.5;paint-order:fill markers stroke"
                 inkscape:label="eye white right"
                 d="m 36.488857,30.202328 c 0.04143,0.04741 0.05722,0.07565 0.05882,0.130089 0.0016,0.05444 -0.01718,0.112186 -0.05992,0.143256 -0.04275,0.03107 -0.101737,0.04822 -0.155671,0.05022 -0.05394,0.002 -0.11013,0.0046 -0.184321,-0.01156 -0.07419,-0.01611 -0.176438,-0.115135 -0.197355,-0.1828 -0.02092,-0.06767 4.58e-4,-0.09804 0.06502,-0.140311 0.06457,-0.04227 0.202611,-0.06617 0.295141,-0.05509 0.09253,0.01108 0.136868,0.01878 0.178296,0.06619 z"
                 sodipodi:nodetypes="zzzzzzzzzz" />
              <path
                 id="path35306"
                 style="display:inline;fill:#ffffff;stroke-width:0.387611;stroke-linecap:square;stroke-miterlimit:1.5;paint-order:fill markers stroke"
                 inkscape:label="eye white left"
                 d="m 35.439622,30.418755 c -0.0464,0.02886 -0.101604,0.03516 -0.171864,0.03659 -0.07026,0.0014 -0.145134,-0.009 -0.201234,-0.03596 -0.0561,-0.02693 -0.08551,-0.07709 -0.110704,-0.115701 -0.0252,-0.03861 -0.0246,-0.08998 0.0081,-0.136716 0.03272,-0.04674 0.09582,-0.07896 0.179117,-0.09111 0.08331,-0.01215 0.21826,0.01792 0.284089,0.05735 0.06583,0.03943 0.09798,0.0801 0.09436,0.131795 -0.0036,0.05169 -0.03549,0.124897 -0.08189,0.153756 z"
                 sodipodi:nodetypes="zzzzzzzzzz" />
              <g
                 id="g35470"
                 inkscape:label="pupil"
                 transform="matrix(-0.35872427,-0.01982705,-0.015364,0.3160773,49.844875,19.884048)"
                 style="display:inline;stroke-width:1.04005"
                 mask="none"
                 clip-path="url(#clipPath36)">
                <path
                   id="path35360"
                   style="fill:#d99dd9;fill-opacity:1;stroke-width:1.10072;stroke-linecap:square;stroke-linejoin:round;stroke-miterlimit:1.5;paint-order:stroke fill markers"
                   d="m 37.033755,35.490795 c -0.06952,0.09239 -0.166359,0.169122 -0.272994,0.21449 -0.106635,0.04537 -0.228489,0.06306 -0.343664,0.04926 -0.115175,-0.0138 -0.229398,-0.05991 -0.32225,-0.129174 -0.09285,-0.06927 -0.168843,-0.16681 -0.21449,-0.272993 -0.04565,-0.106183 -0.06304,-0.229021 -0.04926,-0.343665 0.01378,-0.114644 0.05966,-0.229865 0.129174,-0.32225 0.06952,-0.09239 0.166359,-0.169122 0.272993,-0.21449 0.106634,-0.04537 0.228489,-0.06306 0.343664,-0.04926 0.115175,0.0138 0.229398,0.05991 0.322251,0.129174 0.09285,0.06927 0.168843,0.16681 0.21449,0.272993 0.04565,0.106183 0.06304,0.22902 0.04926,0.343664 -0.01378,0.114644 -0.05965,0.229866 -0.129174,0.322251 z"
                   sodipodi:nodetypes="zzzzzzzzzzzzz"
                   mask="none" />
                <path
                   id="path35466"
                   style="fill:#333333;fill-opacity:1;stroke-width:0.946137;stroke-linecap:square;stroke-linejoin:round;stroke-miterlimit:1.5;paint-order:stroke fill markers"
                   d="m 36.852754,35.365461 c -0.04572,0.05884 -0.108874,0.107304 -0.178036,0.135475 -0.06916,0.02817 -0.14785,0.03834 -0.221921,0.02831 -0.07407,-0.01003 -0.14721,-0.04089 -0.206343,-0.08645 -0.05913,-0.04555 -0.107129,-0.109167 -0.135475,-0.178036 -0.02835,-0.06887 -0.03834,-0.148191 -0.02831,-0.221921 0.01003,-0.07373 0.04073,-0.147509 0.08645,-0.206343 0.04572,-0.05884 0.108873,-0.107303 0.178035,-0.135474 0.06916,-0.02817 0.147849,-0.03834 0.221921,-0.02831 0.07407,0.01003 0.14721,0.04089 0.206343,0.08644 0.05913,0.04555 0.107128,0.109167 0.135474,0.178036 0.02835,0.06887 0.03834,0.148192 0.02831,0.221921 -0.01003,0.07373 -0.04073,0.147509 -0.08645,0.206343 z"
                   sodipodi:nodetypes="zzzzzzzzzzzzz"
                   mask="none" />
                <ellipse
                   style="display:none;fill:#ffffff;fill-opacity:1;stroke-width:0.0645672"
                   id="path3"
                   cx="35.956913"
                   cy="35.770908"
                   transform="matrix(0.9998947,-0.01451168,0.02083119,0.99978301,0,0)"
                   rx="0.20839196"
                   ry="0.20149492" />
              </g>
              <g
                 id="g35479"
                 inkscape:label="pupil"
                 transform="matrix(-0.34561527,-0.01919635,-0.01496354,0.31048037,48.43596,20.001961)"
                 style="display:inline;stroke-width:1.04005"
                 mask="none"
                 clip-path="url(#clipPath35)">
                <path
                   id="path35475"
                   style="fill:#d99dd9;fill-opacity:1;stroke-width:1.10072;stroke-linecap:square;stroke-linejoin:round;stroke-miterlimit:1.5;paint-order:stroke fill markers"
                   d="m 37.146471,35.44511 c -0.06961,0.09227 -0.166213,0.169188 -0.272994,0.21449 -0.106781,0.0453 -0.228326,0.06304 -0.343664,0.04926 -0.115338,-0.01378 -0.229266,-0.05999 -0.32225,-0.129174 -0.09298,-0.06918 -0.168781,-0.166935 -0.21449,-0.272993 -0.04571,-0.106058 -0.06305,-0.229158 -0.04926,-0.343665 0.01379,-0.114507 0.05957,-0.22998 0.129174,-0.32225 0.06961,-0.09227 0.166212,-0.169188 0.272993,-0.21449 0.106781,-0.0453 0.228326,-0.06304 0.343664,-0.04926 0.115338,0.01378 0.229267,0.05999 0.322251,0.129174 0.09298,0.06918 0.168781,0.166936 0.21449,0.272993 0.04571,0.106057 0.06305,0.229157 0.04926,0.343664 -0.01379,0.114507 -0.05957,0.229981 -0.129174,0.322251 z"
                   sodipodi:nodetypes="zzzzzzzzzzzzz"
                   mask="none" />
                <path
                   id="path35477"
                   style="fill:#333333;fill-opacity:1;stroke-width:0.916746;stroke-linecap:square;stroke-linejoin:round;stroke-miterlimit:1.5;paint-order:stroke fill markers"
                   d="m 36.938908,35.313811 c -0.04436,0.05693 -0.105399,0.104011 -0.172505,0.131267 -0.0671,0.02726 -0.143154,0.03714 -0.215027,0.02743 -0.07188,-0.0097 -0.142556,-0.03968 -0.199932,-0.08376 -0.05738,-0.04408 -0.103764,-0.105855 -0.131267,-0.172505 -0.0275,-0.06665 -0.03715,-0.143673 -0.02743,-0.215027 0.0097,-0.07135 0.0394,-0.142998 0.08376,-0.199933 0.04436,-0.05693 0.105399,-0.10401 0.172505,-0.131266 0.0671,-0.02726 0.143154,-0.03714 0.215027,-0.02743 0.07188,0.0097 0.142556,0.03968 0.199933,0.08376 0.05738,0.04408 0.103763,0.105854 0.131266,0.172505 0.0275,0.06665 0.03715,0.143673 0.02743,0.215027 -0.0097,0.07135 -0.0394,0.142997 -0.08376,0.199932 z"
                   sodipodi:nodetypes="zzzzzzzzzzzzz"
                   mask="none" />
                <ellipse
                   style="display:none;fill:#ffffff;fill-opacity:1;stroke-width:0.0663711"
                   id="ellipse6"
                   cx="35.982109"
                   cy="35.75745"
                   transform="matrix(0.99990294,-0.01393268,0.02160763,0.99976653,0,0)"
                   rx="0.21629041"
                   ry="0.20513658" />
              </g>
            </g>
            <g
               id="eye-close"
               inkscape:label="close"
               style="display:inline;stroke-width:1.04005">
              <path
                 id="rect7"
                 style="display:inline;fill:none;stroke:#ffffff;stroke-width:0.0568256;stroke-linecap:round;stroke-linejoin:round;stroke-dasharray:none"
                 d="m 36.515744,30.312424 c 0,0 -0.145508,-0.05428 -0.272119,-0.05582 -0.126628,-0.0015 -0.236197,0.05062 -0.236197,0.05062 0,0 0.108683,-0.04848 0.236197,-0.05062 0.127516,-0.0021 0.272119,0.05582 0.272119,0.05582 z"
                 sodipodi:nodetypes="czczc" />
              <path
                 id="path8"
                 style="display:inline;fill:none;stroke:#ffffff;stroke-width:0.0568256;stroke-linecap:round;stroke-linejoin:round;stroke-dasharray:none"
                 d="m 34.978431,30.209406 c 0,0 0.124128,-0.04738 0.283957,-0.01194 0.15983,0.03545 0.205511,0.08149 0.205511,0.08149 0,0 -0.04396,-0.04459 -0.205511,-0.08149 -0.161551,-0.03692 -0.283957,0.01194 -0.283957,0.01194 z"
                 sodipodi:nodetypes="czczc" />
            </g>
          </g>
          <g
             id="g12886-0-0"
             inkscape:label="lashes"
             transform="matrix(-4.5067397,-0.23649847,-0.23649847,4.5067397,208.55161,-93.54138)"
             style="display:inline;stroke-width:1.04005">
            <path
               id="path12882-3-2"
               style="display:inline;fill:#ae26f2;fill-opacity:1;stroke-width:0.541549;stroke-linecap:square;stroke-miterlimit:1.5;paint-order:fill markers stroke"
               inkscape:label="right"
               d="m 35.978135,29.934283 c -0.06452,0.101248 -0.583888,-0.121985 -0.562592,-0.152307 0.02128,-0.03033 0.627117,0.05106 0.562592,0.152307 z"
               sodipodi:nodetypes="zzz" />
            <path
               id="path12884-6-3"
               style="display:inline;fill:#ae26f2;fill-opacity:1;stroke-width:0.550187;stroke-linecap:square;stroke-miterlimit:1.5;paint-order:fill markers stroke"
               inkscape:label="left"
               d="m 36.313553,29.955901 c 0.03603,0.09836 0.628376,0.0012 0.6199,-0.03745 -0.0085,-0.03863 -0.655928,-0.06091 -0.6199,0.03745 z"
               sodipodi:nodetypes="zzz" />
          </g>
          <path
             id="mouth-close"
             style="display:inline;fill:#fcaa73;stroke:#fcaa73;stroke-width:0.233005;stroke-linecap:round;stroke-linejoin:round;stroke-miterlimit:1.5;stroke-dasharray:none;stroke-opacity:1;paint-order:fill markers stroke"
             d="m 39.967558,36.491868 -1.140052,0.524708 -1.20289,-0.395407 1.20289,0.395407 z"
             sodipodi:nodetypes="ccccc" />
          <ellipse
             style="display:none;fill:#2d1f15;fill-opacity:1;stroke-width:0.10319"
             id="path2"
             cx="36.542503"
             cy="39.04858"
             transform="matrix(0.99826398,-0.05889836,0.06174437,0.998092,0,0)"
             rx="0.2838968"
             ry="0.4355289" />
          <g
             id="g40"
             inkscape:label="chewing"
             style="display:none;stroke-width:1.04005"
             transform="matrix(1.1024041,0.02809345,-0.02686154,1.1287062,-3.0202707,-5.6154732)">
            <path
               id="path40"
               style="display:inline;fill:none;stroke:#fcaa73;stroke-width:0.233005;stroke-linecap:round;stroke-linejoin:round;stroke-miterlimit:1.5;stroke-dasharray:none;stroke-opacity:1;paint-order:fill markers stroke"
               d="m 40.017696,36.502205 c 0,0 -0.402238,0.295186 -0.715247,0.312749 -0.31301,0.01756 -0.477419,-0.247384 -0.79322,-0.257947 -0.315802,-0.01056 -0.45225,0.16667 -0.45225,0.16667"
               sodipodi:nodetypes="czzc" />
            <path
               id="path41"
               style="display:inline;fill:none;stroke:#fcaa73;stroke-width:0.233005;stroke-linecap:round;stroke-linejoin:round;stroke-miterlimit:1.5;stroke-dasharray:none;stroke-opacity:1;paint-order:fill markers stroke"
               d="m 37.806679,37.367673 c 0,0 0.309845,-0.271215 0.25755,-0.593066 -0.05229,-0.321851 -0.352202,-0.537178 -0.352202,-0.537178"
               sodipodi:nodetypes="czc" />
          </g>
          <g
             id="mouth-open"
             inkscape:label="mouth"
             transform="matrix(-2.4523428,-0.10145217,-0.17343387,2.427883,132.53723,-34.725584)"
             style="display:none;stroke-width:1.04005">
            <path
               id="path18-5"
               style="fill:#000000;fill-opacity:1;stroke-width:0.529;stroke-linecap:square;stroke-miterlimit:1.5;paint-order:fill markers stroke"
               inkscape:label="mouth"
               d="m 35.494282,30.707839 c 0.02115,-0.01016 0.260526,0.01601 0.578314,0.0444 0.317787,0.02837 0.4798,0.03701 0.501075,0.05529 0.02127,0.01828 -0.06357,0.168438 -0.08406,0.214841 -0.02045,0.0464 -0.09636,0.138936 -0.121201,0.144949 -0.02489,0.006 -0.241597,0.03438 -0.368296,0.02288 -0.126699,-0.0116 -0.377847,-0.07534 -0.398537,-0.09476 -0.02069,-0.01941 -0.06713,-0.112673 -0.08242,-0.164341 -0.0153,-0.05167 -0.04602,-0.213019 -0.0249,-0.22318 z"
               sodipodi:nodetypes="zzzzzzzzzz" />
            <path
               id="path19-6"
               style="fill:#ffffff;fill-opacity:1;stroke-width:0.529;stroke-linecap:square;stroke-miterlimit:1.5;paint-order:fill markers stroke"
               inkscape:label="teeth top"
               d="m 36.072711,30.75021 c 0.311262,0.02852 0.497656,0.03993 0.512148,0.06198 0.01449,0.02204 -0.206244,0.02209 -0.229859,0.03119 -0.02362,0.0091 -0.02831,0.0922 -0.05191,0.09263 -0.0236,4.31e-4 -0.08048,-0.07003 -0.102828,-0.08274 -0.02235,-0.01272 -0.295713,-0.04002 -0.320388,-0.0318 -0.02468,0.0082 -0.06758,0.07376 -0.09026,0.07088 -0.02268,-0.0029 -0.02054,-0.08521 -0.03608,-0.101482 -0.01557,-0.01627 -0.282972,-0.04876 -0.260325,-0.08128 0.02265,-0.03252 0.268241,0.01207 0.579502,0.04065 z"
               sodipodi:nodetypes="zzzzzzzzzzz" />
            <path
               id="path20-2"
               style="fill:#ffffff;fill-opacity:1;stroke-width:0.529;stroke-linecap:square;stroke-miterlimit:1.5;paint-order:fill markers stroke"
               inkscape:label="teeth bottom"
               d="m 35.927535,31.108137 c 0.01497,-0.0051 0.07541,-0.07042 0.08998,-0.06849 0.01456,0.0019 0.07091,0.07815 0.08589,0.08942 0.01498,0.01127 0.261626,-0.0022 0.265008,0.03825 0.0034,0.04043 -0.210804,0.03659 -0.365719,0.02354 -0.154916,-0.013 -0.410586,-0.06843 -0.392571,-0.101682 0.01802,-0.03324 0.302446,0.02409 0.317412,0.0189 z"
               sodipodi:nodetypes="zzzzzzzz" />
          </g>
        </g>
        <g
           id="g12896-1-7-1"
           inkscape:label="hair"
           transform="matrix(0.99942858,-0.02294283,0.02294283,0.99942858,-1.3181625,0.70741943)"
           style="display:inline">
          <path
             id="path12890-0-3-8"
             style="fill:#aeaea3;stroke-width:1.05833;stroke-linecap:square;stroke-linejoin:round;stroke-miterlimit:1.5;paint-order:stroke fill markers"
             d="m 41.561004,29.633465 c 1.481382,0.454222 0.495825,0.168223 1.20612,1.156604 0.710295,0.988381 1.917426,3.622153 1.686294,4.881463 -0.231132,1.25931 -0.842353,2.112726 -1.324767,1.532403 -0.482414,-0.580323 -0.919483,-1.130621 -0.935437,-2.233339 -0.01595,-1.102718 -0.06428,-2.911293 -0.403826,-3.154152 -0.339544,-0.242859 -6.494362,-0.541101 -7.53935,0.260433 -1.044988,0.801534 -0.87583,2.138611 -0.835508,3.229453 0.04032,1.090843 -0.01006,2.057251 0.126569,2.778859 0.136625,0.721607 0.860883,1.122677 0.908727,2.515606 0.04784,1.39293 -0.946705,2.283574 -1.242286,2.436857 -0.295581,0.153283 -1.886488,-1.356001 -1.756324,-4.72951 0.130164,-3.373509 -0.01384,-6.869036 2.320298,-8.66554 2.334138,-1.796504 6.308055,-0.463359 7.789437,-0.0092 z"
             sodipodi:nodetypes="zzzzzzzzzzzzzzz"
             inkscape:label="hair under" />
          <path
             id="path12892-6-6-7"
             style="fill:url(#linearGradient8);fill-opacity:1;stroke-width:1.05833;stroke-linecap:square;stroke-linejoin:round;stroke-miterlimit:1.5;paint-order:stroke fill markers"
             d="m 44.659266,36.813852 c 0.0047,1.125131 -1.833402,0.561386 -1.762181,1.46046 0.07122,0.899074 1.515819,0.213816 1.592732,1.081092 0.07691,0.867276 -1.298792,0.514557 -1.289541,1.343444 0.0093,0.828887 0.800828,0.621045 1.090449,1.089926 0.289621,0.468881 0.248472,0.966 0.167472,0.967059 -0.081,0.0011 -0.392019,-0.472794 -0.518426,-0.445452 -0.126407,0.02734 -0.485561,0.462484 -0.553796,0.466534 -0.06824,0.004 -0.160921,-0.4344 0.07581,-0.995501 0.236725,-0.561101 1.174143,-0.342886 1.088989,-1.178953 -0.08515,-0.836067 -1.547524,-0.263136 -1.604451,-1.118368 -0.05693,-0.855232 1.5549,-0.540825 1.397448,-1.327571 -0.157452,-0.786746 -0.841192,-0.0144 -1.449036,-1.183139 -0.607844,-1.168743 -0.246827,-1.195658 -0.287449,-2.765867 -0.04062,-1.570209 -0.690905,-4.442473 -0.825764,-4.374561 -0.134861,0.06791 0.185157,1.643365 -0.0046,1.725914 -0.189712,0.08255 -2.266233,-0.34817 -2.48307,-0.494739 -0.216837,-0.146563 -0.224815,-1.531602 -0.42976,-1.498942 -0.204945,0.03266 0.122065,1.411576 -0.03525,1.56792 -0.157315,0.156344 -1.801587,0.130781 -2.022117,0.06448 -0.22053,-0.0663 0.156951,-1.552614 -0.0593,-1.51037 -0.216248,0.04224 -0.257721,1.295079 -0.34758,1.509163 -0.08986,0.214084 -1.495698,-0.222746 -2.479925,0.787826 -0.984227,1.010572 -0.831434,3.204054 -0.7929,4.223908 0.03854,1.019855 0.363585,3.11595 0.473223,4.449497 0.109639,1.333547 -0.05517,2.124985 -0.392692,2.38004 -0.337526,0.255055 -0.717907,-0.220753 -1.425611,-0.768197 -0.707705,-0.547444 -1.203571,-1.637721 -1.278732,-2.468381 -0.07516,-0.830659 0.236168,-1.730998 0.303628,-2.489435 0.06746,-0.758437 0.06654,-1.599446 0.0018,-2.699252 -0.06477,-1.099806 -0.353157,-1.380748 0.129754,-3.159307 0.482911,-1.778559 2.442248,-4.217817 6.538653,-4.553811 4.096405,-0.335995 7.054001,2.96845 7.440273,5.12542 0.386272,2.15697 -0.26274,3.664032 -0.25805,4.789163 z"
             sodipodi:nodetypes="zzzzzzzzzzzzzzzzzzzzzzzzzzzzzzzzzz"
             inkscape:label="hair" />
          <path
             id="path12894-3-1-9"
             style="fill:#333333;stroke-width:1.05833;stroke-linecap:square;stroke-linejoin:round;stroke-miterlimit:1.5;paint-order:stroke fill markers"
             d="m 44.447919,41.08467 c -0.06159,0.115801 -0.296531,0.181277 -0.295495,0.366684 10e-4,0.185407 0.222775,0.341272 0.209773,0.419074 -0.013,0.0778 -0.994724,0.194694 -0.964788,0.01013 0.02994,-0.1846 0.210603,-0.174858 0.161242,-0.342971 -0.04936,-0.168112 -0.295992,-0.352037 -0.34279,-0.48761 -0.0468,-0.135572 1.293645,-0.08111 1.232058,0.03469 z"
             sodipodi:nodetypes="zzzzzzzz"
             inkscape:label="hair tie" />
        </g>
      </g>
      <g
         id="g42"
         inkscape:label="beret"
         style="display:inline"
         transform="matrix(-1.6007161,0.1373772,0.1373772,1.6007161,11.584358,-38.826032)">
        <rect
           style="fill:url(#linearGradient43);fill-opacity:1;stroke-width:0.39311;paint-order:fill markers stroke"
           id="rect42"
           width="18.205696"
           height="2.472821"
           x="16.984169"
           y="33.497715"
           transform="matrix(-0.98587948,0.16745641,0.16745641,0.98587948,0,0)" />
        <path
           id="rect41"
           style="fill:#735576;stroke-width:0.39311;paint-order:fill markers stroke"
           transform="matrix(-0.98587948,0.16745641,0.16745641,0.98587948,0,0)"
           d="M 6.1478129,39.931812 C 1.8445697,39.028473 14.153689,30.199994 21.872671,28.045623 c 7.718982,-2.154371 12.160476,-0.303925 12.62824,0.365251 0.467764,0.669176 0.61059,0.686344 1.170174,1.928303 0.559584,1.241959 0.303406,5.78534 -0.362418,5.786687 -0.665825,0.0013 -2.781422,-1.010523 -8.172626,-1.072254 -5.391204,-0.06173 -16.684985,5.781541 -20.9882281,4.878202 z"
           sodipodi:nodetypes="zzzzzzz" />
        <path
           id="rect40"
           style="fill:#654b68;stroke-width:0.39311;paint-order:fill markers stroke"
           transform="matrix(-0.98587948,0.16745641,0.16745641,0.98587948,0,0)"
           d="m 13.161999,25.964108 c 4.945589,-1.950037 10.58782,-1.989507 14.319067,-0.567045 3.731248,1.422461 6.110207,1.828479 7.019845,3.013811 0.470204,0.612715 -4.352216,-0.794441 -8.625899,-0.163703 -4.273684,0.630738 -9.959656,7.350514 -13.030111,9.986543 C 9.7744459,40.869743 7.9507013,41.31483 5.190884,39.612299 2.4310667,37.909767 8.2164096,27.914144 13.161999,25.964108 Z"
           sodipodi:nodetypes="zzszzzz" />
        <ellipse
           style="display:inline;fill:#a2a2a2;fill-opacity:1;stroke-width:0.489228;paint-order:fill markers stroke"
           id="path44"
           cx="31.478476"
           cy="31.451305"
           transform="matrix(-0.98587948,0.16745641,0.16745641,0.98587948,0,0)"
           rx="2.805203"
           ry="3.5271747" />
      </g>
    </g>
  </g>
  <metadata
     id="metadata1">
    <rdf:RDF>
      <cc:License
         rdf:about="http://creativecommons.org/licenses/by-nc/4.0/">
        <cc:permits
           rdf:resource="http://creativecommons.org/ns#Reproduction" />
        <cc:permits
           rdf:resource="http://creativecommons.org/ns#Distribution" />
        <cc:requires
           rdf:resource="http://creativecommons.org/ns#Notice" />
        <cc:requires
           rdf:resource="http://creativecommons.org/ns#Attribution" />
        <cc:prohibits
           rdf:resource="http://creativecommons.org/ns#CommercialUse" />
        <cc:permits
           rdf:resource="http://creativecommons.org/ns#DerivativeWorks" />
      </cc:License>
      <cc:Work
         rdf:about="">
        <cc:license
           rdf:resource="http://creativecommons.org/licenses/by-nc/4.0/" />
      </cc:Work>
    </rdf:RDF>
  </metadata>
</svg>
