<?xml version="1.0" encoding="UTF-8" standalone="no"?>
<!-- Created with Inkscape (http://www.inkscape.org/) -->

<svg
   width="1080"
   height="1080"
   viewBox="0 0 285.75 285.75"
   version="1.1"
   id="svg1"
   inkscape:version="1.3.2 (091e20ef0f, 2023-11-25, custom)"
   sodipodi:docname="ahhh.svg"
   xml:space="preserve"
   inkscape:export-filename="ahhh.png"
   inkscape:export-xdpi="29.866667"
   inkscape:export-ydpi="29.866667"
   xmlns:inkscape="http://www.inkscape.org/namespaces/inkscape"
   xmlns:sodipodi="http://sodipodi.sourceforge.net/DTD/sodipodi-0.dtd"
   xmlns:xlink="http://www.w3.org/1999/xlink"
   xmlns="http://www.w3.org/2000/svg"
   xmlns:svg="http://www.w3.org/2000/svg"
   xmlns:rdf="http://www.w3.org/1999/02/22-rdf-syntax-ns#"
   xmlns:cc="http://creativecommons.org/ns#"><sodipodi:namedview
     id="namedview1"
     pagecolor="#ffffff"
     bordercolor="#666666"
     borderopacity="1.0"
     inkscape:showpageshadow="2"
     inkscape:pageopacity="0.0"
     inkscape:pagecheckerboard="0"
     inkscape:deskcolor="#d1d1d1"
     inkscape:document-units="px"
     inkscape:zoom="0.25606581"
     inkscape:cx="1154.0002"
     inkscape:cy="1083.7058"
     inkscape:window-width="1920"
     inkscape:window-height="1004"
     inkscape:window-x="1920"
     inkscape:window-y="1080"
     inkscape:window-maximized="1"
     inkscape:current-layer="layer1"
     showguides="true"><sodipodi:guide
       position="144.01104,-11.183967"
       orientation="1,0"
       id="guide5"
       inkscape:locked="false" /></sodipodi:namedview><defs
     id="defs1"><linearGradient
       id="linearGradient7"
       inkscape:collect="always"><stop
         style="stop-color:#ecda0e;stop-opacity:1;"
         offset="0"
         id="stop7" /><stop
         style="stop-color:#c7ba0d;stop-opacity:1;"
         offset="1"
         id="stop8" /></linearGradient><mask
       maskUnits="userSpaceOnUse"
       id="mask12"><path
         id="path13"
         style="display:inline;fill:#ffffff;stroke-width:1.0866;stroke-linecap:square;stroke-miterlimit:1.5;paint-order:fill markers stroke"
         inkscape:label="eye white right"
         d="m 35.737812,34.886578 c -0.12159,0.142368 -0.169305,0.22872 -0.18111,0.400213 -0.01181,0.171495 0.0326,0.356977 0.147229,0.462466 0.114654,0.105491 0.276331,0.169891 0.426007,0.185608 0.149694,0.01572 0.305561,0.03372 0.514009,-0.0043 0.208439,-0.03789 0.50609,-0.332516 0.573388,-0.542372 0.06731,-0.209871 0.01316,-0.252784 -0.160637,-0.397412 -0.173804,-0.144636 -0.555535,-0.300764 -0.814284,-0.28194 -0.258747,0.01882 -0.383056,0.03539 -0.50464,0.177755 z"
         sodipodi:nodetypes="zzzzzzzzzz" /></mask><mask
       maskUnits="userSpaceOnUse"
       id="mask11"><path
         id="path12"
         style="display:inline;fill:#ffffff;stroke-width:1.13618;stroke-linecap:square;stroke-miterlimit:1.5;paint-order:fill markers stroke"
         inkscape:label="eye white left"
         d="m 36.054387,35.779739 c 0.129881,0.100983 0.288304,0.131069 0.490853,0.148198 0.202552,0.01703 0.42006,-0.003 0.585694,-0.07961 0.165632,-0.0765 0.257476,-0.232374 0.335547,-0.351906 0.07809,-0.119527 0.0835,-0.284646 -0.0044,-0.440606 -0.08792,-0.155977 -0.265524,-0.270732 -0.504201,-0.324622 -0.238715,-0.05389 -0.632318,0.01862 -0.827762,0.133535 -0.195447,0.114912 -0.293877,0.239817 -0.29062,0.406519 0.0032,0.166681 0.08504,0.407528 0.214923,0.508508 z"
         sodipodi:nodetypes="zzzzzzzzzz" /></mask><linearGradient
       inkscape:collect="always"
       xlink:href="#linearGradient7"
       id="linearGradient8"
       x1="39.471596"
       y1="39.674927"
       x2="40.62606"
       y2="48.88895"
       gradientUnits="userSpaceOnUse" /><clipPath
       clipPathUnits="userSpaceOnUse"
       id="clipPath3"><path
         id="path4"
         style="fill:#ebebeb;fill-opacity:1;stroke-width:0.79375;stroke-linecap:round;stroke-linejoin:round"
         d="m 42.17481,29.42627 c 1.132704,0.327101 1.731423,0.32502 3.041752,0.254877 1.310329,-0.07014 6.339462,-1.369499 7.554539,-1.391617 1.215077,-0.02212 1.671733,3.473706 0.622738,3.895986 -1.048992,0.422279 -8.652552,2.92063 -8.60879,3.385583 0.04376,0.464953 1.99219,9.305116 2.053494,11.028703 0.0613,1.72359 -4.371984,2.711668 -6.019823,2.557929 -1.64784,-0.153738 -6.251862,-0.04919 -6.109932,-1.310456 0.14193,-1.261262 -1.031468,-10.453091 -0.97879,-11.060477 0.05268,-0.607386 -5.94954,-2.532163 -6.980234,-2.616797 -1.030693,-0.08463 -1.210868,-3.335867 -0.194763,-3.272377 1.016104,0.06349 6.410494,0.04794 7.5029,-0.06552 1.092407,-0.11347 1.909263,-0.847755 2.968085,-1.015974 1.058822,-0.168219 1.255908,0.125983 2.170203,0.04672 0.914295,-0.07927 1.845915,-0.763675 2.978618,-0.436574 z"
         sodipodi:nodetypes="zzzzzzzzzzzzzzzz" /></clipPath></defs><g
     inkscape:label="Layer 1"
     inkscape:groupmode="layer"
     id="layer1"><g
       id="g4"
       inkscape:label="integrelle"
       transform="matrix(2.2986383,-0.33273273,0.33273273,2.2986383,-469.2781,-135.33936)"><g
         id="g24"
         inkscape:label="body"
         transform="matrix(3.5751116,0.28354511,-0.28354511,3.5751116,125.91871,41.518816)"><path
           id="rect13-9"
           style="fill:#fdc29a;stroke-width:0.291042;stroke-linecap:round;stroke-linejoin:round"
           d="m 34.228984,30.823553 3.424815,-0.251154 -0.04566,1.324262 2.892343,1.108603 c 0,0 8.107506,-0.128996 8.25342,-0.16145 0.145913,-0.03245 1.113696,-0.940902 1.392113,-0.734669 0.278418,0.206233 -0.381061,0.806705 -0.350613,0.903973 0.03045,0.09727 0.674496,-0.338848 1.20612,-0.257295 0.531624,0.08155 1.284382,0.745946 1.124842,1.446065 -0.159539,0.700119 -0.671938,1.235691 -1.331617,1.303091 -0.659679,0.0674 -1.442764,-0.03281 -1.659807,-0.06571 -0.217043,-0.0329 -8.44468,2.018224 -8.44468,2.018224 l -0.286248,13.064729 c 0,0 -0.271955,4.132476 -0.772444,4.94627 -0.500489,0.813795 -1.356355,8.589925 -1.356355,8.589925 l 1.117695,2.775467 -3.71584,-0.556069 -0.448163,-3.361357 c 0,0 0.183147,-6.09121 0.300078,-8.130839 0.116931,-2.039628 0.47186,-3.793513 0.47186,-3.793513 l -2.211204,-0.21034 c 0,0 -1.032146,3.107628 -1.215982,4.078075 -0.183836,0.970447 -1.245389,7.413352 -1.245389,7.413352 l 1.120928,3.515289 -3.204656,0.04822 -0.921121,-3.45749 c 0,0 0.01798,-7.301693 0.742889,-8.832903 0.724908,-1.53121 1.23985,-5.406306 1.23985,-5.406306 l 1.000556,-10.420576 c 0,0 -8.372598,-3.027926 -9.074694,-3.07783 -0.702096,-0.0499 -1.870354,0.183074 -2.765227,0.05391 -0.894872,-0.129165 -1.550514,-0.992442 -1.600455,-1.881919 -0.04994,-0.889477 0.426144,-1.457461 1.138574,-1.685581 0.712431,-0.228119 1.498814,0.261901 1.575462,0.188339 0.07665,-0.07356 -0.699662,-0.717367 -0.184949,-1.074016 0.514714,-0.356649 1.193239,0.951225 1.470836,1.050721 0.277597,0.0995 10.819998,1.857878 10.819998,1.857878 l 1.565565,-1.322763 z"
           sodipodi:nodetypes="cccczzzzzzzcczcccczcczcccczcczzzzzzzccc"
           inkscape:label="meat" /><g
           id="g10"
           inkscape:label="shoes"
           transform="matrix(1.0798276,0,0,1.0798276,-3.1287923,-8.8152504)"><path
             id="rect10"
             style="fill:#f2f2f2;fill-opacity:1;stroke-width:1.81759;stroke-linecap:round;stroke-linejoin:round"
             d="m 33.662297,69.215362 c -0.291131,-0.64118 -1.045735,-2.185173 -1.531681,-2.74787 -0.485947,-0.562697 -1.007752,-0.822293 -1.467103,-0.899424 -0.45935,-0.07713 -1.155609,-0.203505 -1.706425,0.417347 -0.550817,0.620848 -0.401157,2.082668 -0.08205,2.824566 0.319107,0.741899 0.311413,1.441925 1.212474,1.766057 0.901061,0.324132 2.997075,0.362246 3.323154,0.1234 0.326079,-0.238849 0.542761,-0.842896 0.251632,-1.484076 z"
             sodipodi:nodetypes="zzzzzzzzz"
             inkscape:label="right" /><path
             id="path11-3"
             style="fill:#f2f2f2;fill-opacity:1;stroke-width:1.81759;stroke-linecap:round;stroke-linejoin:round"
             d="M 40.203199,69.289586 C 39.84066,68.693725 39.072103,67.257116 38.586157,66.694419 38.10021,66.131722 37.72037,65.956091 37.29742,65.850931 c -0.42295,-0.105157 -1.333975,-0.259436 -1.884791,0.361411 -0.550817,0.620848 -0.401157,2.082668 -0.08205,2.824566 0.319107,0.741899 0.687156,0.978004 1.506072,1.34606 0.818917,0.368056 2.478397,0.665642 3.129416,0.447178 0.65102,-0.218466 0.599668,-0.944699 0.237129,-1.540559 z"
             sodipodi:nodetypes="zzzzzzzzz"
             inkscape:label="left" /></g><g
           id="g21"
           inkscape:label="pants"
           transform="translate(1.0893621,1.9619305)"
           style="display:inline"><g
             id="g5908"
             inkscape:label="pants"
             style="display:inline"
             transform="matrix(0.93164865,0,0,1.1749934,2.8191115,-11.511954)"><path
               id="rect5258"
               style="fill:#1a1a1a;stroke-width:0.442996;stroke-linecap:round;stroke-linejoin:round;stroke-miterlimit:1.5;paint-order:fill markers stroke"
               inkscape:label="pants"
               d="m 34.395224,49.076639 5.042448,-0.518681 -0.282348,4.229859 c 0,0 -0.69755,2.967756 -0.694779,3.670526 0.0028,0.70277 -1.023303,4.750565 -1.274529,5.160697 -0.251226,0.410132 -3.177007,0.535234 -3.81719,0.290548 -0.640184,-0.244686 0.291932,-5.388801 0.223111,-6.068671 -0.06882,-0.679869 -0.115265,-3.234597 -0.07916,-3.560667 0.03611,-0.32607 -1.155589,-0.07976 -1.554491,0.0044 -0.398902,0.08414 -1.048026,3.30149 -1.12777,3.828597 -0.07974,0.527106 -0.39771,4.800811 -1.250059,5.554841 -0.852348,0.75403 -3.517576,0.151803 -3.779328,-0.129626 -0.261753,-0.281428 0.442081,-5.403559 0.274192,-5.879404 -0.167888,-0.475846 0.974168,-5.666933 0.974168,-5.666933 l 0.752687,-1.153048 z"
               sodipodi:nodetypes="ccczzzzzzzzzzccc" /></g></g><g
           id="g14"
           inkscape:label="shirt"
           transform="matrix(-0.95859921,0.04174419,0.04004554,0.96839874,72.286238,1.664034)"><path
             id="rect10-2"
             style="fill:#ebebeb;fill-opacity:1;stroke-width:0.79375;stroke-linecap:round;stroke-linejoin:round"
             d="m 42.17481,29.42627 c 1.132704,0.327101 1.731423,0.32502 3.041752,0.254877 1.310329,-0.07014 6.339462,-1.369499 7.554539,-1.391617 1.215077,-0.02212 1.671733,3.473706 0.622738,3.895986 -1.048992,0.422279 -8.652552,2.92063 -8.60879,3.385583 0.04376,0.464953 1.99219,9.305115 2.053494,11.028704 0.0613,1.72359 -4.371984,2.711667 -6.019823,2.557928 -1.64784,-0.153738 -6.251862,-0.04919 -6.109932,-1.310455 0.14193,-1.261263 -1.031468,-10.453092 -0.97879,-11.060478 0.05268,-0.607386 -5.94954,-2.532163 -6.980234,-2.616797 -1.030693,-0.08463 -1.210868,-3.335867 -0.194763,-3.272377 1.016104,0.06349 6.410494,0.04794 7.5029,-0.06552 1.092407,-0.11347 1.909263,-0.847755 2.968085,-1.015974 1.058822,-0.168219 1.255908,0.125983 2.170203,0.04672 0.914295,-0.07927 1.845915,-0.763675 2.978618,-0.436574 z"
             sodipodi:nodetypes="zzzzzzzzzzzzzzzz" /><path
             id="rect14"
             style="display:inline;fill:#3d3d3d;fill-opacity:1;stroke-width:0.79375;stroke-linecap:round;stroke-linejoin:round"
             d="m 28.912267,29.527984 21.683673,0.06242 c 0,0 -0.809856,8.243167 -2.711087,9.191044 -1.90123,0.947876 -1.130668,-1.495888 -2.601064,-1.261324 -1.470396,0.234564 -1.038141,4.157373 -3.020261,3.873452 -1.98212,-0.283922 -0.911922,-6.123511 -3.048901,-6.216898 -2.136978,-0.09339 -1.589661,3.965327 -3.306496,4.130952 -1.716835,0.165626 -1.472128,-2.535802 -2.61207,-2.542927 -1.139942,-0.0071 0.131504,1.671546 -1.219426,1.385814 -1.35093,-0.285731 -3.164368,-8.622535 -3.164368,-8.622535 z"
             sodipodi:nodetypes="cczzzzzzzc"
             inkscape:label="pattern"
             clip-path="url(#clipPath3)" /></g><path
           id="rect12"
           style="fill:#f2f2f2;stroke-width:0.765455;stroke-linecap:round;stroke-linejoin:round"
           d="m 38.950321,32.217223 c -0.0076,-0.130605 -0.762264,-0.777548 -0.99,-0.781039 -0.227715,-0.0035 -1.691445,0.637736 -1.672042,0.740115 0.01929,0.102428 0.04618,1.697335 0.268152,1.745589 0.221994,0.04823 2.40141,-1.57402 2.393874,-1.704663 z"
           sodipodi:nodetypes="zzzzzz" /><path
           id="rect13-9-0"
           style="fill:#f2f2f2;stroke-width:0.765455;stroke-linecap:round;stroke-linejoin:round"
           d="m 36.288279,32.176299 c -0.04672,-0.05947 -2.10236,-0.687289 -2.285332,-0.69154 -0.18298,-0.0043 -1.358763,0.447623 -1.476903,0.60552 -0.118162,0.157865 3.461463,1.974699 3.582103,1.822479 0.120636,-0.152235 0.226874,-1.676995 0.180144,-1.736443 z"
           sodipodi:nodetypes="zzzzzz" /></g><g
         id="g12898-2-9"
         inkscape:label="head"
         transform="matrix(5.5719649,0.77991791,-0.77991791,5.5719649,62.798265,-83.28082)"
         style="display:inline"><path
           id="rect19720-1"
           style="fill:#c8bd15;fill-opacity:1;stroke-width:0.157476;stroke-linecap:round;stroke-linejoin:round;stroke-miterlimit:1.5;paint-order:fill markers stroke"
           d="m 33.485462,36.697633 c -0.02458,-0.761217 8.930357,-0.88573 9.070169,-0.462104 0.139809,0.423625 -1.048679,2.591662 -1.436652,2.700925 -0.387973,0.109263 -2.169527,-0.892003 -3.069431,-0.827512 -0.899903,0.0645 -2.882269,1.216509 -3.245708,1.159288 -0.36344,-0.05722 -1.293804,-1.809381 -1.318378,-2.570597 z"
           sodipodi:nodetypes="zzzzzz" /><path
           id="path12850-2-2"
           style="fill:#fdc8a5;fill-opacity:1;stroke-width:1.04891;stroke-linecap:square;stroke-linejoin:round;stroke-miterlimit:1.5;paint-order:stroke fill markers"
           d="m 42.451293,29.354181 c 0.531778,0.482343 0.709685,1.042215 0.777972,1.620885 0.06829,0.57867 0.02695,1.176138 0.120256,1.733676 0.0933,0.557538 0.253714,1.129972 0.339775,1.688601 0.08606,0.55863 -0.225712,0.601763 -0.429823,1.104088 -0.20411,0.502325 -0.469155,0.958888 -0.879398,1.356386 -0.372871,0.361287 -0.715651,0.642098 -1.25518,0.906361 -0.539529,0.264264 -1.151399,0.713487 -1.865234,0.872654 -0.713835,0.159166 -1.452248,0.240981 -2.090088,0.195841 -0.63784,-0.04514 -1.278882,-0.343959 -1.851929,-0.549086 -0.573047,-0.205128 -1.101988,-0.490365 -1.563401,-0.855943 -0.461412,-0.365577 -0.863599,-0.62685 -1.205617,-1.110742 -0.342018,-0.48389 -0.599979,-1.016601 -0.725168,-1.577456 -0.125188,-0.560854 -0.05263,-1.152266 0.07529,-1.718923 0.127931,-0.566657 0.311239,-1.10856 0.407559,-1.5704 0.09632,-0.461839 0.0347,-0.83551 0.05656,-1.188791 0.02186,-0.35328 0.127216,-0.686172 0.557491,-1.066451 0.430275,-0.380279 1.147991,-0.461159 1.957215,-0.444664 0.809223,0.01649 1.709953,0.130367 2.506255,0.139592 0.796303,0.0092 1.797279,-0.115853 2.732124,-0.122651 0.934844,-0.0068 1.803559,0.104678 2.335337,0.587023 z"
           sodipodi:nodetypes="ssssssssssssssssssssss"
           inkscape:label="face" /><path
           id="path12852-8-7"
           style="display:inline;fill:#fdb180;fill-opacity:1;stroke-width:1.05833;stroke-linecap:square;stroke-linejoin:round;stroke-miterlimit:1.5;paint-order:stroke fill markers"
           inkscape:label="ear right"
           inkscape:transform-center-x="0.57222739"
           inkscape:transform-center-y="-0.00040558725"
           d="m 27.634686,34.427408 c -0.01172,-0.421695 1.80479,-1.729006 2.205368,-1.409787 0.400578,0.319219 0.206339,2.735224 0.0012,2.873095 -0.205139,0.137871 -2.194851,-1.041613 -2.206568,-1.463308 z"
           sodipodi:nodetypes="zzzz"
           transform="matrix(1.3809107,0,0,1.1265808,-9.2561147,-4.1681913)" /><path
           id="path12854-9-0"
           style="display:inline;fill:#fdb180;fill-opacity:1;stroke-width:1.32003;stroke-linecap:square;stroke-linejoin:round;stroke-miterlimit:1.5;paint-order:stroke fill markers"
           inkscape:label="ear left"
           inkscape:transform-center-x="-0.57222699"
           inkscape:transform-center-y="-0.00040558725"
           d="m 42.950352,32.806466 c -0.737179,0.532065 -0.548736,2.784472 0.185123,3.224309 0.733902,0.439836 3.060863,-1.27262 3.036497,-1.605707 -0.02437,-0.333087 -2.484442,-2.150667 -3.22162,-1.618602 z"
           sodipodi:nodetypes="zzzz" /><g
           id="g12888-7-9"
           inkscape:label="face feat"
           transform="matrix(1.0207242,0.02516209,-0.02576505,1.0451841,-0.269962,-2.5931045)"
           style="stroke-width:1.04005"><path
             id="path12860-1-3"
             style="display:inline;fill:#fcaa73;stroke-width:1.62472;stroke-linecap:square;stroke-linejoin:round;stroke-miterlimit:1.5;paint-order:stroke fill markers"
             inkscape:label="nose"
             d="m 39.237282,35.799356 c -0.03177,0.08993 -0.870815,0.109117 -0.926477,0.0076 -0.0557,-0.101533 0.369919,-0.805272 0.461803,-0.805408 0.09188,-1.4e-4 0.496446,0.707911 0.464674,0.797837 z"
             sodipodi:nodetypes="zzzz" /><g
             id="g30205"
             inkscape:label="eye"
             transform="matrix(-4.4892897,-0.0854499,-0.00616611,5.1444992,199.32708,-118.06661)"
             style="display:inline;stroke-width:1.04005"><path
               id="rect29546"
               style="display:inline;fill:#000000;fill-opacity:1;stroke-width:0.509947;stroke-linecap:square;stroke-miterlimit:1.5;paint-order:fill markers stroke"
               inkscape:label="eye patch"
               d="m 35.337684,30.048016 c 0.06623,0.01651 0.101085,0.01643 0.227872,0.08012 0.126787,0.06369 0.178916,0.06758 0.328926,0.01841 0.15001,-0.04917 0.426821,-0.104118 0.562324,-0.04661 0.135503,0.05751 0.165241,0.174318 0.170644,0.259686 0.0054,0.08537 -0.01995,0.178153 -0.160494,0.206551 -0.140544,0.0284 -0.275781,0.01878 -0.370529,-0.01942 -0.09475,-0.0382 -0.133288,-0.09828 -0.184242,-0.166434 -0.05095,-0.06816 -0.106017,-0.119419 -0.186774,-0.125256 -0.08076,-0.0058 -0.143274,0.06881 -0.180494,0.118332 -0.03722,0.04952 -0.10222,0.115799 -0.176059,0.125393 -0.07384,0.0096 -0.245019,0.0047 -0.300943,-0.02616 -0.05592,-0.0309 -0.127051,-0.06548 -0.158828,-0.143196 -0.03178,-0.07771 -0.03264,-0.197771 0.04226,-0.247034 0.0749,-0.04926 0.14307,-0.05027 0.184629,-0.05251 0.04156,-0.0022 0.13547,0.0016 0.201706,0.01811 z"
               sodipodi:nodetypes="zzzzzzzzzzzzzzzzz" /><g
               id="g8"
               inkscape:label="close"
               style="display:inline;stroke-width:1.04005"><path
                 id="rect7"
                 style="display:inline;fill:none;stroke:#ffffff;stroke-width:0.0568256;stroke-linecap:round;stroke-linejoin:round;stroke-dasharray:none"
                 d="m 36.504959,30.284742 c 0,0 -0.114887,-0.03828 -0.265486,-0.006 -0.150598,0.03224 -0.207779,0.08829 -0.207779,0.08829"
                 sodipodi:nodetypes="czc" /><path
                 id="path8"
                 style="display:inline;fill:none;stroke:#ffffff;stroke-width:0.0568256;stroke-linecap:round;stroke-linejoin:round;stroke-dasharray:none"
                 d="m 34.988407,30.185216 c 0,0 0.09143,-0.02682 0.252014,0.02609 0.16058,0.05292 0.20622,0.114051 0.20622,0.114051"
                 sodipodi:nodetypes="czc" /></g></g><g
             id="g12886-0-0"
             inkscape:label="lashes"
             transform="matrix(-4.5067397,-0.23649847,-0.23649847,4.5067397,208.55161,-93.54138)"
             style="display:inline;stroke-width:1.04005"><path
               id="path12882-3-2"
               style="display:inline;fill:#feed3e;fill-opacity:1;stroke-width:0.541549;stroke-linecap:square;stroke-miterlimit:1.5;paint-order:fill markers stroke"
               inkscape:label="right"
               d="m 35.970322,29.847254 c -0.02598,0.116601 -0.591474,0.07622 -0.581841,0.04065 0.0096,-0.03557 0.607818,-0.157247 0.581841,-0.04065 z"
               sodipodi:nodetypes="zzz" /><path
               id="path12884-6-3"
               style="display:inline;fill:#feed3e;fill-opacity:1;stroke-width:0.550187;stroke-linecap:square;stroke-miterlimit:1.5;paint-order:fill markers stroke"
               inkscape:label="left"
               d="m 36.33048,29.869658 c -7.46e-4,0.104373 0.590218,0.212044 0.595844,0.172959 0.0056,-0.03908 -0.595099,-0.277333 -0.595844,-0.172959 z"
               sodipodi:nodetypes="zzz" /></g><path
             id="rect25600-7"
             style="display:none;fill:#fcaa73;stroke:#fcaa73;stroke-width:0.233005;stroke-linecap:round;stroke-linejoin:round;stroke-miterlimit:1.5;stroke-dasharray:none;stroke-opacity:1;paint-order:fill markers stroke"
             d="m 40.073366,36.943865 -1.177225,-0.158704 -1.11011,0.286488 1.11011,-0.286488 z"
             sodipodi:nodetypes="ccccc" /><g
             id="g29947"
             inkscape:label="mouth"
             transform="matrix(-2.0530136,-0.10343669,-0.06405184,2.5758655,114.81409,-39.153236)"
             style="display:inline"><path
               id="rect29358"
               style="fill:#000000;fill-opacity:1;stroke-width:0.529;stroke-linecap:square;stroke-miterlimit:1.5;paint-order:fill markers stroke"
               inkscape:label="mouth"
               d="m 35.57758,30.71565 c 0.02115,-0.01016 0.177228,0.0082 0.495016,0.03659 0.317787,0.02837 0.460184,0.03063 0.481459,0.04891 0.02127,0.01828 0.06081,0.13689 0.06751,0.189884 0.0067,0.05299 -0.02805,0.172181 -0.0529,0.178194 -0.02489,0.006 -0.439473,0.01477 -0.566172,0.0032 -0.126699,-0.0116 -0.514809,-0.09423 -0.535499,-0.113645 -0.02069,-0.01941 -0.0082,-0.138596 0.0043,-0.179331 0.01245,-0.04074 0.08514,-0.153597 0.106293,-0.163758 z"
               sodipodi:nodetypes="zzzzzzzzzz" /><path
               id="path29517"
               style="fill:#ffffff;fill-opacity:1;stroke-width:0.529;stroke-linecap:square;stroke-miterlimit:1.5;paint-order:fill markers stroke"
               inkscape:label="teeth top"
               d="m 36.072711,30.75021 c 0.311262,0.02852 0.47804,0.03355 0.492532,0.0556 0.01449,0.02204 -0.09095,0.04002 -0.114565,0.04912 -0.02362,0.0091 -0.02831,0.0922 -0.05191,0.09263 -0.0236,4.31e-4 -0.08048,-0.07003 -0.102828,-0.08274 -0.02235,-0.01272 -0.447492,-0.05728 -0.472167,-0.04907 -0.02468,0.0082 -0.06758,0.07376 -0.09026,0.07088 -0.02268,-0.0029 -0.02054,-0.08521 -0.03608,-0.101482 -0.01557,-0.01627 -0.161466,-0.02628 -0.138819,-0.0588 0.02265,-0.03252 0.202836,-0.0047 0.514097,0.02388 z"
               sodipodi:nodetypes="zzzzzzzzzz" /><path
               id="path29519"
               style="fill:#ffffff;fill-opacity:1;stroke-width:0.529;stroke-linecap:square;stroke-miterlimit:1.5;paint-order:fill markers stroke"
               inkscape:label="teeth bottom"
               d="m 35.936324,31.089261 c 0.01497,-0.0051 0.07541,-0.07042 0.08998,-0.06849 0.01456,0.0019 0.07091,0.07815 0.08589,0.08942 0.01498,0.01127 0.453089,0.01861 0.456471,0.05903 0.0034,0.04043 -0.40868,0.01695 -0.563595,0.0039 -0.154916,-0.013 -0.547548,-0.08732 -0.529533,-0.120569 0.01802,-0.03324 0.445821,0.04183 0.460787,0.03664 z"
               sodipodi:nodetypes="zzzzzzzz" /></g></g><g
           id="g12896-1-7"
           inkscape:label="hair"><path
             id="path12890-0-3"
             style="fill:#aeaea3;stroke-width:1.05833;stroke-linecap:square;stroke-linejoin:round;stroke-miterlimit:1.5;paint-order:stroke fill markers"
             d="m 41.446963,29.634918 c 1.481382,0.454222 0.609866,0.16677 1.320161,1.155151 0.710295,0.988381 2.080498,2.896246 1.849366,4.155556 -0.231132,1.25931 -0.952975,2.134299 -1.435389,1.553976 -0.482414,-0.580323 -0.696113,-1.286879 -0.954768,-2.415019 -0.258655,-1.12814 -0.542038,-2.233475 -0.88158,-2.476334 -0.339544,-0.242859 -6.192469,-0.400786 -7.237457,0.400748 -1.044988,0.801534 -0.609185,1.883147 -0.592615,3.953384 0.01661,2.070238 -0.170444,5.564538 -0.08032,6.572762 0.09012,1.008223 0.75964,0.875568 0.852988,2.251032 0.09335,1.375464 -0.554513,2.548914 -0.765989,2.841372 -0.211477,0.292458 -1.443583,-2.033235 -2.062229,-7.521253 -0.618645,-5.488019 -0.02174,-8.667187 2.312394,-10.463691 2.334138,-1.796504 6.194014,-0.461906 7.675396,-0.0077 z"
             sodipodi:nodetypes="zzzzzzzzzzzzzzz"
             inkscape:label="hair under" /><path
             id="path12892-6-6"
             style="fill:url(#linearGradient8);fill-opacity:1;stroke-width:1.05833;stroke-linecap:square;stroke-linejoin:round;stroke-miterlimit:1.5;paint-order:stroke fill markers"
             d="m 36.87727,26.82137 c 4.094962,-0.450038 7.653818,3.046349 8.040068,5.203319 0.38625,2.15697 0.08558,2.899913 0.09027,4.025044 0.0047,1.125131 -1.626573,1.049871 -1.555352,1.948945 0.07122,0.899074 1.358032,0.267552 1.434945,1.134828 0.07691,0.867276 -1.2336,0.419936 -1.224349,1.248823 0.0093,0.828887 0.999571,0.920298 1.289192,1.389179 0.289621,0.468881 0.02427,0.929432 -0.05673,0.930491 -0.081,0.0011 -0.380553,-0.617812 -0.50696,-0.59047 -0.126407,0.02734 -0.373623,0.602614 -0.441858,0.606664 -0.06824,0.004 -0.345797,-0.368542 -0.109072,-0.929643 0.236725,-0.561101 1.21898,-0.684651 1.133826,-1.520718 -0.08515,-0.836067 -1.226385,-0.172151 -1.283312,-1.027383 -0.05693,-0.855232 1.307366,-0.587476 1.149914,-1.374222 -0.157452,-0.786746 -1.121216,-0.30483 -1.79481,-1.584924 -0.673594,-1.280096 -0.183326,-1.77449 -0.581492,-3.490289 -0.398167,-1.7158 -0.659222,-3.024518 -0.794081,-2.956606 -0.134861,0.06791 0.292923,1.406508 0.103215,1.489057 -0.189712,0.08255 -2.373999,-0.111313 -2.590836,-0.257882 -0.216837,-0.146563 -0.224815,-1.531602 -0.42976,-1.498942 -0.204945,0.03266 0.122065,1.411576 -0.03525,1.56792 -0.157315,0.156344 -1.801587,0.130781 -2.022117,0.06448 -0.22053,-0.0663 0.156951,-1.552614 -0.0593,-1.51037 -0.216248,0.04224 -0.257721,1.295079 -0.34758,1.509163 -0.08986,0.214084 -1.412958,-0.224662 -2.397185,0.78591 -0.984227,1.010572 -0.748116,1.925595 -0.645795,3.934227 0.102322,2.008633 -0.475124,7.093606 -0.347098,8.631251 0.128026,1.537645 0.96316,2.823269 0.625634,3.078324 -0.337526,0.255055 -0.802083,-0.05136 -1.367175,-0.410524 -0.565092,-0.359165 -1.211015,-1.625312 -1.421373,-2.857976 -0.210358,-1.232664 0.236741,-3.673617 0.233504,-5.091743 -0.0032,-1.418125 -0.153333,-3.477129 -0.287804,-4.437633 -0.13447,-0.960503 -0.21799,-1.981775 0.175978,-3.642494 0.393967,-1.660719 1.927769,-3.915773 6.022731,-4.365811 z"
             sodipodi:nodetypes="zzzzzzzzzzzzzzzzzzzzzzzzzzzzzzzzzzz"
             inkscape:label="hair" /><path
             id="path12894-3-1"
             style="fill:#333333;stroke-width:1.05833;stroke-linecap:square;stroke-linejoin:round;stroke-miterlimit:1.5;paint-order:stroke fill markers"
             d="m 43.804421,40.864826 c 0.2964,-0.105394 0.576349,-0.285129 1.015846,-0.0097 0.147129,0.09219 -0.193325,0.203193 -0.192352,0.376817 0.0011,0.19719 0.371962,0.285738 0.19377,0.370194 -0.305247,0.144675 -0.534502,0.209477 -0.943601,0.0758 -0.159558,-0.05214 0.263341,-0.198455 0.216048,-0.359516 -0.05143,-0.175164 -0.464081,-0.391557 -0.289711,-0.453558 z"
             sodipodi:nodetypes="sssssss"
             inkscape:label="hair tie" /></g></g></g></g><metadata
     id="metadata1"><rdf:RDF><cc:Work
         rdf:about=""><cc:license
           rdf:resource="http://creativecommons.org/licenses/by-nc/4.0/" /></cc:Work><cc:License
         rdf:about="http://creativecommons.org/licenses/by-nc/4.0/"><cc:permits
           rdf:resource="http://creativecommons.org/ns#Reproduction" /><cc:permits
           rdf:resource="http://creativecommons.org/ns#Distribution" /><cc:requires
           rdf:resource="http://creativecommons.org/ns#Notice" /><cc:requires
           rdf:resource="http://creativecommons.org/ns#Attribution" /><cc:prohibits
           rdf:resource="http://creativecommons.org/ns#CommercialUse" /><cc:permits
           rdf:resource="http://creativecommons.org/ns#DerivativeWorks" /></cc:License></rdf:RDF></metadata></svg>
