<?xml version="1.0" encoding="UTF-8" standalone="no"?>
<!-- Created with Inkscape (http://www.inkscape.org/) -->

<svg
   width="240"
   height="240"
   viewBox="0 0 63.499998 63.500235"
   version="1.1"
   id="svg1"
   inkscape:version="1.3.2 (091e20ef0f, 2023-11-25, custom)"
   sodipodi:docname="bunny.svg"
   inkscape:export-filename="bunny.png"
   inkscape:export-xdpi="1638.4"
   inkscape:export-ydpi="1638.4"
   xmlns:inkscape="http://www.inkscape.org/namespaces/inkscape"
   xmlns:sodipodi="http://sodipodi.sourceforge.net/DTD/sodipodi-0.dtd"
   xmlns:xlink="http://www.w3.org/1999/xlink"
   xmlns="http://www.w3.org/2000/svg"
   xmlns:svg="http://www.w3.org/2000/svg"
   xmlns:rdf="http://www.w3.org/1999/02/22-rdf-syntax-ns#"
   xmlns:cc="http://creativecommons.org/ns#">
  <sodipodi:namedview
     id="namedview1"
     pagecolor="#ffffff"
     bordercolor="#666666"
     borderopacity="1.0"
     inkscape:showpageshadow="2"
     inkscape:pageopacity="0.0"
     inkscape:pagecheckerboard="0"
     inkscape:deskcolor="#d1d1d1"
     inkscape:document-units="px"
     inkscape:zoom="1.4485269"
     inkscape:cx="45.908709"
     inkscape:cy="123.22864"
     inkscape:window-width="1920"
     inkscape:window-height="1004"
     inkscape:window-x="1920"
     inkscape:window-y="1080"
     inkscape:window-maximized="1"
     inkscape:current-layer="layer1"
     showgrid="false"
     showguides="false" />
  <defs
     id="defs1">
    <linearGradient
       id="linearGradient26"
       inkscape:collect="always">
      <stop
         style="stop-color:#fdd4b9;stop-opacity:1;"
         offset="0"
         id="stop25" />
      <stop
         style="stop-color:#fdad75;stop-opacity:1;"
         offset="1"
         id="stop26" />
    </linearGradient>
    <linearGradient
       id="linearGradient23"
       inkscape:collect="always">
      <stop
         style="stop-color:#fdd5ba;stop-opacity:1;"
         offset="0"
         id="stop23" />
      <stop
         style="stop-color:#fdad75;stop-opacity:1;"
         offset="1"
         id="stop24" />
    </linearGradient>
    <linearGradient
       id="linearGradient20"
       inkscape:collect="always">
      <stop
         style="stop-color:#fdd1b3;stop-opacity:1;"
         offset="0"
         id="stop20" />
      <stop
         style="stop-color:#fdd7be;stop-opacity:1;"
         offset="1"
         id="stop21" />
    </linearGradient>
    <linearGradient
       id="linearGradient19"
       inkscape:collect="always">
      <stop
         style="stop-color:#3c3c3c;stop-opacity:1;"
         offset="0"
         id="stop18" />
      <stop
         style="stop-color:#383838;stop-opacity:1;"
         offset="1"
         id="stop19" />
    </linearGradient>
    <linearGradient
       id="linearGradient37"
       inkscape:collect="always">
      <stop
         style="stop-color:#ecda0e;stop-opacity:1;"
         offset="0"
         id="stop37" />
      <stop
         style="stop-color:#c5b70d;stop-opacity:1;"
         offset="1"
         id="stop38" />
    </linearGradient>
    <linearGradient
       id="linearGradient27"
       inkscape:collect="always">
      <stop
         style="stop-color:#ebebeb;stop-opacity:1;"
         offset="0"
         id="stop27" />
      <stop
         style="stop-color:#cfcfcf;stop-opacity:1;"
         offset="1"
         id="stop28" />
    </linearGradient>
    <linearGradient
       inkscape:collect="always"
       xlink:href="#linearGradient19"
       id="linearGradient28"
       x1="33.179367"
       y1="39.343704"
       x2="46.192532"
       y2="42.905514"
       gradientUnits="userSpaceOnUse" />
    <clipPath
       clipPathUnits="userSpaceOnUse"
       id="clipPath32">
      <path
         id="path33"
         style="fill:#1b1b1b;fill-opacity:1;stroke-width:0.459095;stroke-linecap:round;stroke-linejoin:round"
         d="m 36.254528,49.895009 c 0.194049,-0.407057 0.831634,-0.76845 1.617945,-0.756275 0.786312,0.01218 1.145884,0.248213 1.54722,0.659509 0.401335,0.411295 1.694763,2.068258 1.701543,2.532842 0.0068,0.464583 -0.233366,1.980943 -0.77229,2.387161 -0.538924,0.406218 -1.654144,0.585893 -2.241353,0.46973 -0.587208,-0.116162 0.248768,-2.048996 0.227909,-2.613036 -0.02086,-0.564039 0.01961,-0.853913 -0.141719,-1.230923 -0.161331,-0.377011 -0.343443,-0.370861 -0.70368,-0.516997 -0.360238,-0.146136 -1.447197,0.296143 -1.519025,0.221404 -0.07183,-0.07474 0.0894,-0.746358 0.28345,-1.153415 z"
         sodipodi:nodetypes="zzzzzzzzzzz" />
    </clipPath>
    <clipPath
       clipPathUnits="userSpaceOnUse"
       id="clipPath35">
      <path
         id="path36"
         style="display:inline;fill:#ffffff;stroke-width:1.18169;stroke-linecap:square;stroke-miterlimit:1.5;paint-order:fill markers stroke"
         inkscape:label="eye white left"
         d="m 36.054386,35.779739 c 0.129881,0.100983 0.288305,0.13107 0.490854,0.148198 0.202552,0.01703 0.42006,-0.003 0.585695,-0.07961 0.165631,-0.0765 0.257474,-0.232373 0.335546,-0.351904 0.07809,-0.119529 0.0835,-0.284647 -0.0044,-0.440608 -0.08792,-0.155976 -0.265523,-0.270732 -0.5042,-0.324621 -0.238716,-0.05389 -0.632318,0.01862 -0.827763,0.133534 -0.195446,0.114914 -0.293876,0.239819 -0.29062,0.40652 0.0032,0.166682 0.08504,0.407527 0.214923,0.508508 z"
         sodipodi:nodetypes="zzzzzzzzzz" />
    </clipPath>
    <clipPath
       clipPathUnits="userSpaceOnUse"
       id="clipPath36">
      <path
         id="path37"
         style="display:inline;fill:#ffffff;stroke-width:1.13012;stroke-linecap:square;stroke-miterlimit:1.5;paint-order:fill markers stroke"
         inkscape:label="eye white right"
         d="m 35.737812,34.886578 c -0.12159,0.142368 -0.169305,0.22872 -0.181111,0.400212 -0.0118,0.171496 0.0326,0.356978 0.14723,0.462467 0.114654,0.105491 0.276331,0.169892 0.426007,0.185607 0.149693,0.01572 0.305561,0.03372 0.514009,-0.0043 0.20844,-0.03789 0.50609,-0.332515 0.573388,-0.542371 0.06731,-0.209871 0.01198,-0.309427 -0.161807,-0.454064 -0.173803,-0.144635 -0.554353,-0.244121 -0.813101,-0.225297 -0.258749,0.01882 -0.383057,0.03539 -0.504642,0.177755 z"
         sodipodi:nodetypes="zzzzzzzzzz" />
    </clipPath>
    <linearGradient
       inkscape:collect="always"
       xlink:href="#linearGradient37"
       id="linearGradient38"
       x1="39.02174"
       y1="41.14045"
       x2="40.940266"
       y2="50.311714"
       gradientUnits="userSpaceOnUse" />
    <clipPath
       clipPathUnits="userSpaceOnUse"
       id="clipPath4">
      <path
         id="path5"
         style="fill:url(#linearGradient5);stroke-width:0.793749;stroke-linecap:round;stroke-linejoin:round"
         d="m 42.174809,29.42627 c 1.132704,0.327101 3.574619,1.926841 3.77919,2.162837 0.204568,0.235996 1.209026,1.789328 1.279825,2.326791 0.0708,0.53746 -2.582656,-0.41109 -2.494374,1.004193 0.08828,1.415284 0.684354,12.954476 0.51522,13.47669 -0.169133,0.522213 -0.120282,0.879964 -0.964512,0.93615 -0.844233,0.05619 -10.952337,-0.179422 -11.051207,-0.990595 -0.09887,-0.811173 0.498749,-12.729436 0.358691,-13.10508 -0.140057,-0.375642 -2.597069,-0.407159 -2.800349,-0.761887 -0.203279,-0.354729 2.554514,-3.14125 2.931038,-3.504382 0.376524,-0.363132 2.257121,-1.249632 3.315943,-1.41785 1.058822,-0.168221 1.237622,0.388972 2.151917,0.309707 0.914295,-0.07927 1.845916,-0.763675 2.978618,-0.436574 z"
         sodipodi:nodetypes="zzzzzzzzzzzzz" />
    </clipPath>
    <linearGradient
       inkscape:collect="always"
       xlink:href="#linearGradient27"
       id="linearGradient5"
       gradientUnits="userSpaceOnUse"
       x1="33.179367"
       y1="39.343704"
       x2="46.192532"
       y2="42.905514" />
    <linearGradient
       inkscape:collect="always"
       xlink:href="#linearGradient20"
       id="linearGradient21"
       x1="39.254791"
       y1="29.628283"
       x2="39.574001"
       y2="33.474594"
       gradientUnits="userSpaceOnUse" />
    <linearGradient
       inkscape:collect="always"
       xlink:href="#linearGradient23"
       id="linearGradient24"
       x1="41.100685"
       y1="32.866402"
       x2="40.29417"
       y2="36.815601"
       gradientUnits="userSpaceOnUse" />
    <linearGradient
       inkscape:collect="always"
       xlink:href="#linearGradient26"
       id="linearGradient25"
       gradientUnits="userSpaceOnUse"
       x1="37.584454"
       y1="33.050087"
       x2="38.549175"
       y2="35.057487" />
  </defs>
  <g
     inkscape:label="Layer 1"
     inkscape:groupmode="layer"
     id="layer1">
    <g
       id="g15"
       inkscape:label="integrelle"
       transform="matrix(0.91645681,0,0,0.91645681,-8.4264527,-1.4853439)">
      <g
         id="g9"
         inkscape:label="body"
         transform="matrix(2.4736989,0,0,2.4736989,-55.248396,-12.039252)"
         style="display:inline">
        <path
           id="rect19720-1"
           style="display:inline;fill:#d8c70d;fill-opacity:1;stroke-width:0.241674;stroke-linecap:round;stroke-linejoin:round;stroke-miterlimit:1.5;paint-order:fill markers stroke"
           d="m 33.269768,25.704839 c 0.004,-1.168818 13.744919,-0.869334 13.936146,-0.211966 0.191223,0.657367 -1.750292,3.917375 -2.351306,4.063702 -0.601015,0.146327 -3.278531,-1.486879 -4.662238,-1.437256 -1.383706,0.04964 -4.487136,1.707891 -5.041406,1.600228 -0.55427,-0.107664 -1.885198,-2.845892 -1.881196,-4.014708 z"
           sodipodi:nodetypes="zzzzzz" />
        <g
           id="g26"
           inkscape:label="meat">
          <path
             id="rect11"
             style="fill:url(#linearGradient21);stroke-width:0.79375;stroke-linecap:round;stroke-linejoin:round"
             d="m 37.907837,28.124128 h 3.115935 c 0,0 -0.295243,1.818465 -0.08525,2.071811 0.209989,0.253346 3.959186,0.60276 3.959186,0.60276 l 0.391697,2.629261 -1.546912,2.328755 -9.537842,-0.187821 -1.347625,-1.788897 1.277463,-3.136875 c 0,0 3.469424,-0.356806 3.6881,-0.498137 0.218676,-0.141331 0.08525,-2.020863 0.08525,-2.020863 z"
             sodipodi:nodetypes="cczcccccczcc" />
          <path
             id="path27"
             style="fill:#745540;fill-opacity:1;stroke-width:0.79375;stroke-linecap:round;stroke-linejoin:round"
             d="m 44.453842,47.063453 c 0,0 -0.09266,4.977538 0.08669,6.334514 0.179354,1.356976 0.553064,3.351935 0.553064,3.351935 l -4.542937,-0.02026 -1.08263,-5.753465 -0.856918,-0.01812 -1.522397,6.429055 -3.845317,-0.18822 c 0,0 0.228198,-2.685516 0.425816,-4.070472 0.197618,-1.384956 0.137318,-5.656428 0.137318,-5.656428 z"
             sodipodi:nodetypes="czcccccczcc" />
        </g>
        <g
           id="g27"
           inkscape:label=":)">
          <path
             id="path24"
             style="display:none;fill:url(#linearGradient25);stroke-width:7.61399;stroke-linecap:round;stroke-linejoin:round;paint-order:stroke fill markers"
             d="m 39.067426,35.083726 c 0,1.298865 -0.505811,1.748272 -1.591022,1.748272 -1.085211,0 -2.896487,-0.528128 -2.896487,-1.826993 0,-1.298865 1.089662,-3.125899 2.568481,-3.125899 1.478819,0 1.919028,1.905755 1.919028,3.20462 z"
             sodipodi:nodetypes="zzzzz" />
          <path
             id="path23"
             style="display:none;fill:url(#linearGradient24);stroke-width:7.61399;stroke-linecap:round;stroke-linejoin:round;paint-order:stroke fill markers"
             d="m 43.679198,34.598277 c 0,1.298865 -1.352068,2.233721 -2.437279,2.233721 -1.085211,0 -2.515999,-0.239483 -2.515999,-1.538348 0,-1.298865 1.194624,-3.453905 2.857127,-3.414544 1.662502,0.03936 2.096151,1.420306 2.096151,2.719171 z"
             sodipodi:nodetypes="zzzzz" />
        </g>
        <g
           id="g14"
           inkscape:label="shirt"
           style="display:inline">
          <path
             id="rect10"
             style="fill:url(#linearGradient28);stroke-width:0.79375;stroke-linecap:round;stroke-linejoin:round"
             d="m 44.048853,34.308049 c 0.217798,0.443013 -0.04,1.121385 -0.07186,1.455702 -0.03181,0.334317 -0.585266,3.562401 -0.416533,6.618181 0.168732,3.055781 1.282051,4.58002 0.890496,5.007988 -0.391555,0.427968 -1.647148,0.848087 -2.801912,1.820052 -1.154764,0.971965 -1.730702,1.955448 -2.705464,1.940927 -0.974762,-0.01452 -1.537235,-1.177315 -2.511061,-2.156222 -0.973826,-0.978907 -2.694099,-1.251243 -2.739962,-1.627517 -0.04586,-0.376274 0.873348,-2.004406 0.993033,-5.367231 0.119685,-3.362825 -0.549676,-6.051897 -0.679065,-6.370065 -0.129388,-0.318168 -0.05976,-1.094699 0.430117,-1.803883 0.48988,-0.709185 2.207222,-1.5221 2.421337,-1.485461 0.214115,0.03664 0.276178,0.801834 0.864309,1.676176 0.58813,0.874341 1.013502,1.734888 1.103339,1.547974 0.08984,-0.186913 0.277875,-0.712461 0.809685,-1.788542 0.53181,-1.076081 1.74495,-1.702587 1.993951,-1.647891 0.249001,0.05469 2.20179,1.736798 2.419586,2.179811 z"
             sodipodi:nodetypes="zzzzzzzzzzzzzzzzzz" />
          <path
             id="rect14"
             style="display:none;fill:#3d3d3d;fill-opacity:1;stroke-width:0.79375;stroke-linecap:round;stroke-linejoin:round"
             d="m 28.12915,29.590406 h 22.46679 c 0,0 -0.809856,8.243167 -2.711087,9.191044 -1.90123,0.947876 -1.130668,-1.495888 -2.601064,-1.261324 -1.470396,0.234564 -1.038141,4.157373 -3.020261,3.873452 -1.98212,-0.283922 -0.911922,-6.123511 -3.048901,-6.216898 -2.136978,-0.09339 -1.589661,3.965327 -3.306496,4.130952 -1.716835,0.165626 -1.472128,-2.535802 -2.61207,-2.542927 -1.139942,-0.0071 -0.651613,1.733968 -2.002543,1.448236 -1.35093,-0.285731 -3.164368,-8.622535 -3.164368,-8.622535 z"
             sodipodi:nodetypes="cczzzzzzzc"
             inkscape:label="pattern"
             clip-path="url(#clipPath4)" />
        </g>
        <path
           id="rect12"
           style="display:inline;fill:#f2f2f2;stroke-width:0.79375;stroke-linecap:round;stroke-linejoin:round"
           d="m 36.513859,30.449207 c 0.0022,-0.134999 1.034171,-0.655375 1.271162,-0.669196 0.236991,-0.01382 1.408844,0.428704 1.393048,0.535106 -0.0158,0.106402 -0.138492,1.252732 -0.367572,1.312431 -0.229076,0.0597 -2.298857,-1.043342 -2.296638,-1.178341 z"
           sodipodi:nodetypes="zzzzz" />
        <path
           id="rect13"
           style="display:inline;fill:#f2f2f2;stroke-width:0.79375;stroke-linecap:round;stroke-linejoin:round"
           d="m 39.178069,30.315117 c 0.04609,-0.06338 1.64549,-0.539491 1.794251,-0.493867 0.148761,0.04562 1.161703,0.547454 1.291532,0.704883 0.129829,0.157428 -2.83702,1.281302 -2.9692,1.129812 -0.13218,-0.151489 -0.162672,-1.277452 -0.116583,-1.340828 z"
           sodipodi:nodetypes="zzzzz" />
        <g
           id="g28"
           inkscape:label="reflect"
           transform="matrix(0.42289433,0,0,0.42289433,21.516184,3.837232)">
          <path
             id="path21"
             style="fill:#ffffff;stroke-width:16.8864;stroke-linecap:round;stroke-linejoin:round;paint-order:stroke fill markers"
             d="m 52.521865,98.530047 c 0,0 -2.600888,-5.276934 -2.600888,-8.410694 0,-3.13376 1.625655,-8.468885 1.625655,-8.468885 0,0 -0.461728,5.247835 -0.461726,8.381595 2e-6,3.13375 1.436959,8.497984 1.436959,8.497984 z"
             sodipodi:nodetypes="czczc" />
          <path
             id="path22"
             style="fill:#ffffff;stroke-width:16.8864;stroke-linecap:round;stroke-linejoin:round;paint-order:stroke fill markers"
             d="m 37.560644,71.640554 c 0.617268,0.994897 2.494314,3.530316 2.494314,3.530316 0,0 -2.35466,-1.741355 -3.033655,-3.127188 -0.678994,-1.385834 -1.004685,-4.039557 -1.004685,-4.039557 0,0 0.926758,2.641532 1.544026,3.636429 z"
             sodipodi:nodetypes="zczcz" />
          <path
             id="path28"
             style="fill:#ffffff;stroke-width:16.8864;stroke-linecap:round;stroke-linejoin:round;paint-order:stroke fill markers"
             d="m 44.592827,71.137693 c -1.035098,1.567589 -2.53553,4.246461 -2.53553,4.246461 0,0 0.519525,-2.367463 1.92678,-4.534254 1.407256,-2.16679 3.710829,-3.168684 3.710829,-3.168684 0,0 -2.066981,1.888888 -3.102079,3.456477 z"
             sodipodi:nodetypes="zczcz" />
        </g>
      </g>
      <g
         id="g1"
         inkscape:label="boater bottom"
         transform="matrix(1.9357034,0.10757701,-0.10757701,1.9357034,-33.447725,-10.780379)"
         style="display:none">
        <g
           id="g2"
           inkscape:label="base"
           style="display:inline">
          <path
             id="path1"
             style="fill:#363636;stroke-width:0.79375;stroke-linecap:round;stroke-linejoin:round"
             d="M 37.214284,8.5528833 C 31.221468,8.8253961 26.713509,10.003778 26.713509,11.416076 l 3e-6,0.105718 c 0,1.614056 5.888066,2.922525 13.151316,2.922525 7.263249,0 13.151379,-1.308348 13.151379,-2.922403 l -1.7e-5,-0.105984 c 0,-1.6140555 -5.88805,-2.9222582 -13.151301,-2.9222582 -0.907906,0 -1.794488,0.020279 -2.650605,0.059209 z" />
        </g>
      </g>
      <g
         id="g12898-2-9"
         inkscape:label="head"
         transform="matrix(3.6211034,0.1293106,-0.1293106,3.6211034,-88.264875,-85.190439)"
         style="display:inline">
        <path
           id="path12"
           style="display:inline;fill:#fdc8a5;fill-opacity:1;stroke-width:1.04891;stroke-linecap:square;stroke-linejoin:round;stroke-miterlimit:1.5;paint-order:stroke fill markers"
           d="m 42.451293,29.354181 c 0.378209,0.318668 0.836416,1.684721 0.832624,2.604782 -0.0038,0.920061 0.480888,1.99483 0.415161,2.704666 -0.06573,0.709836 -0.356057,0.672117 -0.699379,1.38291 -0.343322,0.710793 -1.13415,1.256984 -1.921261,1.685645 -0.787112,0.428661 -1.736064,0.850227 -2.561471,0.95754 -0.825406,0.107313 -1.782294,0.179328 -2.640449,-0.0879 -0.858154,-0.267227 -1.859595,-0.837751 -2.803458,-1.571732 -0.943864,-0.733981 -1.480174,-2.484772 -1.239489,-3.688579 0.240685,-1.203807 0.612079,-1.961254 0.524213,-2.878864 -0.08787,-0.91761 0.303548,-1.505438 1.462318,-1.650634 1.15877,-0.145196 3.170943,0.149596 4.531633,0.04482 1.36069,-0.104776 2.981133,-0.07078 3.641776,0.201176 0.660643,0.271952 0.322576,0.173375 0.457782,0.296168 0,0 -0.378209,-0.318667 0,2e-6 z"
           inkscape:label="face"
           sodipodi:nodetypes="zzzzzzzzzzzzzsz" />
        <path
           id="path12850-2-2"
           style="fill:#fdc8a6;fill-opacity:1;stroke-width:1.04891;stroke-linecap:square;stroke-linejoin:round;stroke-miterlimit:1.5;paint-order:stroke fill markers"
           d="m 42.451293,29.354181 c 0.378209,0.318668 0.836416,1.684721 0.832624,2.604782 -0.0038,0.920061 0.480888,1.99483 0.415161,2.704666 -0.06573,0.709836 -0.356057,0.672117 -0.699379,1.38291 -0.343322,0.710793 -1.13415,1.256984 -1.921261,1.685645 -0.787112,0.428661 -1.736064,0.850227 -2.561471,0.95754 -0.825406,0.107313 -1.782294,0.179328 -2.640449,-0.0879 -0.858154,-0.267227 -1.859595,-0.837751 -2.803458,-1.571732 -0.943864,-0.733981 -1.480174,-2.484772 -1.239489,-3.688579 0.240685,-1.203807 0.612079,-1.961254 0.524213,-2.878864 -0.08787,-0.91761 0.303548,-1.505438 1.462318,-1.650634 1.15877,-0.145196 3.170943,0.149596 4.531633,0.04482 1.36069,-0.104776 2.981133,-0.07078 3.641776,0.201176 0.660643,0.271952 0.322576,0.173375 0.457782,0.296168 0,0 -0.378209,-0.318667 0,2e-6 z"
           inkscape:label="face"
           sodipodi:nodetypes="zzzzzzzzzzzzzsz" />
        <path
           id="path12852-8-7"
           style="display:inline;fill:#fdac77;fill-opacity:1;stroke-width:1.05833;stroke-linecap:square;stroke-linejoin:round;stroke-miterlimit:1.5;paint-order:stroke fill markers"
           inkscape:label="ear right"
           inkscape:transform-center-x="0.57222739"
           inkscape:transform-center-y="-0.00040558725"
           d="m 27.634686,34.427408 c -0.01172,-0.421695 1.80479,-1.729006 2.205368,-1.409787 0.400578,0.319219 0.206339,2.735224 0.0012,2.873095 -0.205139,0.137871 -2.194851,-1.041613 -2.206568,-1.463308 z"
           sodipodi:nodetypes="zzzz"
           transform="matrix(1.3809107,0,0,1.1265808,-9.2561147,-4.1681913)" />
        <path
           id="path12854-9-0"
           style="display:inline;fill:#fdac77;fill-opacity:1;stroke-width:1.32003;stroke-linecap:square;stroke-linejoin:round;stroke-miterlimit:1.5;paint-order:stroke fill markers"
           inkscape:label="ear left"
           inkscape:transform-center-x="-0.57222699"
           inkscape:transform-center-y="-0.00040558725"
           d="m 46.385437,34.426068 c -0.02439,-0.333087 -2.697907,-2.151667 -3.435085,-1.619602 -0.737179,0.532065 -0.735559,2.796937 -0.0017,3.236774 0.733902,0.439836 3.461127,-1.284085 3.436743,-1.617172 z"
           sodipodi:nodetypes="zzzz" />
        <g
           id="g12888-7-9"
           inkscape:label="face feat"
           transform="matrix(1.0207242,0.02516209,-0.02576505,1.0451841,-1.8440369,-2.6978755)"
           style="stroke-width:1.04005">
          <path
             id="path12860-1-3"
             style="display:inline;fill:#fcb17e;fill-opacity:1;stroke-width:1.62472;stroke-linecap:square;stroke-linejoin:round;stroke-miterlimit:1.5;paint-order:stroke fill markers"
             inkscape:label="nose"
             d="m 39.237282,35.799356 c -0.03177,0.08993 -0.870815,0.109117 -0.926477,0.0076 -0.0557,-0.101533 0.369919,-0.805272 0.461803,-0.805408 0.09188,-1.4e-4 0.496446,0.707911 0.464674,0.797837 z"
             sodipodi:nodetypes="zzzz" />
          <g
             id="g30205"
             inkscape:label="eye"
             transform="matrix(-4.4892897,-0.0854499,-0.00616611,5.1444992,199.32708,-118.06661)"
             style="display:inline;stroke-width:1.04005">
            <path
               id="rect29546"
               style="display:inline;fill:#000000;fill-opacity:1;stroke-width:0.509947;stroke-linecap:square;stroke-miterlimit:1.5;paint-order:fill markers stroke"
               inkscape:label="eye patch"
               d="m 35.337684,30.048016 c 0.06623,0.01651 0.101085,0.01643 0.227872,0.08012 0.126787,0.06369 0.178916,0.06758 0.328926,0.01841 0.15001,-0.04917 0.401377,-0.0886 0.553346,-0.03457 0.151969,0.05403 0.164435,0.15621 0.161522,0.244462 -0.0029,0.08825 -0.06085,0.173417 -0.201396,0.201815 -0.140544,0.0284 -0.216779,0.0267 -0.311527,-0.0115 -0.09475,-0.0382 -0.133288,-0.09828 -0.184242,-0.166434 -0.05095,-0.06816 -0.106017,-0.119419 -0.186774,-0.125256 -0.08076,-0.0058 -0.143274,0.06881 -0.180494,0.118332 -0.03722,0.04952 -0.10222,0.115799 -0.176059,0.125393 -0.07384,0.0096 -0.229985,0.0023 -0.300943,-0.02616 -0.07096,-0.02847 -0.127051,-0.06548 -0.158828,-0.143196 -0.03178,-0.07771 -0.03264,-0.197771 0.04226,-0.247034 0.0749,-0.04926 0.14307,-0.05027 0.184629,-0.05251 0.04156,-0.0022 0.13547,0.0016 0.201706,0.01811 z"
               sodipodi:nodetypes="zzzzzzzzzzzzzzzzz" />
            <g
               id="g7"
               inkscape:label="open"
               style="display:none;stroke-width:1.04005">
              <path
                 id="path35304"
                 style="display:inline;fill:#ffffff;stroke-width:0.381053;stroke-linecap:square;stroke-miterlimit:1.5;paint-order:fill markers stroke"
                 inkscape:label="eye white right"
                 d="m 36.488857,30.202328 c 0.04143,0.04741 0.05722,0.07565 0.05882,0.130089 0.0016,0.05444 -0.01718,0.112186 -0.05992,0.143256 -0.04275,0.03107 -0.101737,0.04822 -0.155671,0.05022 -0.05394,0.002 -0.11013,0.0046 -0.184321,-0.01156 -0.07419,-0.01611 -0.176438,-0.115135 -0.197355,-0.1828 -0.02092,-0.06767 4.58e-4,-0.09804 0.06502,-0.140311 0.06457,-0.04227 0.202611,-0.06617 0.295141,-0.05509 0.09253,0.01108 0.136868,0.01878 0.178296,0.06619 z"
                 sodipodi:nodetypes="zzzzzzzzzz" />
              <path
                 id="path35306"
                 style="display:inline;fill:#ffffff;stroke-width:0.387611;stroke-linecap:square;stroke-miterlimit:1.5;paint-order:fill markers stroke"
                 inkscape:label="eye white left"
                 d="m 35.439622,30.418755 c -0.0464,0.02886 -0.101604,0.03516 -0.171864,0.03659 -0.07026,0.0014 -0.145134,-0.009 -0.201234,-0.03596 -0.0561,-0.02693 -0.08983,-0.07007 -0.110704,-0.115701 -0.02087,-0.04564 -0.0246,-0.08998 0.0081,-0.136716 0.03272,-0.04674 0.09582,-0.07896 0.179117,-0.09111 0.08331,-0.01215 0.21826,0.01792 0.284089,0.05735 0.06583,0.03943 0.09798,0.0801 0.09436,0.131795 -0.0036,0.05169 -0.03549,0.124897 -0.08189,0.153756 z"
                 sodipodi:nodetypes="zzzzzzzzzz" />
              <g
                 id="g35470"
                 inkscape:label="pupil"
                 transform="matrix(-0.35872427,-0.01982705,-0.015364,0.3160773,49.844875,19.884048)"
                 style="display:inline;stroke-width:1.04005"
                 mask="none"
                 clip-path="url(#clipPath36)">
                <path
                   id="path35360"
                   style="fill:#d99dd9;fill-opacity:1;stroke-width:1.10072;stroke-linecap:square;stroke-linejoin:round;stroke-miterlimit:1.5;paint-order:stroke fill markers"
                   d="m 36.472686,35.804292 c -0.06952,0.09239 -0.166359,0.169122 -0.272994,0.21449 -0.106635,0.04537 -0.228489,0.06306 -0.343664,0.04926 -0.115175,-0.0138 -0.229398,-0.05991 -0.32225,-0.129174 -0.09285,-0.06927 -0.168843,-0.16681 -0.21449,-0.272993 -0.04565,-0.106183 -0.06304,-0.229021 -0.04926,-0.343665 0.01378,-0.114644 0.05966,-0.229865 0.129174,-0.32225 0.06952,-0.09239 0.166359,-0.169122 0.272993,-0.21449 0.106634,-0.04537 0.228489,-0.06306 0.343664,-0.04926 0.115175,0.0138 0.229398,0.05991 0.322251,0.129174 0.09285,0.06927 0.168843,0.16681 0.21449,0.272993 0.04565,0.106183 0.06304,0.22902 0.04926,0.343664 -0.01378,0.114644 -0.05965,0.229866 -0.129174,0.322251 z"
                   sodipodi:nodetypes="zzzzzzzzzzzzz"
                   mask="none" />
                <path
                   id="path35466"
                   style="fill:#333333;fill-opacity:1;stroke-width:0.946137;stroke-linecap:square;stroke-linejoin:round;stroke-miterlimit:1.5;paint-order:stroke fill markers"
                   d="m 36.291685,35.678958 c -0.04572,0.05884 -0.108874,0.107304 -0.178036,0.135475 -0.06916,0.02817 -0.14785,0.03834 -0.221921,0.02831 -0.07407,-0.01003 -0.14721,-0.04089 -0.206343,-0.08645 -0.05913,-0.04555 -0.107129,-0.109167 -0.135475,-0.178036 -0.02835,-0.06887 -0.03834,-0.148191 -0.02831,-0.221921 0.01003,-0.07373 0.04073,-0.147509 0.08645,-0.206343 0.04572,-0.05884 0.108873,-0.107303 0.178035,-0.135474 0.06916,-0.02817 0.147849,-0.03834 0.221921,-0.02831 0.07407,0.01003 0.14721,0.04089 0.206343,0.08644 0.05913,0.04555 0.107128,0.109167 0.135474,0.178036 0.02835,0.06887 0.03834,0.148192 0.02831,0.221921 -0.01003,0.07373 -0.04073,0.147509 -0.08645,0.206343 z"
                   sodipodi:nodetypes="zzzzzzzzzzzzzz"
                   mask="none" />
                <ellipse
                   style="display:none;fill:#ffffff;fill-opacity:1;stroke-width:0.0645672"
                   id="path3"
                   cx="35.956913"
                   cy="35.770908"
                   transform="matrix(0.9998947,-0.01451168,0.02083119,0.99978301,0,0)"
                   rx="0.20839196"
                   ry="0.20149492" />
              </g>
              <g
                 id="g35479"
                 inkscape:label="pupil"
                 transform="matrix(-0.34561527,-0.01919635,-0.01496354,0.31048037,48.43596,20.001961)"
                 style="display:inline;stroke-width:1.04005"
                 mask="none"
                 clip-path="url(#clipPath35)">
                <path
                   id="path35475"
                   style="fill:#d99dd9;fill-opacity:1;stroke-width:1.10072;stroke-linecap:square;stroke-linejoin:round;stroke-miterlimit:1.5;paint-order:stroke fill markers"
                   d="m 36.719712,35.812355 c -0.06961,0.09227 -0.166213,0.169188 -0.272994,0.21449 -0.106781,0.0453 -0.228326,0.06304 -0.343664,0.04926 -0.115338,-0.01378 -0.229266,-0.05999 -0.32225,-0.129174 -0.09298,-0.06918 -0.168781,-0.166935 -0.21449,-0.272993 -0.04571,-0.106058 -0.06305,-0.229158 -0.04926,-0.343665 0.01379,-0.114507 0.05957,-0.22998 0.129174,-0.32225 0.06961,-0.09227 0.166212,-0.169188 0.272993,-0.21449 0.106781,-0.0453 0.228326,-0.06304 0.343664,-0.04926 0.115338,0.01378 0.229267,0.05999 0.322251,0.129174 0.09298,0.06918 0.168781,0.166936 0.21449,0.272993 0.04571,0.106057 0.06305,0.229157 0.04926,0.343664 -0.01379,0.114507 -0.05957,0.229981 -0.129174,0.322251 z"
                   sodipodi:nodetypes="zzzzzzzzzzzzz"
                   mask="none" />
                <path
                   id="path35477"
                   style="fill:#333333;fill-opacity:1;stroke-width:0.916746;stroke-linecap:square;stroke-linejoin:round;stroke-miterlimit:1.5;paint-order:stroke fill markers"
                   d="m 36.512149,35.681056 c -0.04436,0.05693 -0.105399,0.104011 -0.172505,0.131267 -0.0671,0.02726 -0.143154,0.03714 -0.215027,0.02743 -0.07188,-0.0097 -0.142556,-0.03968 -0.199932,-0.08376 -0.05738,-0.04408 -0.103764,-0.105855 -0.131267,-0.172505 -0.0275,-0.06665 -0.03715,-0.143673 -0.02743,-0.215027 0.0097,-0.07135 0.0394,-0.142998 0.08376,-0.199933 0.04436,-0.05693 0.105399,-0.10401 0.172505,-0.131266 0.0671,-0.02726 0.143154,-0.03714 0.215027,-0.02743 0.07188,0.0097 0.142556,0.03968 0.199933,0.08376 0.05738,0.04408 0.103763,0.105854 0.131266,0.172505 0.0275,0.06665 0.03715,0.143673 0.02743,0.215027 -0.0097,0.07135 -0.0394,0.142997 -0.08376,0.199932 z"
                   sodipodi:nodetypes="zzzzzzzzzzzzz"
                   mask="none" />
                <ellipse
                   style="display:none;fill:#ffffff;fill-opacity:1;stroke-width:0.0663711"
                   id="ellipse6"
                   cx="35.982109"
                   cy="35.75745"
                   transform="matrix(0.99990294,-0.01393268,0.02160763,0.99976653,0,0)"
                   rx="0.21629041"
                   ry="0.20513658" />
              </g>
            </g>
            <g
               id="g8"
               inkscape:label="close"
               style="display:inline;stroke-width:1.04005">
              <path
                 id="rect7"
                 style="display:inline;fill:none;stroke:#ffffff;stroke-width:0.0568256;stroke-linecap:round;stroke-linejoin:round;stroke-dasharray:none"
                 d="m 36.510174,30.25202 c 0,0 -0.148207,0.0099 -0.273181,0.02525 -0.124982,0.01539 -0.226174,0.06386 -0.226174,0.06386"
                 sodipodi:nodetypes="czc" />
              <path
                 id="path8"
                 style="display:inline;fill:none;stroke:#ffffff;stroke-width:0.0568256;stroke-linecap:round;stroke-linejoin:round;stroke-dasharray:none"
                 d="m 34.983628,30.157724 c 0,0 0.130635,0.01265 0.284979,0.06341 0.154343,0.05076 0.192963,0.0815 0.192963,0.0815 0,0 -0.03711,-0.02913 -0.192963,-0.0815 -0.155859,-0.05239 -0.284979,-0.06341 -0.284979,-0.06341 z"
                 sodipodi:nodetypes="czczc" />
            </g>
          </g>
          <g
             id="g12886-0-0"
             inkscape:label="lashes"
             transform="matrix(-4.5067397,-0.23649847,-0.23649847,4.5067397,208.55161,-93.54138)"
             style="display:inline;stroke-width:1.04005">
            <path
               id="path12882-3-2"
               style="display:inline;fill:#f2e226;fill-opacity:1;stroke-width:0.541549;stroke-linecap:square;stroke-miterlimit:1.5;paint-order:fill markers stroke"
               inkscape:label="right"
               d="m 35.985089,29.839542 c -0.02656,0.116475 -0.59186,0.07337 -0.582046,0.03785 0.0098,-0.03552 0.60861,-0.154323 0.582046,-0.03785 z"
               sodipodi:nodetypes="zzz" />
            <path
               id="path12884-6-3"
               style="display:inline;fill:#f2e226;fill-opacity:1;stroke-width:0.550187;stroke-linecap:square;stroke-miterlimit:1.5;paint-order:fill markers stroke"
               inkscape:label="left"
               d="m 36.325252,29.860696 c 0.0026,0.104356 0.596744,0.193718 0.601101,0.154475 0.0044,-0.03924 -0.603736,-0.258831 -0.601101,-0.154475 z"
               sodipodi:nodetypes="zzz" />
          </g>
          <path
             id="rect25600-7"
             style="display:inline;fill:none;stroke:#fcb17e;stroke-width:0.233005;stroke-linecap:round;stroke-linejoin:round;stroke-miterlimit:1.5;stroke-dasharray:none;stroke-opacity:1;paint-order:fill markers stroke"
             d="m 40.018457,36.711685 -0.529894,-0.248165 -0.621788,0.32286 -0.643353,-0.252219 -0.470957,0.310711"
             sodipodi:nodetypes="ccccc" />
          <ellipse
             style="display:none;fill:#2d1f15;fill-opacity:1;stroke-width:0.10319"
             id="path2"
             cx="36.542503"
             cy="39.04858"
             transform="matrix(0.99826398,-0.05889836,0.06174437,0.998092,0,0)"
             rx="0.34346935"
             ry="0.4355289" />
        </g>
        <g
           id="g12896-1-7"
           inkscape:label="hair">
          <path
             id="path12890-0-3"
             style="display:inline;fill:#aeaea3;stroke-width:1.05833;stroke-linecap:square;stroke-linejoin:round;stroke-miterlimit:1.5;paint-order:stroke fill markers"
             d="m 41.154782,29.633549 c 1.481382,0.454222 0.902047,0.168139 1.612342,1.15652 0.710295,0.988381 1.673881,2.642649 1.442749,3.901959 -0.231132,1.25931 -1.240588,1.786804 -1.723002,1.206481 -0.482414,-0.580323 -1.045733,-1.125511 -1.304388,-2.253651 -0.258655,-1.12814 -0.08255,-1.796489 -0.422092,-2.039348 -0.339544,-0.242859 -6.863624,-0.331122 -7.908612,0.470412 -1.044988,0.801534 -0.645865,1.903335 -0.667462,2.866059 -0.0216,0.962723 0.05964,1.643623 0.147251,2.155779 0.08761,0.512156 0.525557,0.787909 0.478327,1.942092 -0.04723,1.154183 -0.681145,1.946196 -0.776765,2.080499 -0.09562,0.134303 -1.244505,-0.92155 -1.25845,-6.192666 -0.01394,-5.271117 0.662701,-3.488579 2.996839,-5.285083 2.334138,-1.796504 5.901833,-0.463275 7.383215,-0.0091 z"
             sodipodi:nodetypes="zzzzzzzzzzzzzzz"
             inkscape:label="hair under" />
          <path
             id="path12892-6-6"
             style="fill:url(#linearGradient38);fill-opacity:1;stroke-width:1.05833;stroke-linecap:square;stroke-linejoin:round;stroke-miterlimit:1.5;paint-order:stroke fill markers"
             d="m 36.87727,26.82137 c 4.094962,-0.450038 7.423837,2.972001 7.737447,5.021483 0.313611,2.049483 -0.03473,3.090177 -0.218018,3.960577 -0.183283,0.8704 -1.503327,0.435165 -1.461308,1.094478 0.04202,0.659313 1.389942,0.325868 1.429064,0.905532 0.03912,0.579664 -1.35072,0.505332 -1.308093,1.112864 0.04263,0.607532 0.918429,0.255482 1.20805,0.724363 0.289621,0.468881 0.09244,0.979801 -0.01063,1.05744 -0.103075,0.07764 -0.342431,-0.529978 -0.468838,-0.502636 -0.126407,0.02734 -0.158311,0.622485 -0.30569,0.642209 -0.147379,0.01972 -0.40953,-0.89928 -0.164217,-1.219884 0.245313,-0.320604 1.030501,-0.342945 0.977497,-0.856795 -0.053,-0.513851 -1.268361,-0.250693 -1.282591,-0.873527 -0.01423,-0.622833 1.266234,-0.431543 1.189275,-1.083561 -0.07696,-0.652019 -1.282484,-0.09193 -1.89361,-0.985055 -0.611125,-0.89313 -0.123274,-1.208033 -0.52144,-2.923832 -0.398167,-1.7158 -0.330193,-2.902892 -0.465052,-2.83498 -0.134861,0.06791 -0.255644,0.92225 -0.445352,1.004799 -0.189712,0.08255 -1.805717,-0.141116 -2.022554,-0.287685 -0.216837,-0.146563 -0.18835,-1.244548 -0.393295,-1.211888 -0.204945,0.03266 0.0856,1.124522 -0.07171,1.280866 -0.157315,0.156344 -1.801587,0.130781 -2.022117,0.06448 -0.22053,-0.0663 0.193416,-1.26556 -0.02284,-1.223316 -0.216248,0.04224 -0.294186,1.008025 -0.384045,1.222109 -0.08986,0.214084 -2.729798,0.292485 -3.482638,1.054527 -0.75284,0.762041 -0.529396,2.226773 -0.549281,3.125194 -0.01989,0.89842 -0.363059,2.993516 -0.323801,3.834884 0.03926,0.841367 0.562727,2.152983 0.431699,2.196335 -0.131027,0.04335 -0.845341,-0.324251 -1.25511,-0.762663 -0.409768,-0.438413 -1.032308,-0.577871 -1.027561,-1.789426 0.0047,-1.211554 0.265996,-1.259958 0.301628,-1.893575 0.03563,-0.633617 -0.170377,-1.531342 -0.181627,-2.05727 -0.01125,-0.525929 -0.105569,-1.217102 0.16006,-2.599206 0.26563,-1.382104 2.751768,-4.746804 6.84673,-5.196842 z"
             sodipodi:nodetypes="zzzzzzzzzzzzzzzzzzzzzzzzzzzzzzzzzzz"
             inkscape:label="hair" />
          <path
             id="path12894-3-1"
             style="fill:#333333;stroke-width:1.05833;stroke-linecap:square;stroke-linejoin:round;stroke-miterlimit:1.5;paint-order:stroke fill markers"
             d="m 43.084339,39.012622 c 0.2964,-0.105394 0.749025,-0.325972 1.188522,-0.05058 0.147129,0.09219 -0.29369,0.192906 -0.292717,0.36653 0.0011,0.19719 0.49909,0.213465 0.308119,0.324685 -0.38499,0.224214 -0.620071,0.397229 -1.052266,0.159679 -0.147106,-0.08085 0.180633,-0.23716 0.13334,-0.398221 -0.05143,-0.175164 -0.459368,-0.340093 -0.284998,-0.402093 z"
             sodipodi:nodetypes="sssssss"
             inkscape:label="hair tie" />
        </g>
      </g>
      <g
         id="g10"
         inkscape:label="bunny ears"
         transform="matrix(2.2735771,0.1263544,-0.1263544,2.2735771,-45.332284,-4.9164495)"
         style="display:inline">
        <g
           id="g6"
           inkscape:label="base"
           style="display:inline">
          <path
             id="path6"
             style="fill:#363636;stroke-width:0.79375;stroke-linecap:round;stroke-linejoin:round"
             d="m 27.76235,16.780011 c 0.01882,0.374484 4.33898,-7.5222124 11.602223,-7.5118214 8.135775,0.01164 11.899779,7.6367504 12.062282,7.3637674 C 51.589358,16.358975 49.511799,7.5812864 39.626914,7.6139751 29.742029,7.6466638 27.743533,16.405527 27.76235,16.780011 Z"
             sodipodi:nodetypes="zszzz" />
        </g>
        <path
           id="path13"
           style="fill:#363636;stroke-width:9.24457;stroke-linecap:round;stroke-linejoin:round;paint-order:stroke fill markers"
           transform="rotate(5.1919597)"
           d="m 45.839599,1.3712819 c -0.319846,1.6958567 -0.298471,4.3274416 -2.386871,4.106322 -2.0884,-0.2211196 -1.476057,-2.7691796 -1.20189,-4.75832099 0.274167,-1.98914141 1.592477,-4.39339421 2.463427,-4.39339421 0.870951,0 1.445181,3.34953652 1.125334,5.0453932 z"
           sodipodi:nodetypes="zzzzz" />
        <path
           id="path14"
           style="fill:#363636;stroke-width:9.24457;stroke-linecap:round;stroke-linejoin:round;paint-order:stroke fill markers"
           d="m 35.884332,4.5866795 c 0.536016,2.4719527 0.573043,4.9211434 -0.66638,5.4308935 -1.239423,0.50975 -2.476961,-1.0637321 -3.259358,-3.5646163 -0.782397,-2.5008842 0.01112,-3.9776509 0.855605,-4.190716 0.844489,-0.2130652 2.534117,-0.1475139 3.070133,2.3244388 z"
           sodipodi:nodetypes="zzzzz" />
        <path
           id="path15"
           style="fill:#464646;fill-opacity:1;stroke-width:9.24457;stroke-linecap:round;stroke-linejoin:round;paint-order:stroke fill markers"
           d="m 34.837126,5.2702457 c -0.362323,3.2531372 -2.931434,5.3733703 -3.709606,5.4408773 -0.778173,0.06751 -0.255945,-3.3685986 0.242873,-5.6735328 0.498818,-2.3049342 0.44543,-2.5923523 1.289916,-2.8054174 0.844489,-0.2130652 2.539139,-0.2150642 2.176817,3.0380729 z"
           sodipodi:nodetypes="zzzzz" />
      </g>
      <g
         id="g16"
         inkscape:label="boater top"
         style="display:none">
        <g
           id="g3"
           inkscape:label="top"
           transform="matrix(1.2855726,0.07144589,-0.07144589,1.2855726,-7.2156384,-15.002938)">
          <path
             id="ellipse2"
             style="fill:#363636;stroke-width:0.79375;stroke-linecap:round;stroke-linejoin:round"
             d="m 36.108643,11.562517 c -5.433182,0.359173 -9.395151,1.477692 -9.395151,2.801721 l 1.46e-4,6.360396 c 0,-1.614055 5.888053,-2.922437 13.151303,-2.922437 7.26325,0 13.15135,1.30858 13.15135,2.922636 l -1.68e-4,-6.360797 c 0,-1.614055 -5.888087,-2.922236 -13.151328,-2.922236 -0.907907,0 -1.794411,0.02034 -2.650526,0.05927 -0.374551,0.01703 -0.743414,0.0375 -1.105626,0.06144 z" />
        </g>
        <g
           id="g5"
           inkscape:label="ribbon"
           transform="matrix(-1.303097,-0.07241982,0.07241982,-1.303097,93.24686,39.934733)">
          <path
             id="ellipse5"
             style="fill:#f5e95d;fill-opacity:1;stroke-width:0.79375;stroke-linecap:round;stroke-linejoin:round"
             d="m 43.620572,23.526348 c 5.433205,-0.359162 9.395598,-1.477597 9.395598,-2.801625 l -8.9e-5,-3.412448 c 10e-7,1.614055 -5.887866,2.922301 -13.151116,2.922301 -7.263249,0 -13.151538,-1.308215 -13.151537,-2.92227 l 8.9e-5,3.412448 c 0,1.614053 5.887899,2.922291 13.151142,2.922291 0.907905,0 1.794412,-0.02033 2.650527,-0.05926 0.374551,-0.01703 0.743172,-0.03749 1.105386,-0.06143 z" />
        </g>
        <g
           id="g17"
           inkscape:label="base"
           style="display:inline"
           transform="matrix(1.9357034,0.10757701,-0.10757701,1.9357034,-33.447725,-10.780379)">
          <path
             id="path17"
             style="display:inline;fill:#363636;stroke-width:0.79375;stroke-linecap:round;stroke-linejoin:round"
             d="M 37.214284,8.5528833 C 31.221468,8.8253961 26.713509,10.003778 26.713509,11.416076 l 3e-6,0.105718 c 0,1.614056 5.707287,-0.911936 12.970537,-0.911936 7.263249,0 13.332158,2.526113 13.332158,0.912058 l -1.7e-5,-0.105984 c 0,-1.6140555 -5.88805,-2.9222582 -13.151301,-2.9222582 -0.907906,0 -1.794488,0.020279 -2.650605,0.059209 z"
             sodipodi:nodetypes="sccsccss" />
        </g>
      </g>
      <g
         id="g23"
         inkscape:label="arms"
         style="display:inline"
         transform="matrix(2.165304,0,0,2.165304,-41.872503,-6.3497155)">
        <g
           id="g11"
           inkscape:label="left"
           transform="matrix(-0.6994942,-0.71463827,-0.71463827,0.6994942,93.215824,37.434022)">
          <path
             id="path10"
             style="display:inline;fill:#fdd9c0;fill-opacity:1;stroke-width:0.79375;stroke-linecap:round;stroke-linejoin:round"
             d="m 38.638577,29.953996 c 0.793288,-0.36814 3.214497,-1.163296 3.839257,-1.543499 0.624759,-0.380203 2.278691,1.973386 1.523524,2.318551 -0.755166,0.345165 -2.600094,1.683379 -3.584559,2.284124 -0.984465,0.600746 -3.708639,1.645995 -4.782456,1.535728 -1.073817,-0.110268 -1.823878,-1.482636 -0.74222,-2.411828 1.081659,-0.929193 2.953167,-1.814937 3.746454,-2.183076 z"
             sodipodi:nodetypes="zzzzzzz" />
          <path
             id="path11"
             style="fill:#f5f5f5;fill-opacity:1;stroke-width:1.0663;stroke-linecap:round;stroke-linejoin:round"
             d="m 48.672037,28.742232 c 1.184099,-1.067046 0.626637,-2.608548 -0.699726,-3.307921 -1.326357,-0.699371 -2.738718,1.271674 -2.827106,1.234534 -0.08839,-0.03714 0.426085,-1.198093 -0.356572,-1.490633 -0.782655,-0.292541 -1.300684,1.955479 -1.518308,2.31183 -0.217624,0.356351 -0.95523,1.00883 -1.142157,1.077535 -0.186927,0.06871 1.151042,2.595911 1.37657,2.505974 0.225527,-0.08994 1.263365,-0.618004 2.015582,-0.663833 0.752216,-0.04583 1.967616,-0.60044 3.151717,-1.667486 z"
             sodipodi:nodetypes="zzzzzzzzz" />
        </g>
        <g
           id="g25"
           inkscape:label="right"
           transform="rotate(-52.798003,35.739942,36.37495)">
          <path
             id="rect25"
             style="display:inline;fill:#fdd9c0;fill-opacity:1;stroke-width:0.79375;stroke-linecap:round;stroke-linejoin:round"
             d="m 36.684565,30.293943 c 0.827333,-0.487131 3.921837,-1.517828 4.44808,-1.603884 0.526241,-0.08606 2.35366,2.262583 1.52051,2.67233 -0.833149,0.409746 -3.460772,2.152868 -4.501563,2.649678 -1.04079,0.49681 -3.797675,1.06376 -4.479535,0.564852 -0.681859,-0.498908 -0.678497,-1.948534 0.236689,-2.624169 0.915184,-0.675636 1.948489,-1.171675 2.775821,-1.658807 z"
             sodipodi:nodetypes="zzzzzzzz" />
          <path
             id="rect26"
             style="fill:#f5f5f5;fill-opacity:1;stroke-width:1.04557;stroke-linecap:round;stroke-linejoin:round"
             d="m 47.755392,29.481936 c 1.243365,-0.947052 0.833623,-2.559478 -0.275242,-3.469506 -1.108866,-0.91003 -2.703036,0.850104 -2.877772,0.696454 -0.17474,-0.153646 0.55692,-1.003988 -0.270343,-1.210009 -0.827263,-0.206021 -1.591265,1.978296 -1.784136,2.208868 -0.192872,0.230572 -0.933187,0.715439 -1.440827,0.974459 -0.50764,0.259021 1.14021,2.858393 1.474847,2.762063 0.334636,-0.09633 1.737081,-0.643933 2.206452,-0.697702 0.469371,-0.05377 1.723659,-0.317578 2.967021,-1.264627 z"
             sodipodi:nodetypes="zzzzzzzzz" />
        </g>
      </g>
    </g>
  </g>
  <metadata
     id="metadata1">
    <rdf:RDF>
      <cc:Work
         rdf:about="">
        <cc:license
           rdf:resource="http://creativecommons.org/licenses/by-nc/4.0/" />
      </cc:Work>
      <cc:License
         rdf:about="http://creativecommons.org/licenses/by-nc/4.0/">
        <cc:permits
           rdf:resource="http://creativecommons.org/ns#Reproduction" />
        <cc:permits
           rdf:resource="http://creativecommons.org/ns#Distribution" />
        <cc:requires
           rdf:resource="http://creativecommons.org/ns#Notice" />
        <cc:requires
           rdf:resource="http://creativecommons.org/ns#Attribution" />
        <cc:prohibits
           rdf:resource="http://creativecommons.org/ns#CommercialUse" />
        <cc:permits
           rdf:resource="http://creativecommons.org/ns#DerivativeWorks" />
      </cc:License>
    </rdf:RDF>
  </metadata>
</svg>
